<?xml version="1.0" encoding="UTF-8" standalone="no"?>
<!DOCTYPE svg PUBLIC "-//W3C//DTD SVG 1.1//EN" "http://www.w3.org/Graphics/SVG/1.1/DTD/svg11.dtd">
<svg width="50%" height="50%" viewBox="0 0 789 389" version="1.1" xmlns="http://www.w3.org/2000/svg" xmlns:xlink="http://www.w3.org/1999/xlink" xml:space="preserve" xmlns:serif="http://www.serif.com/" style="fill-rule:evenodd;clip-rule:evenodd;stroke-linejoin:round;stroke-miterlimit:2;">
    <g transform="matrix(1,0,0,1,4528.74,-5486.49)">
        <g transform="matrix(0.914939,0,0,0.914939,-5509.1,3616.35)">
            <g>
                <g transform="matrix(1,0,0,1,1284.51,2306.51)">
                    <path d="M0,-100C-27.614,-100 -50,-77.614 -50,-50C-50,-22.386 -27.614,0 0,0C27.614,0 50,-22.386 50,-50C50,-77.614 27.614,-100 0,-100M0,-87.28C20.556,-87.28 37.28,-70.557 37.28,-50C37.28,-29.443 20.556,-12.72 0,-12.72C-20.557,-12.72 -37.28,-29.443 -37.28,-50C-37.28,-70.557 -20.557,-87.28 0,-87.28" style="fill:rgb(6,0,252);fill-rule:nonzero;"/>
                </g>
                <g transform="matrix(1,0,0,1,1311.5,2333.51)">
                    <path d="M0,-154C-42.526,-154 -77,-119.526 -77,-77C-77,-34.474 -42.526,0 0,0C42.526,0 77,-34.474 77,-77C77,-119.526 42.526,-154 0,-154M0,-141.28C17.383,-141.28 33.498,-134.392 45.445,-122.444C57.392,-110.498 64.28,-94.384 64.28,-77C64.28,-59.616 57.392,-43.502 45.445,-31.556C33.498,-19.608 17.384,-12.72 0,-12.72C-17.383,-12.72 -33.498,-19.608 -45.444,-31.556C-57.392,-43.502 -64.28,-59.616 -64.28,-77C-64.28,-94.384 -57.392,-110.497 -45.444,-122.444C-33.498,-134.392 -17.383,-141.28 0,-141.28" style="fill:rgb(6,0,252);fill-rule:nonzero;"/>
                </g>
                <g transform="matrix(1,0,0,1,1338.5,2360.51)">
                    <path d="M0,-208C-57.438,-208 -104,-161.437 -104,-104C-104,-46.563 -57.438,0 0,0C57.438,0 104,-46.563 104,-104C104,-161.437 57.438,-208 0,-208M0,-195.28C24.489,-195.28 47.397,-185.685 64.541,-168.541C81.684,-151.396 91.28,-128.488 91.28,-104C91.28,-79.512 81.684,-56.603 64.541,-39.459C47.397,-22.315 24.489,-12.72 0,-12.72C-24.488,-12.72 -47.397,-22.315 -64.541,-39.459C-81.684,-56.603 -91.28,-79.512 -91.28,-104C-91.28,-128.488 -81.684,-151.396 -64.541,-168.541C-47.397,-185.685 -24.488,-195.28 0,-195.28" style="fill:rgb(6,0,252);fill-rule:nonzero;"/>
                </g>
                <g transform="matrix(1,0,0,1,1365.5,2387.51)">
                    <path d="M0,-262C-72.35,-262 -131,-203.35 -131,-131C-131,-58.65 -72.35,0 0,0C72.349,0 131,-58.65 131,-131C131,-203.35 72.349,-262 0,-262M0,-249.28C31.594,-249.28 61.296,-236.977 83.637,-214.637C105.977,-192.297 118.28,-162.594 118.28,-131C118.28,-99.406 105.977,-69.703 83.637,-47.363C61.296,-25.023 31.594,-12.72 0,-12.72C-31.594,-12.72 -61.296,-25.023 -83.637,-47.363C-105.977,-69.703 -118.28,-99.406 -118.28,-131C-118.28,-162.594 -105.977,-192.297 -83.637,-214.637C-61.296,-236.977 -31.594,-249.28 0,-249.28" style="fill:rgb(6,0,252);fill-rule:nonzero;"/>
                </g>
                <g transform="matrix(1,0,0,1,1284.51,2306.51)">
                    <path d="M0,-100C-27.614,-100 -50,-77.614 -50,-50C-50,-22.386 -27.614,0 0,0C27.614,0 50,-22.386 50,-50C50,-77.614 27.614,-100 0,-100M0,-87.28C20.556,-87.28 37.28,-70.557 37.28,-50C37.28,-29.443 20.556,-12.72 0,-12.72C-20.557,-12.72 -37.28,-29.443 -37.28,-50C-37.28,-70.557 -20.557,-87.28 0,-87.28" style="fill:rgb(6,0,252);fill-rule:nonzero;"/>
                </g>
                <g transform="matrix(1,0,0,1,1365.5,2387.51)">
                    <path d="M0,-262C-72.35,-262 -131,-203.35 -131,-131C-131,-58.65 -72.35,0 0,0C72.349,0 131,-58.65 131,-131C131,-203.35 72.349,-262 0,-262M0,-249.28C31.594,-249.28 61.296,-236.977 83.637,-214.637C105.977,-192.297 118.28,-162.594 118.28,-131C118.28,-99.406 105.977,-69.703 83.637,-47.363C61.296,-25.023 31.594,-12.72 0,-12.72C-31.594,-12.72 -61.296,-25.023 -83.637,-47.363C-105.977,-69.703 -118.28,-99.406 -118.28,-131C-118.28,-162.594 -105.977,-192.297 -83.637,-214.637C-61.296,-236.977 -31.594,-249.28 0,-249.28" style="fill:rgb(6,0,252);fill-rule:nonzero;"/>
                </g>
                <g transform="matrix(1,0,0,1,1338.34,2414.68)">
                    <path d="M0,-316.334C-87.353,-316.334 -158.167,-245.52 -158.167,-158.167C-158.167,-70.813 -87.353,0 0,0C87.353,0 158.167,-70.813 158.167,-158.167C158.167,-245.52 87.353,-316.334 0,-316.334M0,-303.613C19.71,-303.613 38.823,-299.73 56.615,-292.209C73.794,-284.947 89.415,-274.444 102.846,-261.014C116.278,-247.582 126.78,-231.962 134.042,-214.782C141.562,-196.99 145.446,-177.877 145.446,-158.167C145.446,-138.457 141.562,-119.344 134.042,-101.552C126.78,-84.372 116.278,-68.752 102.846,-55.32C89.415,-41.89 73.794,-31.387 56.615,-24.125C38.823,-16.605 19.71,-12.721 0,-12.721C-19.71,-12.721 -38.823,-16.605 -56.616,-24.125C-73.795,-31.387 -89.415,-41.89 -102.847,-55.32C-116.278,-68.752 -126.781,-84.372 -134.042,-101.552C-141.562,-119.344 -145.447,-138.457 -145.447,-158.167C-145.447,-177.877 -141.562,-196.99 -134.042,-214.782C-126.781,-231.962 -116.278,-247.582 -102.847,-261.014C-89.415,-274.444 -73.795,-284.947 -56.616,-292.209C-38.823,-299.73 -19.71,-303.613 0,-303.613" style="fill:rgb(6,0,252);fill-rule:nonzero;"/>
                </g>
                <g transform="matrix(1,0,0,1,1311.17,2441.84)">
                    <path d="M0,-370.666C-102.356,-370.666 -185.333,-287.689 -185.333,-185.333C-185.333,-82.977 -102.356,0 0,0C102.357,0 185.333,-82.977 185.333,-185.333C185.333,-287.689 102.357,-370.666 0,-370.666M0,-357.946C23.343,-357.946 45.98,-353.364 67.188,-344.396C87.671,-335.735 106.165,-323.28 122.056,-307.389C137.948,-291.498 150.402,-273.004 159.064,-252.52C168.031,-231.313 172.613,-208.676 172.613,-185.333C172.613,-161.99 168.031,-139.353 159.064,-118.145C150.402,-97.662 137.948,-79.168 122.056,-63.277C106.165,-47.386 87.671,-34.931 67.188,-26.27C45.98,-17.302 23.343,-12.72 0,-12.72C-23.343,-12.72 -45.98,-17.302 -67.188,-26.27C-87.671,-34.931 -106.165,-47.386 -122.056,-63.277C-137.947,-79.168 -150.402,-97.662 -159.063,-118.145C-168.031,-139.353 -172.613,-161.99 -172.613,-185.333C-172.613,-208.676 -168.031,-231.313 -159.063,-252.52C-150.402,-273.004 -137.947,-291.498 -122.056,-307.389C-106.165,-323.28 -87.671,-335.735 -67.188,-344.396C-45.98,-353.364 -23.343,-357.946 0,-357.946" style="fill:rgb(6,0,252);fill-rule:nonzero;"/>
                </g>
                <g transform="matrix(1,0,0,1,1284,2469.01)">
                    <path d="M0,-425C-117.36,-425 -212.5,-329.86 -212.5,-212.5C-212.5,-95.14 -117.36,0 0,0C117.36,0 212.5,-95.14 212.5,-212.5C212.5,-329.86 117.36,-425 0,-425M0,-412.28C26.976,-412.28 53.138,-407 77.759,-396.586C101.547,-386.524 122.914,-372.117 141.266,-353.766C159.617,-335.414 174.024,-314.048 184.085,-290.26C194.5,-265.638 199.78,-239.476 199.78,-212.5C199.78,-185.524 194.5,-159.362 184.085,-134.74C174.024,-110.952 159.617,-89.586 141.266,-71.234C122.914,-52.883 101.547,-38.476 77.759,-28.415C53.138,-18 26.976,-12.72 0,-12.72C-26.976,-12.72 -53.138,-18 -77.76,-28.415C-101.548,-38.476 -122.915,-52.883 -141.266,-71.234C-159.617,-89.586 -174.024,-110.952 -184.085,-134.74C-194.5,-159.362 -199.78,-185.524 -199.78,-212.5C-199.78,-239.476 -194.5,-265.638 -184.085,-290.26C-174.024,-314.048 -159.617,-335.414 -141.266,-353.766C-122.915,-372.117 -101.548,-386.524 -77.76,-396.586C-53.138,-407 -26.976,-412.28 0,-412.28" style="fill:rgb(6,0,252);fill-rule:nonzero;"/>
                </g>
            </g>
            <g>
                <g transform="matrix(1,0,0,1,1901.77,2287.72)">
                    <path d="M0,-62.414C-17.218,-62.414 -31.175,-48.457 -31.175,-31.24L-31.175,-31.174C-31.175,-13.957 -17.218,0 0,0C17.217,0 31.174,-13.957 31.174,-31.174L31.174,-31.24C31.174,-48.457 17.217,-62.414 0,-62.414M0,-49.694C10.175,-49.694 18.454,-41.416 18.454,-31.24L18.454,-31.174C18.454,-20.998 10.175,-12.72 0,-12.72C-10.176,-12.72 -18.454,-20.998 -18.454,-31.174L-18.454,-31.24C-18.454,-41.416 -10.176,-49.694 0,-49.694" style="fill:rgb(6,0,252);fill-rule:nonzero;"/>
                </g>
                <g transform="matrix(1,0,0,1,1727.8,2243.47)">
                    <path d="M0,26.08L-0.032,26.112C-7.228,33.308 -18.936,33.308 -26.131,26.112C-33.326,18.917 -33.326,7.21 -26.131,0.015L-26.084,-0.032C-18.889,-7.228 -7.181,-7.228 0.015,-0.032C0.051,0.004 0.08,0.044 0.116,0.08L9.113,-8.917C9.078,-8.953 9.045,-8.991 9.009,-9.026C-3.165,-21.201 -22.903,-21.201 -35.078,-9.026L-35.125,-8.98C-47.299,3.194 -47.299,22.933 -35.125,35.107C-22.951,47.281 -3.212,47.281 8.962,35.107L8.994,35.074L0,26.08Z" style="fill:rgb(6,0,252);fill-rule:nonzero;"/>
                </g>
                <g transform="matrix(1,0,0,1,1643.82,2200.27)">
                    <path d="M0,85.362L-62.253,85.362L-62.253,0L0.047,0L0.047,12.925L-48.474,12.925L-48.474,35.913L-12.695,35.913L-12.695,48.839L-48.474,48.839L-48.474,72.435L0,72.435L0,85.362Z" style="fill:rgb(6,0,252);fill-rule:nonzero;"/>
                </g>
                <g transform="matrix(1,0,0,1,1791.4,2250.51)">
                    <path d="M0,-15.122C1.179,-16.788 2.489,-18.17 3.934,-19.268C5.375,-20.365 6.88,-21.228 8.444,-21.859C10.009,-22.488 11.595,-22.935 13.2,-23.2C14.807,-23.464 16.341,-23.597 17.804,-23.597C21.259,-23.597 24.439,-23.026 27.347,-21.889C30.252,-20.752 32.762,-19.155 34.876,-17.103C36.989,-15.05 38.626,-12.601 39.785,-9.756C40.943,-6.91 41.523,-3.78 41.523,-0.366L41.523,35.12L28.718,35.12L28.718,3.841C28.718,-1.076 27.529,-4.856 25.151,-7.5C22.773,-10.143 19.43,-11.463 15.122,-11.463C13.048,-11.463 11.097,-11.127 9.268,-10.457C7.439,-9.786 5.843,-8.8 4.481,-7.5C3.119,-6.199 2.032,-4.582 1.22,-2.652C0.406,-0.722 0,1.483 0,3.963L0,35.12L-12.805,35.12L-12.805,-50.242L0,-50.242L0,-15.122Z" style="fill:rgb(6,0,252);fill-rule:nonzero;"/>
                </g>
            </g>
        </g>
    </g>
</svg>
