<?xml version="1.0" encoding="utf-8"?>
<!-- Generator: Adobe Illustrator 23.0.1, SVG Export Plug-In . SVG Version: 6.00 Build 0)  -->
<svg version="1.1"  xmlns="http://www.w3.org/2000/svg" xmlns:xlink="http://www.w3.org/1999/xlink" x="0px" y="0px"
	 viewBox="0 0 32 32" style="enable-background:new 0 0 32 32;" xml:space="preserve">
<style type="text/css">
	.st0{fill: #313FF6;}
</style>
<g>
	<path class="st0" d="M30.2,13.2l-8.5,8.5c-2.4,2.4-6.2,2.4-8.5,0l-2.8-2.8l2.8-2.8l2.8,2.8c0.8,0.8,2.1,0.8,2.8,0l8.5-8.5
		c0.8-0.8,0.8-2.1,0-2.8l-2.8-2.8c-0.8-0.8-2.1-0.8-2.8,0l-3,3c-1.4-0.8-3-1.2-4.6-1.1l4.8-4.8c2.4-2.4,6.2-2.4,8.5,0l2.8,2.8
		C32.6,7,32.6,10.8,30.2,13.2z M13.4,24.3l-3,3c-0.8,0.8-2.1,0.8-2.8,0l-2.8-2.8c-0.8-0.8-0.8-2.1,0-2.8l8.5-8.5
		c0.8-0.8,2.1-0.8,2.8,0l2.8,2.8l2.8-2.8l-2.8-2.8c-2.4-2.4-6.2-2.4-8.5,0l-8.5,8.5c-2.4,2.4-2.4,6.2,0,8.5l2.8,2.8
		c2.4,2.4,6.2,2.4,8.5,0l4.8-4.8C16.4,25.5,14.8,25.2,13.4,24.3z"/>
</g>
</svg>
