<?xml version="1.0" encoding="utf-8"?>
<!-- Generator: Adobe Illustrator 23.0.0, SVG Export Plug-In . SVG Version: 6.00 Build 0)  -->
<svg version="1.1" id="Слой_1" xmlns="http://www.w3.org/2000/svg" xmlns:xlink="http://www.w3.org/1999/xlink" x="0px" y="0px"
	 viewBox="0 0 42 42" style="enable-background:new 0 0 42 42;" xml:space="preserve">
<g>
	<rect x="6" y="26" width="4" height="4"/>
	<polygon points="4,32 7,32 7,42 0,42 0,0 33,0 33,9 30,9 30,10.04 21,4.85 7,12.92 7,24 4,24 	"/>
	<polygon points="12,29.66 12,24 9,24 9,14.08 21,7.15 30,12.35 30,17 33,17 33,27.92 21,34.85 	"/>
	<rect x="32" y="11" width="4" height="4"/>
	<polygon points="42,0 42,42 9,42 9,32 12,32 12,31.96 21,37.15 35,29.08 35,17 38,17 38,9 35,9 35,0 	"/>
</g>
</svg>
