<?xml version="1.0" encoding="utf-8"?>
<!-- Generator: Adobe Illustrator 23.0.0, SVG Export Plug-In . SVG Version: 6.00 Build 0)  -->
<svg version="1.1" id="Слой_1" xmlns="http://www.w3.org/2000/svg" xmlns:xlink="http://www.w3.org/1999/xlink" x="0px" y="0px"
	 viewBox="0 0 42 42" style="enable-background:new 0 0 42 42;" xml:space="preserve">
<g>
	<polygon points="6,6 0,6 0,0 9,0 9,3 6,3 	"/>
	<rect x="8" y="5" width="4" height="4"/>
	<path d="M14,8v3h-3v23h17v-3h3V8H14z M20,26h-6v-2h6V26z M28,22H14v-2h14V22z M28,18H14v-2h14V18z"/>
	<polygon points="28,39 31,39 31,42 0,42 0,8 6,8 6,11 9,11 9,36 28,36 	"/>
	<rect x="30" y="33" width="4" height="4"/>
	<polygon points="42,0 42,34 36,34 36,31 33,31 33,6 14,6 14,3 11,3 11,0 	"/>
	<polygon points="36,36 42,36 42,42 33,42 33,39 36,39 	"/>
</g>
</svg>
