<?xml version="1.0" encoding="utf-8"?>
<!-- Generator: Adobe Illustrator 23.0.0, SVG Export Plug-In . SVG Version: 6.00 Build 0)  -->
<svg version="1.1" id="Слой_1" xmlns="http://www.w3.org/2000/svg" xmlns:xlink="http://www.w3.org/1999/xlink" x="0px" y="0px"
	 viewBox="0 0 42 42" style="enable-background:new 0 0 42 42;" xml:space="preserve">
<g>
	<rect x="30" y="8" width="4" height="4"/>
	<rect x="41" y="30" width="1" height="4"/>
	<rect x="8" y="30" width="4" height="4"/>
	<rect y="30" width="1" height="4"/>
	<rect x="8" y="19" width="4" height="4"/>
	<rect x="19" y="30" width="4" height="4"/>
	<path d="M0,0v28h3v8H0v6h42v-6h-3v-8h3V0H0z M14,36H6v-8h8V36z M14,25H6v-8h8V25z M25,36h-8v-8h8V36z M25,25h-8v-8h8V25z M36,36h-8
		v-8h8V36z M36,25h-8v-8h8V25z M36,14h-8V6h8V14z"/>
	<rect x="19" y="19" width="4" height="4"/>
	<rect x="30" y="19" width="4" height="4"/>
	<rect x="30" y="30" width="4" height="4"/>
</g>
</svg>
