<?xml version="1.0" encoding="utf-8"?>
<!-- Generator: Adobe Illustrator 23.0.0, SVG Export Plug-In . SVG Version: 6.00 Build 0)  -->
<svg version="1.1" id="Слой_1" xmlns="http://www.w3.org/2000/svg" xmlns:xlink="http://www.w3.org/1999/xlink" x="0px" y="0px"
	 viewBox="0 0 60 60" style="enable-background:new 0 0 60 60;" xml:space="preserve">
<style type="text/css">
	.st0{clip-path:url(#SVGID_2_);fill:#0000FB;}
	.st1{clip-path:url(#SVGID_2_);}
</style>
<g>
	<defs>
		<rect id="SVGID_1_" width="60" height="60"/>
	</defs>
	<clipPath id="SVGID_2_">
		<use xlink:href="#SVGID_1_"  style="overflow:visible;"/>
	</clipPath>
	<path class="st0" d="M5,2v48h48V2H5z M31.12,39.44c0,4.67-2.74,6.8-6.73,6.8c-3.61,0-5.71-1.87-6.77-4.13l3.67-2.22
		c0.71,1.26,1.36,2.32,2.9,2.32c1.49,0,2.42-0.58,2.42-2.84V24.04h4.51V39.44z M41.79,46.24c-4.19,0-6.9-2-8.22-4.61l3.67-2.13
		c0.97,1.58,2.23,2.74,4.45,2.74c1.87,0,3.06-0.93,3.06-2.22c0-1.55-1.22-2.1-3.28-3l-1.13-0.48c-3.26-1.39-5.42-3.13-5.42-6.8
		c0-3.38,2.58-5.96,6.61-5.96c2.87,0,4.93,1,6.41,3.61l-3.51,2.25c-0.77-1.38-1.61-1.93-2.9-1.93c-1.32,0-2.16,0.84-2.16,1.93
		c0,1.36,0.84,1.9,2.77,2.74l1.13,0.49c3.83,1.64,5.99,3.31,5.99,7.08C49.26,44.01,46.07,46.24,41.79,46.24z"/>
	<path class="st1" d="M8.62,60L0.59,8.62l51.38-8.03L60,51.97L8.62,60z M5.16,11.96l6.79,43.47l43.47-6.79L48.64,5.16L5.16,11.96z"
		/>
</g>
</svg>
