<?xml version="1.0" encoding="utf-8"?>
<!-- Generator: Adobe Illustrator 23.0.0, SVG Export Plug-In . SVG Version: 6.00 Build 0)  -->
<svg version="1.1" id="Слой_1" xmlns="http://www.w3.org/2000/svg" xmlns:xlink="http://www.w3.org/1999/xlink" x="0px" y="0px"
	 viewBox="0 0 60 60" style="enable-background:new 0 0 60 60;" xml:space="preserve">
<style type="text/css">
	.st0{clip-path:url(#SVGID_2_);fill:#0000FB;}
	.st1{clip-path:url(#SVGID_2_);}
</style>
<g>
	<defs>
		<rect id="SVGID_1_" width="60" height="60"/>
	</defs>
	<clipPath id="SVGID_2_">
		<use xlink:href="#SVGID_1_"  style="overflow:visible;"/>
	</clipPath>
	<path class="st0" d="M6,25.8v1.33c0.21-0.14,0.35-0.39,0.35-0.67C6.35,26.18,6.21,25.94,6,25.8z M13,25c-0.55,0-1,0.43-1,0.99
		S12.45,27,13,27c0.56,0,1-0.45,1-1.01S13.56,25,13,25z M6,25.8v1.33c0.21-0.14,0.35-0.39,0.35-0.67C6.35,26.18,6.21,25.94,6,25.8z
		 M13,25c-0.55,0-1,0.43-1,0.99S12.45,27,13,27c0.56,0,1-0.45,1-1.01S13.56,25,13,25z M54,20.64V12H6v11.02
		c1.06-0.42,2.24-0.64,3.48-0.64c1.3,0,2.54,0.25,3.65,0.71l1.48-2.28c0.09-0.14,0.28-0.18,0.42-0.09c0.14,0.09,0.18,0.28,0.09,0.42
		l-1.43,2.2C16.26,24.6,18,26.98,18,29.7c0,0.17-0.01,0.34-0.02,0.5H6v0.76h12v12.56c0,0.93-0.76,1.68-1.68,1.68h-1.8v4.3
		c0,1.01-0.82,1.83-1.83,1.83h-0.07c-1.01,0-1.83-0.82-1.83-1.83v-4.3H8.28v4.3c0,1.01-0.82,1.83-1.83,1.83H6.37
		c-0.13,0-0.25-0.01-0.37-0.04V60h48v-8.4c-0.21-0.08-0.41-0.16-0.61-0.25c-0.73-0.32-1.48-0.64-2.66-0.64
		c-1.24,0-2.03,0.33-2.79,0.66c-0.68,0.29-1.38,0.59-2.36,0.63h-0.11c-2.08,0-3.59-1.94-5.08-4.1c-2.99-4.32-4.71-11.44-2.01-16.14
		c1.43-2.47,4.01-4.03,6.74-4.07h0.08c1.18,0,2.29,0.44,3.26,0.82c0.74,0.29,1.37,0.55,1.86,0.55c0.43,0,1.06-0.25,1.78-0.54
		c0.57-0.22,1.22-0.47,1.9-0.66v-1.47c-1.08,0.88-2.38,1.4-3.61,1.4c-0.12,0-0.23,0-0.34-0.01c-0.13-0.01-0.23-0.11-0.24-0.23
		c-0.26-1.96,0.72-3.91,1.73-5.08C52.19,21.72,53.07,21.08,54,20.64z M22,40.27c0,0.95-0.66,1.73-1.47,1.73h-0.06
		C19.66,42,19,41.22,19,40.27v-7.54c0-0.95,0.66-1.73,1.47-1.73h0.06c0.81,0,1.47,0.78,1.47,1.73V40.27z M13,25
		c-0.55,0-1,0.43-1,0.99S12.45,27,13,27c0.56,0,1-0.45,1-1.01S13.56,25,13,25z M6,25.8v1.33c0.21-0.14,0.35-0.39,0.35-0.67
		C6.35,26.18,6.21,25.94,6,25.8z M13,25c-0.55,0-1,0.43-1,0.99S12.45,27,13,27c0.56,0,1-0.45,1-1.01S13.56,25,13,25z M6,25.8v1.33
		c0.21-0.14,0.35-0.39,0.35-0.67C6.35,26.18,6.21,25.94,6,25.8z"/>
	<path class="st1" d="M8.03,59.41L0,8.03L51.38,0l8.03,51.38L8.03,59.41z M4.57,11.36l6.79,43.47l43.47-6.79L48.04,4.57L4.57,11.36z
		"/>
</g>
</svg>
