<?xml version="1.0" standalone="no"?>
<!DOCTYPE svg PUBLIC "-//W3C//DTD SVG 1.1//EN" "http://www.w3.org/Graphics/SVG/1.1/DTD/svg11.dtd" >
<svg xmlns="http://www.w3.org/2000/svg" xmlns:xlink="http://www.w3.org/1999/xlink" version="1.1">
<metadata>
Created by FontForge 20170731 at Sun Feb 18 09:55:29 2018
 By Aleksey,,,
Copyright 2018 The Inter UI project authors
</metadata>
<defs>
<font id="InterUI-Bold" horiz-adv-x="0" >
  <font-face 
    font-family="Inter UI"
    font-weight="700"
    font-stretch="normal"
    units-per-em="2816"
    panose-1="2 11 8 2 3 0 0 0 0 4"
    ascent="2252"
    descent="-564"
    x-height="1536"
    cap-height="2048"
    bbox="-2049 -1087 3896 2927"
    underline-thickness="170"
    underline-position="-762"
    unicode-range="U+0002-1F16B"
  />
<missing-glyph horiz-adv-x="2833" 
d="M264 2176v512h2304v-512h-2304zM264 1472v512h2304v-512h-2304zM264 768v512h2304v-512h-2304zM264 64v512h2304v-512h-2304zM264 -640v512h2304v-512h-2304z" />
    <glyph glyph-name=".notdef" horiz-adv-x="2833" 
d="M264 2176v512h2304v-512h-2304zM264 1472v512h2304v-512h-2304zM264 768v512h2304v-512h-2304zM264 64v512h2304v-512h-2304zM264 -640v512h2304v-512h-2304z" />
    <glyph glyph-name=".null" 
 />
    <glyph glyph-name="nonmarkingreturn" horiz-adv-x="938" 
 />
    <glyph glyph-name="controlSOT" 
 />
    <glyph glyph-name="controlHT" unicode="&#x9;" horiz-adv-x="790" 
 />
    <glyph glyph-name="CR" unicode="&#xd;" horiz-adv-x="790" 
 />
    <glyph glyph-name="space" unicode=" " horiz-adv-x="776" 
 />
    <glyph glyph-name="exclam" unicode="!" horiz-adv-x="795" 
d="M604 2048l-44 -1431h-319l-45 1431h408zM397 -27q-100 0 -163.5 62.5t-63.5 157.5q0 94 63.5 157t163.5 63t165.5 -63t65.5 -157t-65.5 -157t-165.5 -63z" />
    <glyph glyph-name="quotedbl" unicode="&#x22;" horiz-adv-x="1123" 
d="M435 2048v-764h-285v764h285zM947 2048v-764h-285v764h285z" />
    <glyph glyph-name="numbersign" unicode="#" horiz-adv-x="1819" 
d="M360 0l88 565h-308l9 236h336l65 411h-310l9 238h338l89 568h244l-89 -568h295l89 568h248l-89 -568h306l-9 -238h-335l-64 -411h308l-9 -236h-336l-89 -565h-246l88 565h-295l-88 -565h-245zM730 801h295l64 411h-295z" />
    <glyph glyph-name="dollar" unicode="$" horiz-adv-x="1820" 
d="M811 -256l3 227q-117 8 -221 38t-192.5 84.5t-153 128.5t-102 176t-39.5 222h386q8 -137 95 -217.5t231 -96.5l7 587l-92 27q-128 39 -230 92.5t-179 124.5t-118.5 163.5t-41.5 200.5q0 160 87.5 287.5t240.5 201t348 84.5l3 230h190l-3 -235q270 -32 434.5 -194.5
t168.5 -408.5h-376q-10 103 -68.5 170.5t-162.5 92.5l-7 -539l22 -7q304 -99 452.5 -241.5t148.5 -370.5q0 -252 -172 -411t-466 -186l-3 -230h-190zM549 1501q0 -83 69.5 -139.5t211.5 -108.5l6 485q-130 -14 -208.5 -78t-78.5 -159zM1260 568q0 84 -57.5 145t-187.5 115
l-7 -515q119 24 185.5 93.5t66.5 161.5z" />
    <glyph glyph-name="percent" unicode="%" horiz-adv-x="2321" 
d="M220 1556v108q0 92 29 172.5t82.5 142t136.5 97t184 35.5q203 0 317.5 -128t114.5 -319v-108q0 -190 -115.5 -317.5t-316.5 -127.5q-136 0 -235.5 61t-148 160.5t-48.5 223.5zM2034 2083l-1455 -2118h-316l1454 2118h317zM492 1664v-108q0 -87 38 -146t122 -59t122 59
t38 146v108q0 41 -7.5 76t-25 65.5t-50 48t-77.5 17.5q-84 0 -122 -60t-38 -147zM1240 384v108q0 92 29 172.5t82.5 142t136.5 97t184 35.5q203 0 317.5 -128t114.5 -319v-108q0 -190 -115.5 -318.5t-316.5 -128.5q-136 0 -235.5 61.5t-148 161.5t-48.5 224zM1512 492v-108
q0 -87 38 -146t122 -59t122 59t38 146v108q0 41 -7.5 76t-25 65.5t-50 48t-77.5 17.5q-84 0 -122 -60t-38 -147z" />
    <glyph glyph-name="ampersand" unicode="&#x26;" horiz-adv-x="1983" 
d="M1429 0l-109 128q-221 -156 -518 -156q-299 0 -475.5 160.5t-176.5 416.5q0 87 25.5 161.5t78.5 140t113.5 118t152.5 117.5q-99 133 -148.5 240t-49.5 215q0 241 147.5 386.5t394.5 145.5q151 0 268 -65t178 -171.5t61 -234.5q0 -258 -266 -453l-131 -96l358 -426
q82 162 82 353h326q0 -386 -178 -626l298 -354h-431zM660 1546q0 -60 34 -125.5t100 -148.5l107 73q83 55 117 110t34 122q0 69 -53.5 125t-137.5 56q-92 0 -146.5 -60.5t-54.5 -151.5zM529 568q0 -121 82 -201.5t210 -80.5q151 0 289 90l-406 479l-37 -27
q-138 -116 -138 -260z" />
    <glyph glyph-name="quotesingle" unicode="'" horiz-adv-x="570" 
d="M425 2048v-764h-285v764h285z" />
    <glyph glyph-name="parenleft" unicode="(" horiz-adv-x="1026" 
d="M940 -384h-324q-170 230 -273 551.5t-103 664.5q0 346 105 667t281 549h318q-179 -305 -259.5 -593.5t-80.5 -622.5q0 -324 80.5 -618.5t255.5 -597.5z" />
    <glyph glyph-name="parenright" unicode=")" horiz-adv-x="1026" 
d="M59 -384q175 303 255.5 597.5t80.5 618.5q0 334 -80.5 622.5t-259.5 593.5h318q176 -228 281 -549t105 -667q0 -343 -103 -664.5t-273 -551.5h-324z" />
    <glyph glyph-name="asterisk" unicode="*" horiz-adv-x="1522" 
d="M286 969l291 371l-434 128l79 245l432 -167l-21 472h267l-24 -481l424 165l81 -245l-441 -128l285 -362l-214 -153l-255 390l-256 -382z" />
    <glyph glyph-name="plus" unicode="+" horiz-adv-x="1645" 
d="M1462 1052v-312h-484v-484h-311v484h-485v312h485v484h311v-484h484z" />
    <glyph glyph-name="comma" unicode="," horiz-adv-x="792" 
d="M589 319v-259q-1 -152 -69 -303t-178 -261l-216 89q8 16 31 65t32.5 71t27 67.5t25 78t14 79.5t6.5 94v279h327z" />
    <glyph glyph-name="hyphen" unicode="-" horiz-adv-x="1307" 
d="M1145 1015v-293h-983v293h983z" />
    <glyph glyph-name="period" unicode="." horiz-adv-x="792" 
d="M396 -24q-93 0 -159.5 67t-66.5 162q0 93 66.5 159t159.5 66q94 0 160 -66t66 -159q0 -95 -66 -162t-160 -67z" />
    <glyph glyph-name="slash" unicode="/" horiz-adv-x="1138" 
d="M1038 2048l-596 -2356h-343l596 2356h343z" />
    <glyph glyph-name="zero" unicode="0" horiz-adv-x="1702" 
d="M1565 1184v-294q0 -223 -51.5 -398t-145.5 -288.5t-224.5 -172.5t-290.5 -59q-162 0 -293 59t-225.5 173t-146 288.5t-51.5 397.5v294q0 214 51.5 383.5t146 280.5t226 169.5t291.5 58.5q326 0 519.5 -233t193.5 -659zM1178 835v403q0 247 -86.5 379.5t-239.5 132.5
q-154 0 -241 -132.5t-87 -379.5v-403q0 -261 87 -397.5t242 -136.5q153 0 239 136.5t86 397.5z" />
    <glyph glyph-name="one" unicode="1" horiz-adv-x="1361" 
d="M955 2048v-2048h-361v1536h-16q-33 -58 -142 -97t-268 -39v317q58 0 109.5 10.5t90.5 29.5t72 41.5t56.5 50.5t42 53t31 52t19.5 44.5t12 33.5l5 16h349z" />
    <glyph glyph-name="two" unicode="2" horiz-adv-x="1691" 
d="M1540 332v-332h-1397v286l682 688q153 158 219 272.5t66 217.5q0 125 -79 212t-210 87q-141 0 -215.5 -104.5t-74.5 -264.5h-380q0 137 45.5 259.5t129 217t214 150t289.5 55.5q190 0 340 -76t233.5 -212.5t83.5 -310.5q0 -98 -30 -194t-92.5 -193t-135.5 -185t-180 -199
l-354 -362v-12h846z" />
    <glyph glyph-name="three" unicode="3" horiz-adv-x="1691" 
d="M631 861v335h187q148 0 229 85t81 217q0 120 -77 195t-212 75q-119 0 -199.5 -65t-80.5 -170h-377q0 160 84.5 284.5t231.5 191.5t331 67q307 0 491.5 -149t184.5 -422q0 -138 -83.5 -266.5t-232.5 -199.5q174 -58 263 -183t89 -295q0 -182 -95 -317t-255.5 -203.5
t-363.5 -68.5q-131 0 -249 35t-213.5 103t-152 179.5t-56.5 252.5h384q0 -114 83 -185.5t213 -71.5q145 0 234 77t89 205q0 156 -88.5 225t-252.5 69h-187z" />
    <glyph glyph-name="four" unicode="4" horiz-adv-x="1732" 
d="M1644 726v-331h-296v-395h-351v395h-896v259l851 1394h396v-1322h296zM513 726h484v834l-45 -87z" />
    <glyph glyph-name="five" unicode="5" horiz-adv-x="1691" 
d="M513 926l-314 77l120 1045h1131v-337h-815l-59 -501h9q42 47 127 82t193 35q179 0 319.5 -83t219.5 -234.5t79 -347.5q0 -141 -44 -264.5t-127.5 -219t-217 -151t-301.5 -55.5q-298 0 -480 171t-191 451h379q17 -139 88 -224t206 -85q148 0 230.5 108t82.5 270
q0 181 -90.5 278t-249.5 97q-183 0 -295 -112z" />
    <glyph glyph-name="six" unicode="6" horiz-adv-x="1683" 
d="M1117 1514q-67 247 -285 247q-77 0 -135.5 -31t-105 -99.5t-73.5 -186.5t-34 -284q148 172 402 172q140 0 258.5 -55.5t197 -149t122 -216t43.5 -257.5q0 -190 -82 -344.5t-238 -246t-358 -91.5q-328 0 -518 243.5t-190 688.5v76q0 208 21.5 373t72 304t131 231.5
t201 143.5t278.5 51q275 0 441.5 -149t219.5 -420h-369zM488 693q0 -101 26.5 -180t73 -128t105.5 -74t127 -25q141 0 225.5 100t84.5 268q0 163 -82 264t-234 101q-146 0 -236 -90t-90 -225v-11z" />
    <glyph glyph-name="seven" unicode="7" horiz-adv-x="1650" 
d="M1508 2048v-251l-758 -1797h-406l748 1713h-951v335h1367z" />
    <glyph glyph-name="eight" unicode="8" horiz-adv-x="1675" 
d="M1515 569q0 -187 -89 -324t-240 -205t-345 -68q-145 0 -269 39.5t-216 114t-144.5 188.5t-52.5 255q0 170 82.5 297.5t228.5 199.5q-126 68 -195.5 183t-69.5 265q0 179 83 307.5t224.5 191.5t326.5 63q187 0 328.5 -63t223.5 -191.5t82 -307.5q0 -151 -70 -266
t-196 -183q145 -71 226.5 -198.5t81.5 -297.5zM1096 1495q0 120 -71.5 191.5t-188.5 71.5q-114 0 -184.5 -70t-70.5 -192q0 -124 72 -200.5t188 -76.5q114 0 184.5 76.5t70.5 199.5zM1135 594q0 138 -85 226t-214 88q-127 0 -212.5 -88t-85.5 -225q0 -135 86 -220.5
t217 -85.5t212.5 84.5t81.5 220.5z" />
    <glyph glyph-name="nine" unicode="9" horiz-adv-x="1683" 
d="M539 534q67 -247 285 -247q77 0 135.5 31t105 99.5t73.5 186.5t34 284q-148 -172 -402 -172q-140 0 -258.5 55.5t-197 149t-122 216t-43.5 257.5q0 190 82 344.5t238 246t358 91.5q328 0 518 -243.5t190 -688.5v-76q0 -208 -21.5 -373t-72 -304t-131 -231.5t-201 -143.5
t-278.5 -51q-275 0 -441.5 149t-219.5 420h369zM526 1394q0 -163 82 -264t234 -101q146 0 236 90t90 225v11q0 101 -26.5 180t-73 128t-105.5 74t-127 25q-141 0 -225.5 -100t-84.5 -268z" />
    <glyph glyph-name="colon" unicode=":" horiz-adv-x="792" 
d="M396 1043q-93 0 -159.5 67t-66.5 162q0 93 66.5 159t159.5 66q94 0 160 -66.5t66 -158.5q0 -95 -66 -162t-160 -67zM396 -24q-93 0 -159.5 67t-66.5 162q0 93 66.5 159t159.5 66q94 0 160 -66t66 -159q0 -95 -66 -162t-160 -67z" />
    <glyph glyph-name="semicolon" unicode=";" horiz-adv-x="792" 
d="M396 1078q-93 0 -159.5 67t-66.5 162q0 93 66.5 159t159.5 66q94 0 160 -66t66 -159q0 -95 -66 -162t-160 -67zM589 319v-259q-1 -152 -69 -303t-178 -261l-216 89q8 16 31 65t32.5 71t27 67.5t25 78t14 79.5t6.5 94v279h327z" />
    <glyph glyph-name="less" unicode="&#x3c;" horiz-adv-x="1307" 
d="M1145 388l-229 -215l-803 723l803 723l229 -215l-564 -504v-8z" />
    <glyph glyph-name="equal" unicode="=" horiz-adv-x="1645" 
d="M246 1359h1152v-310h-1152v310zM246 743h1152v-310h-1152v310z" />
    <glyph glyph-name="greater" unicode="&#x3e;" horiz-adv-x="1307" 
d="M135 388l564 504v8l-564 504l229 215l803 -723l-803 -723z" />
    <glyph glyph-name="question" unicode="?" horiz-adv-x="1553" 
d="M929 617h-335q0 98 15 181t40 143t58 110.5t69 89t72.5 73t69.5 67.5t58 67t40 78t15 95q0 119 -60 181.5t-171 62.5q-47 0 -88 -15t-75 -45t-53.5 -81t-20.5 -118h-383q1 142 49 252.5t132.5 179t195.5 103.5t243 35q286 0 448 -144.5t162 -400.5q0 -93 -26 -171
t-68 -134t-92.5 -107t-102 -101.5t-94 -105.5t-69.5 -130.5t-29 -164.5zM765 -21q-100 0 -165 62.5t-65 156.5t65 157.5t165 63.5q98 0 163 -63.5t65 -157.5q0 -93 -65 -156t-163 -63z" />
    <glyph glyph-name="at" unicode="@" horiz-adv-x="2780" 
d="M1439 2026q231 0 429 -58t344 -162.5t249.5 -247t155.5 -314t52 -360.5q0 -157 -18 -289t-60 -246t-106 -193.5t-160 -124.5t-218 -45q-58 0 -98 3.5t-85.5 16t-75 35.5t-52.5 64t-31 99h-12q-38 -94 -174.5 -155.5t-278.5 -50.5q-262 19 -413 207.5t-151 530.5
q0 123 31.5 230.5t84 185.5t122 136.5t145.5 92t156 44.5q153 22 286.5 -23.5t160.5 -115.5h12v112h291v-1002q0 -105 99 -105q113 0 172 140.5t59 456.5q0 422 -237 632t-691 210q-176 0 -327 -48.5t-264 -139t-193 -215t-121 -280t-41 -331.5q0 -485 254 -740.5
t740 -255.5q143 0 292 31.5t248 69.5l91 -268q-88 -50 -276 -92t-363 -42q-639 0 -977 336t-338 969q0 230 56 431.5t165.5 361t264 273.5t359 175t442.5 61zM1364 1126q-141 0 -226 -107.5t-85 -270.5q-5 -438 303 -438q179 0 272 110.5t93 327.5q0 108 -25.5 183.5
t-75 117.5t-111.5 60t-145 17z" />
    <glyph glyph-name="A" unicode="A" horiz-adv-x="2084" 
d="M501 0h-424l755 2048h419l755 -2048h-423l-149 436h-784zM1030 1550l-270 -790h564l-270 790h-24z" />
    <glyph glyph-name="B" unicode="B" horiz-adv-x="1799" 
d="M985 0h-808v2048h752q174 0 309 -41.5t220 -116.5t128.5 -175.5t43.5 -221.5q0 -175 -91.5 -282t-259.5 -146v-17q175 -20 289.5 -154.5t114.5 -341.5q0 -251 -179.5 -401.5t-518.5 -150.5zM572 1716v-535h327q168 0 255.5 68.5t87.5 200.5q0 118 -76 192t-246 74h-348z
M1297 596q0 128 -83 213t-238 85h-404v-562h389q173 0 254.5 69.5t81.5 194.5z" />
    <glyph glyph-name="C" unicode="C" horiz-adv-x="2004" 
d="M1882 1405l-384 -43q-44 174 -167 265.5t-292 91.5q-112 0 -204 -42.5t-160.5 -126.5t-106.5 -219t-38 -310q0 -344 138.5 -518t370.5 -174q168 0 289 89.5t165 259.5l387 -43q-75 -313 -302 -488t-539 -175q-195 0 -361 72t-286.5 204.5t-188.5 331.5t-68 441
q0 244 68 443.5t188.5 333t286.5 206t361 72.5q313 0 541 -177.5t302 -493.5z" />
    <glyph glyph-name="D" unicode="D" horiz-adv-x="1980" 
d="M872 0h-695v2048h704q450 0 707 -272t257 -751q0 -480 -258.5 -752.5t-714.5 -272.5zM859 1706h-287v-1364h281q298 0 447.5 168.5t149.5 514.5q0 681 -591 681z" />
    <glyph glyph-name="E" unicode="E" horiz-adv-x="1665" 
d="M1508 332v-332h-1331v2048h1326v-332h-931v-526h803v-331h-803v-527h936z" />
    <glyph glyph-name="F" unicode="F" horiz-adv-x="1655" 
d="M1363 1190v-331h-791v-859h-395v2048h1323v-332h-928v-526h791z" />
    <glyph glyph-name="G" unicode="G" horiz-adv-x="2029" 
d="M1886 1070v-301q0 -177 -66 -327.5t-179.5 -252.5t-268.5 -159.5t-330 -57.5q-195 0 -361.5 71.5t-287.5 203.5t-189.5 331t-68.5 443q0 245 68 445.5t188 333t284 204.5t356 72q301 0 526.5 -170t318.5 -479l-399 -43q-52 166 -171 250.5t-275 84.5q-108 0 -197.5 -42
t-158 -125t-107 -219t-38.5 -312t39 -311t109 -217t161.5 -123t202.5 -41q199 0 329.5 121t130.5 319h-429v301h813z" />
    <glyph glyph-name="H" unicode="H" horiz-adv-x="1994" 
d="M572 2048v-858h850v858h395v-2048h-395v859h-850v-859h-395v2048h395z" />
    <glyph glyph-name="I" unicode="I" horiz-adv-x="749" 
d="M572 2048v-2048h-395v2048h395z" />
    <glyph glyph-name="J" unicode="J" horiz-adv-x="1552" 
d="M990 614v1434h392v-1434q0 -196 -85 -342.5t-233.5 -223t-339.5 -76.5q-141 0 -259.5 38.5t-206.5 112.5t-137.5 189.5t-49.5 262.5h392q2 -132 75 -206t191 -74q116 0 188.5 80.5t72.5 238.5z" />
    <glyph glyph-name="K" unicode="K" horiz-adv-x="1980" 
d="M1420 0l-603 823l-245 -270v-553h-395v2048h395v-907h27l819 907h517l-868 -940l828 -1108h-475z" />
    <glyph glyph-name="L" unicode="L" horiz-adv-x="1573" 
d="M1440 332v-332h-1263v2048h395v-1716h868z" />
    <glyph glyph-name="M" unicode="M" horiz-adv-x="2529" 
d="M177 2048h497l580 -1427h24l578 1427h496v-2048h-390v1397h-17l-538 -1370h-284l-539 1376h-17v-1403h-390v2048z" />
    <glyph glyph-name="N" unicode="N" horiz-adv-x="1993" 
d="M1816 2048v-2048h-387l-840 1370h-17v-1370h-395v2048h390l838 -1373h17v1373h394z" />
    <glyph glyph-name="O" unicode="O" horiz-adv-x="2073" 
d="M1938 1021q0 -244 -68.5 -443t-189 -331t-285 -203.5t-356.5 -71.5q-193 0 -358.5 71.5t-286.5 203.5t-190 331t-69 443q0 245 69 445.5t190 333t286.5 204.5t358.5 72q192 0 356.5 -72t285 -204.5t189 -333t68.5 -445.5zM1543 1021q0 348 -137.5 523t-366.5 175
q-111 0 -202.5 -42t-160.5 -125t-107.5 -218.5t-38.5 -312.5t38.5 -311.5t108 -216.5t160.5 -123t202 -41t201.5 41t159 123t106 216.5t37.5 311.5z" />
    <glyph glyph-name="P" unicode="P" horiz-adv-x="1792" 
d="M936 716h-364v-716h-395v2048h758q187 0 326.5 -48.5t224.5 -138.5t126 -210t41 -270q0 -152 -42.5 -272.5t-128 -209t-224 -136t-322.5 -47.5zM572 1716v-672h364q88 0 152.5 25.5t101.5 72.5t54.5 106t17.5 133q0 153 -78 244t-249 91h-363z" />
    <glyph glyph-name="Q" unicode="Q" horiz-adv-x="2073" 
d="M1938 1021q0 -276 -85 -489.5t-239 -350.5l267 -373h-378l-154 216q-147 -52 -310 -52q-193 0 -358.5 71.5t-286.5 203.5t-190 331t-69 443q0 245 69 445.5t190 333t286.5 204.5t358.5 72q192 0 356.5 -72t285 -204.5t189 -333t68.5 -445.5zM889 684h345l151 -208
q158 179 158 545q0 348 -137.5 523t-366.5 175q-111 0 -202.5 -42t-160.5 -125t-107.5 -218.5t-38.5 -312.5t38.5 -311.5t108 -216.5t160.5 -123t202 -41q52 0 100 9z" />
    <glyph glyph-name="R" unicode="R" horiz-adv-x="1792" 
d="M1295 0l-380 766h-343v-766h-395v2048h755q354 0 537.5 -170.5t183.5 -465.5q0 -205 -91 -347t-253 -223l424 -842h-438zM572 1716v-619h351q168 0 253.5 79t85.5 228q0 143 -82 227.5t-248 84.5h-360z" />
    <glyph glyph-name="S" unicode="S" horiz-adv-x="1780" 
d="M1257 1466q-13 131 -104 203.5t-250 72.5q-158 0 -256 -67t-98 -174q0 -41 18.5 -76t49 -62t82.5 -53t105.5 -47t131.5 -46l105 -34q304 -99 452.5 -241.5t148.5 -370.5q0 -183 -93 -320t-263 -209.5t-395 -72.5q-127 0 -242 25.5t-213.5 78.5t-171 129t-114.5 183
t-44 235h386q9 -154 117 -236t282 -82q172 0 270.5 76t98.5 190q0 106 -95 178.5t-324 142.5l-108 31q-128 39 -230 92.5t-179 124.5t-118.5 163.5t-41.5 200.5q0 169 96.5 300.5t265 203t379.5 71.5q320 0 521.5 -168t206.5 -442h-376z" />
    <glyph glyph-name="T" unicode="T" horiz-adv-x="1816" 
d="M1718 2048v-332h-614v-1716h-392v1716h-614v332h1620z" />
    <glyph glyph-name="U" unicode="U" horiz-adv-x="1996" 
d="M1423 2048h395v-1353q0 -137 -39.5 -254t-112.5 -203.5t-174 -147t-225.5 -91t-266.5 -30.5q-239 0 -423.5 83t-292 249t-107.5 394v1353h395v-1342q0 -175 120.5 -277t307.5 -102t305 101.5t118 277.5v1342z" />
    <glyph glyph-name="V" unicode="V" horiz-adv-x="2084" 
d="M492 2048l538 -1550h24l537 1550h415l-755 -2048h-419l-755 2048h415z" />
    <glyph glyph-name="W" unicode="W" horiz-adv-x="2824" 
d="M459 2048l371 -1469h17l382 1469h367l381 -1472h18l370 1472h367l-533 -2048h-403l-376 1395h-16l-376 -1395h-403l-532 2048h366z" />
    <glyph glyph-name="X" unicode="X" horiz-adv-x="1922" 
d="M534 2048l419 -727h16l419 727h450l-611 -1024l622 -1024h-455l-425 724h-16l-425 -724h-455l628 1024l-617 1024h450z" />
    <glyph glyph-name="Y" unicode="Y" horiz-adv-x="2065" 
d="M501 2048l519 -896h24l520 896h433l-767 -1248v-800h-395v800l-767 1248h433z" />
    <glyph glyph-name="Z" unicode="Z" horiz-adv-x="1804" 
d="M1657 332v-332h-1507v243l1018 1473h-1022v332h1507v-243l-1017 -1473h1021z" />
    <glyph glyph-name="bracketleft" unicode="[" horiz-adv-x="1026" 
d="M912 2313v-301h-291v-2183h291v-299h-643v2783h643z" />
    <glyph glyph-name="backslash" unicode="\" horiz-adv-x="1128" 
d="M93 2048h344l596 -2356h-344z" />
    <glyph glyph-name="bracketright" unicode="]" horiz-adv-x="1026" 
d="M114 2313h642v-2783h-642v299h291v2183h-291v301z" />
    <glyph glyph-name="asciicircum" unicode="^" horiz-adv-x="1297" 
d="M889 1004l-241 625l-240 -625h-310l409 1000h284l410 -1000h-312z" />
    <glyph glyph-name="underscore" unicode="_" horiz-adv-x="1299" 
d="M1279 0v-304h-1259v304h1259z" />
    <glyph glyph-name="grave" unicode="`" horiz-adv-x="959" 
d="M551 2112l271 -424h-320l-378 424h427z" />
    <glyph glyph-name="a" unicode="a" horiz-adv-x="1564" 
d="M1022 0v173h-18q-46 -85 -145 -144.5t-248 -59.5q-138 0 -250.5 53t-181 160t-68.5 251q0 425 618 482q148 16 179 23q96 23 97 78v23q0 102 -59.5 158t-162.5 56q-104 0 -179 -52.5t-97 -133.5l-365 53q52 209 226.5 322.5t424.5 113.5q95 0 180 -17t163.5 -56
t135.5 -98t90.5 -150t33.5 -204v-1031h-374zM1005 512v203q-31 -34 -239 -61q-141 -16 -209 -67t-68 -149q0 -81 59 -128t156 -47q127 0 214 73.5t87 175.5z" />
    <glyph glyph-name="b" unicode="b" horiz-adv-x="1672" 
d="M167 2048h388v-702h18q44 89 139 149.5t237 60.5q126 0 236 -51t194.5 -148t133 -249t48.5 -341q0 -188 -47 -340t-130 -250.5t-194 -151t-240 -52.5q-142 0 -237.5 60t-139.5 149h-23v-182h-383v2048zM1192 768q0 220 -88.5 346.5t-256.5 126.5q-86 0 -150.5 -35.5
t-102.5 -100t-56.5 -148.5t-18.5 -189q0 -104 18 -189t56 -151t102.5 -102.5t151.5 -36.5q167 0 256 129t89 350z" />
    <glyph glyph-name="c" unicode="c" horiz-adv-x="1583" 
d="M1482 1046l-361 -54q-62 249 -295 249q-168 0 -255.5 -126.5t-87.5 -346.5q0 -223 87 -351t256 -128q113 0 186.5 60t103.5 167l363 -52q-46 -223 -221.5 -358t-431.5 -135q-218 0 -381 102t-248.5 282t-85.5 413q0 231 86 409t249 278.5t379 100.5q261 0 438 -138.5
t219 -371.5z" />
    <glyph glyph-name="d" unicode="d" horiz-adv-x="1672" 
d="M1505 0h-383v182h-21q-44 -89 -140 -149t-238 -60q-130 0 -241 52.5t-194 151t-130 250.5t-47 340q0 189 48.5 341t133 249t194.5 148t237 51q142 0 237.5 -60.5t139.5 -149.5h16v702h388v-2048zM481 768q0 -221 88.5 -350t255.5 -129q87 0 151.5 36.5t102.5 102.5
t56.5 151t18.5 189q0 141 -32 244t-107 166t-190 63q-168 0 -256 -126.5t-88 -346.5z" />
    <glyph glyph-name="e" unicode="e" horiz-adv-x="1639" 
d="M855 -29q-345 0 -544.5 208.5t-199.5 568.5q0 235 85 417t251.5 286.5t391.5 104.5q118 0 221.5 -29t189 -89t147 -147t95.5 -207.5t34 -265.5v-163h-1040q19 -175 111.5 -270.5t254.5 -95.5q233 0 310 213l348 -94q-22 -83 -71 -158t-126.5 -139t-196 -102t-261.5 -38z
M836 1241q-133 0 -220.5 -83.5t-118.5 -235.5h661q0 140 -86.5 229.5t-235.5 89.5z" />
    <glyph glyph-name="f" unicode="f" horiz-adv-x="1073" 
d="M282 0v1248h-207v288h207v62q0 232 133.5 355t347.5 123q150 0 284 -43l-74 -296q-67 21 -132 21q-89 0 -130 -43.5t-41 -134.5v-44h303v-288h-303v-1248h-388z" />
    <glyph glyph-name="g" unicode="g" horiz-adv-x="1672" 
d="M1122 1531h383v-1489q0 -152 -54 -272t-151 -197t-228 -117t-288 -40q-204 0 -365.5 68.5t-234.5 160.5l190 254q84 -72 177 -117t223 -45q163 0 257.5 80.5t93.5 248.5v155h-22q-18 -34 -47.5 -65t-75 -61t-112 -48t-145.5 -18q-126 0 -235 46.5t-194 136.5t-134 235.5
t-49 331.5q0 185 48.5 334.5t133 245t195 146.5t236.5 51q142 0 237.5 -60.5t139.5 -149.5h21v185zM481 780q0 -213 90 -327t254 -114q165 0 247 117t82 324q0 134 -33 235t-108.5 163.5t-187.5 62.5q-167 0 -255.5 -125.5t-88.5 -335.5z" />
    <glyph glyph-name="h" unicode="h" horiz-adv-x="1620" 
d="M555 852v-852h-388v2048h377v-693h16q67 92 173.5 146.5t242.5 54.5q218 0 347.5 -150.5t129.5 -440.5v-965h-389v968q0 126 -56.5 197t-167.5 71q-132 0 -208.5 -103.5t-76.5 -280.5z" />
    <glyph glyph-name="i" unicode="i" horiz-adv-x="744" 
d="M373 1664q-94 0 -158.5 60.5t-64.5 145.5q0 84 65 145t158 61t156 -61t63 -145q0 -86 -63 -146t-156 -60zM566 1536v-1536h-388v1536h388z" />
    <glyph glyph-name="j" unicode="j" horiz-adv-x="858" 
d="M490 1664q-94 0 -158.5 60.5t-64.5 145.5q0 84 65 145t158 61t156 -61t63 -145q0 -86 -63 -146t-156 -60zM295 1536h388v-1604q0 -251 -148.5 -381.5t-402.5 -130.5h-130v315h79q119 0 166.5 52.5t47.5 149.5v1599z" />
    <glyph glyph-name="k" unicode="k" horiz-adv-x="1560" 
d="M1121 0l-432 634l-134 -151v-483h-388v2048h388v-1079h23l477 567h455l-567 -655l604 -881h-426z" />
    <glyph glyph-name="l" unicode="l" horiz-adv-x="722" 
d="M555 2048v-2048h-388v2048h388z" />
    <glyph glyph-name="m" unicode="m" horiz-adv-x="2428" 
d="M1406 956v-956h-379v974q0 134 -62.5 198t-168.5 64q-103 0 -172 -73.5t-69 -211.5v-951h-388v1536h380v-195h13q60 95 163 155t237 60q137 0 235 -61.5t148 -170.5h16q57 100 173 166t263 66q100 0 182 -32.5t147 -99.5t101 -181.5t36 -268.5v-974h-388v977
q0 136 -64.5 197.5t-161.5 61.5q-114 0 -177.5 -72t-63.5 -208z" />
    <glyph glyph-name="n" unicode="n" horiz-adv-x="1650" 
d="M555 845v-845h-388v1536h364v-195h16q65 98 175 156.5t251 58.5q83 0 156.5 -20t139 -65.5t112.5 -112.5t74.5 -167.5t27.5 -225.5v-965h-389v949q0 134 -72 210.5t-185 76.5q-130 0 -206 -106t-76 -285z" />
    <glyph glyph-name="o" unicode="o" horiz-adv-x="1653" 
d="M826 -29q-216 0 -379.5 101t-249.5 280.5t-86 412.5q0 234 86.5 413t249 278.5t379.5 99.5t380 -99.5t249 -278.5t86 -413q0 -233 -86 -412.5t-249 -280.5t-380 -101zM826 289q118 0 196.5 63.5t112.5 167.5t34 245t-34 245t-112.5 167.5t-196.5 63.5q-88 0 -155 -35.5
t-107.5 -100.5t-60.5 -150t-20 -190q0 -216 85 -346t258 -130z" />
    <glyph glyph-name="p" unicode="p" horiz-adv-x="1672" 
d="M167 -576v2112h383v-190h23q44 89 139 149.5t237 60.5q126 0 236 -51t194.5 -148t133 -249t48.5 -341q0 -188 -47 -340t-130 -250.5t-194 -151t-240 -52.5q-142 0 -237.5 60t-139.5 149h-18v-758h-388zM1192 768q0 220 -88.5 346.5t-256.5 126.5q-86 0 -150.5 -35.5
t-102.5 -100t-56.5 -148.5t-18.5 -189q0 -104 18 -189t56 -151t102.5 -102.5t151.5 -36.5q167 0 256 129t89 350z" />
    <glyph glyph-name="q" unicode="q" horiz-adv-x="1672" 
d="M1505 1536v-2112h-388v758h-16q-44 -89 -140 -149t-238 -60q-130 0 -241 52.5t-194 151t-130 250.5t-47 340q0 189 48.5 341t133 249t194.5 148t237 51q142 0 237.5 -60.5t139.5 -149.5h21v190h383zM481 768q0 -221 88.5 -350t255.5 -129q87 0 151.5 36.5t102.5 102.5
t56.5 151t18.5 189q0 141 -32 244t-107 166t-190 63q-168 0 -256 -126.5t-88 -346.5z" />
    <glyph glyph-name="r" unicode="r" horiz-adv-x="1161" 
d="M1132 1507l-121 -337q-20 11 -60 21.5t-83 10.5q-134 0 -222.5 -99.5t-90.5 -231.5v-871h-388v1536h380v-218h22q32 112 132 175.5t219 63.5q58 0 116.5 -14t95.5 -36z" />
    <glyph glyph-name="s" unicode="s" horiz-adv-x="1523" 
d="M1390 1119l-353 -36q-16 79 -86 131t-178 52q-102 0 -174.5 -45.5t-72.5 -118.5q0 -118 198 -161l285 -61q412 -91 412 -415q0 -155 -90 -268.5t-241.5 -169.5t-344.5 -56q-283 0 -448 120.5t-211 343.5l371 42q27 -104 108.5 -161t196.5 -57q111 0 186 47.5t75 114.5
q0 38 -14.5 66t-43.5 45.5t-57.5 27t-71.5 19.5l-270 61q-198 47 -311.5 154.5t-113.5 282.5q0 221 177.5 350t470.5 129q522 0 601 -437z" />
    <glyph glyph-name="t" unicode="t" horiz-adv-x="1033" 
d="M914 1536v-288h-268v-778q0 -98 40 -131t115 -33q54 0 99 12l61 -299q-32 -13 -103.5 -26t-164.5 -13q-118 0 -216 50.5t-158.5 150t-60.5 230.5v837h-191v288h191v328h388v-328h268z" />
    <glyph glyph-name="u" unicode="u" horiz-adv-x="1650" 
d="M1094 684v852h389v-1536h-364v181h-16q-67 -91 -177 -146t-249 -55q-77 0 -148.5 19.5t-138 65t-115.5 112t-78.5 168t-29.5 226.5v965h388v-954q0 -133 71.5 -207.5t185.5 -74.5q131 0 206.5 102.5t75.5 281.5z" />
    <glyph glyph-name="v" unicode="v" horiz-adv-x="1636" 
d="M1567 1536l-565 -1536h-371l-562 1536h403l339 -1042h16l337 1042h403z" />
    <glyph glyph-name="w" unicode="w" horiz-adv-x="2231" 
d="M2135 1536l-406 -1536h-327l-276 957h-24l-273 -957h-328l-405 1536h379l209 -1002h19l265 1002h293l264 -995h19l212 995h379z" />
    <glyph glyph-name="x" unicode="x" horiz-adv-x="1553" 
d="M509 1536l267 -500l273 500h403l-434 -768l445 -768h-403l-284 487l-281 -487h-405l442 768l-428 768h405z" />
    <glyph glyph-name="y" unicode="y" horiz-adv-x="1636" 
d="M598 -65l29 77l-558 1524h403l338 -1012h17l337 1012h403l-649 -1765q-21 -57 -50 -107.5t-74 -99.5t-99.5 -84.5t-129 -57t-159.5 -21.5q-111 0 -213 39l88 306q57 -16 99 -18t74 8.5t57.5 38.5t45 65t41.5 95z" />
    <glyph glyph-name="z" unicode="z" horiz-adv-x="1538" 
d="M1388 315v-315h-1234v241l732 980h-718v315h1203v-237l-731 -984h748z" />
    <glyph glyph-name="braceleft" unicode="{" horiz-adv-x="1026" 
d="M913 -276l-75 -220q-110 32 -193.5 81t-137 108t-86.5 134t-46.5 152t-13.5 169v276q0 136 -60.5 212.5t-187.5 76.5v278q127 0 187.5 74.5t60.5 210.5v280q0 91 13.5 167.5t46.5 151.5t86.5 134t137 108t193.5 79l75 -216q-118 -42 -167 -151t-49 -273v-280
q0 -142 -57.5 -251.5t-177.5 -172.5q120 -63 177.5 -174t57.5 -254v-276q0 -164 49 -273t167 -151z" />
    <glyph glyph-name="bar" unicode="|" horiz-adv-x="887" 
d="M617 2048v-2432h-348v2432h348z" />
    <glyph glyph-name="braceright" unicode="}" horiz-adv-x="1026" 
d="M86 -276q118 42 167 151t49 273v276q0 143 57.5 254t177.5 174q-120 63 -177.5 172.5t-57.5 251.5v280q0 164 -49 273t-167 151l75 216q110 -30 193.5 -79t137 -108t86.5 -134t46.5 -151.5t13.5 -167.5v-280q0 -136 60.5 -210.5t187.5 -74.5v-278q-127 0 -187.5 -76.5
t-60.5 -212.5v-276q0 -92 -13.5 -169t-46.5 -152t-86.5 -134t-137 -108t-193.5 -81z" />
    <glyph glyph-name="asciitilde" unicode="~" horiz-adv-x="1778" 
d="M1342 1123h288q1 -257 -119 -406.5t-317 -149.5q-200 0 -373 176q-59 61 -103.5 87t-98.5 26q-87 0 -133.5 -59t-49.5 -168h-288q1 260 125 405t317 145q196 0 367 -175q65 -65 108.5 -92.5t99.5 -27.5q82 0 129.5 59t47.5 180z" />
    <glyph glyph-name="nbspace" unicode="&#xa0;" horiz-adv-x="776" 
 />
    <glyph glyph-name="exclamdown" unicode="&#xa1;" horiz-adv-x="795" 
d="M397 1558q100 0 165.5 -63t65.5 -157t-65.5 -157t-165.5 -63t-163.5 63t-63.5 157q0 95 63.5 157.5t163.5 62.5zM604 -517h-408l45 1431h319z" />
    <glyph glyph-name="cent" unicode="&#xa2;" horiz-adv-x="1583" 
d="M1482 1046l-361 -54q-62 249 -295 249q-168 0 -255.5 -126.5t-87.5 -346.5q0 -223 87 -351t256 -128q113 0 186.5 60t103.5 167l363 -52q-40 -192 -177.5 -320.5t-342.5 -162.5v-317h-258v316q-182 28 -316 135t-204 275t-70 378q0 315 158 526t432 253v265h258v-266
q209 -34 347.5 -166t175.5 -334z" />
    <glyph glyph-name="sterling" unicode="&#xa3;" horiz-adv-x="1809" 
d="M1222 812h-431l8 -206q8 -171 -81 -274h895v-332h-1432v332h121q113 16 106 255l-7 225h-225v318h215l-11 331q-4 145 41.5 262.5t129 194t198.5 117.5t250 41q149 0 270.5 -45.5t201 -125t119 -189t30.5 -234.5l-371 20q6 126 -63 188.5t-178 62.5q-105 0 -173 -74.5
t-68 -217.5l12 -331h443v-318z" />
    <glyph glyph-name="currency" unicode="&#xa4;" horiz-adv-x="2066" 
d="M212 836q0 282 153 507l-196 202l182 190l198 -200q213 161 482 161q271 0 484 -164l198 203l186 -190l-202 -205q151 -223 151 -504q0 -269 -139 -487l190 -190l-186 -190l-179 184q-221 -181 -503 -181q-281 0 -502 178l-178 -181l-182 190l184 187q-141 219 -141 490z
M457 836q0 -126 45 -239t121.5 -194.5t183 -129.5t224.5 -48q155 0 286 81t207.5 222t76.5 308q0 127 -45 240.5t-122 194.5t-182 128.5t-221 47.5q-158 0 -289.5 -80t-208 -220.5t-76.5 -310.5z" />
    <glyph glyph-name="yen" unicode="&#xa5;" horiz-adv-x="1558" 
d="M1371 654v-234h-402v-420h-392v420h-426v234h426v162h-426v234h338l-452 998h410l332 -820l332 820h409l-454 -998h305v-234h-402v-162h402z" />
    <glyph glyph-name="brokenbar" unicode="&#xa6;" horiz-adv-x="887" 
d="M617 2048v-948h-348v948h348zM269 568h348v-952h-348v952z" />
    <glyph glyph-name="section" unicode="&#xa7;" horiz-adv-x="1596" 
d="M1343 1545h-345q0 90 -54 146t-158 56q-88 0 -145.5 -42.5t-57.5 -113.5q0 -69 57 -124t132 -90l374 -187q30 -15 51.5 -27t57.5 -36.5t62 -48.5t55.5 -61t47 -77t27 -93.5t5.5 -112.5q-10 -112 -85.5 -189.5t-165.5 -105.5l-2 -4q161 -143 161 -362q0 -227 -159 -356.5
t-406 -129.5q-266 0 -430.5 147.5t-164.5 395.5h346q0 -105 69.5 -162t182.5 -52q89 2 152 42t63 115q0 39 -17 73.5t-48.5 61.5t-57.5 43.5t-63 35.5l-375 183q-42 21 -75 40.5t-82.5 61.5t-81 88t-52 117.5t-14.5 152.5q8 113 83 190.5t167 105.5v5q-159 159 -159 360
q0 211 153.5 348t394.5 137q249 0 403 -149t154 -382zM1128 715q12 114 -161 197l-335 166q-52 27 -105 -14t-60 -115q-11 -116 162 -199l332 -161q50 -25 105.5 14.5t61.5 111.5z" />
    <glyph glyph-name="dieresis" unicode="&#xa8;" horiz-adv-x="1420" 
d="M426 1726q-79 0 -132 51t-53 123q0 75 53 125.5t132 50.5q78 0 130 -50.5t52 -125.5q0 -72 -52 -123t-130 -51zM996 1726q-78 0 -131 51t-53 123q0 75 52.5 125.5t131.5 50.5t130.5 -50.5t51.5 -125.5q0 -72 -52 -123t-130 -51z" />
    <glyph glyph-name="copyright" unicode="&#xa9;" horiz-adv-x="2321" 
d="M184 1004q0 213 77.5 404.5t209 327.5t311.5 216t378 80q160 0 308.5 -50.5t268.5 -144.5t210.5 -220t139.5 -284t49 -329q0 -215 -77 -407t-208 -328.5t-311 -216.5t-380 -80q-198 0 -378 80t-311.5 216.5t-209 328.5t-77.5 407zM352 1004q0 -179 64 -339.5t173 -274
t258 -180t313 -66.5q166 0 315 66.5t257.5 180t172 273.5t63.5 340q0 143 -40.5 274.5t-115 236.5t-174 183t-223 120t-255.5 42q-164 0 -313 -66.5t-258 -179.5t-173 -272.5t-64 -337.5zM1388 820h216q0 -212 -123 -322t-339 -110q-219 0 -349.5 146.5t-130.5 385.5v164
q0 239 130.5 385.5t349.5 146.5q216 0 339 -110t123 -322h-214q0 129 -62 188.5t-186 59.5q-128 0 -197 -95t-69 -253v-164q0 -158 69 -253t197 -95q125 0 185.5 58t60.5 190z" />
    <glyph glyph-name="ordfeminine" unicode="&#xaa;" horiz-adv-x="1297" 
d="M848 969q-15 53 -22 95q-103 -112 -278 -112q-162 0 -251.5 84.5t-89.5 227.5q0 155 117.5 236t351.5 81h140v71q0 176 -160 176q-90 0 -139.5 -35t-49.5 -101l-239 17q0 142 117.5 232.5t310.5 90.5q185 0 292.5 -97.5t107.5 -282.5v-432q0 -148 36 -251h-244zM608 1149
q54 0 112 25t96 62v185h-140q-113 0 -170.5 -43.5t-57.5 -108.5q0 -120 160 -120z" />
    <glyph glyph-name="guillemotleft" unicode="&#xab;" horiz-adv-x="1471" 
d="M814 179h-254l-385 557v28l385 556h254l-342 -570zM1356 179h-254l-385 557v28l385 556h254l-342 -570z" />
    <glyph glyph-name="logicalnot" unicode="&#xac;" horiz-adv-x="1553" 
d="M1352 1108v-592h-276v356h-872v236h1148z" />
    <glyph glyph-name="softhyphen" unicode="&#xad;" horiz-adv-x="1307" 
d="M1145 1015v-293h-983v293h983z" />
    <glyph glyph-name="registered" unicode="&#xae;" horiz-adv-x="2321" 
d="M184 1004q0 213 77.5 404.5t209 327.5t311.5 216t378 80q160 0 308.5 -50.5t268.5 -144.5t210.5 -220t139.5 -284t49 -329q0 -215 -77 -407t-208 -328.5t-311 -216.5t-380 -80q-198 0 -378 80t-311.5 216.5t-209 328.5t-77.5 407zM352 1004q0 -179 64 -339.5t173 -274
t258 -180t313 -66.5q166 0 315 66.5t257.5 180t172 273.5t63.5 340q0 143 -40.5 274.5t-115 236.5t-174 183t-223 120t-255.5 42q-164 0 -313 -66.5t-258 -179.5t-173 -272.5t-64 -337.5zM1180 900h-216v-464h-208v1168h386q209 0 327.5 -93t118.5 -267q0 -155 -156 -241
q152 -77 152 -295v-76q0 -110 24 -176v-20h-212q-20 44 -20 196v76q0 99 -45 145.5t-151 46.5zM964 1420v-336h187q98 0 165.5 42t67.5 118q0 98 -54 137t-188 39h-178z" />
    <glyph glyph-name="macron" unicode="&#xaf;" horiz-adv-x="1471" 
d="M1210 1999v-226h-948v226h948z" />
    <glyph glyph-name="degree" unicode="&#xb0;" horiz-adv-x="1123" 
d="M564 1179q-116 0 -216.5 57.5t-160 156.5t-59.5 216q0 118 59.5 219.5t160 160.5t216.5 59q177 0 302 -129t125 -310q0 -179 -124.5 -304.5t-302.5 -125.5zM564 1409q82 0 140.5 58.5t58.5 143.5t-58.5 144.5t-140.5 59.5t-141.5 -59.5t-59.5 -144.5q0 -84 59.5 -143
t141.5 -59z" />
    <glyph glyph-name="plusminus" unicode="&#xb1;" horiz-adv-x="1645" 
d="M1462 1221v-311h-483v-424h-313v424h-486v311h486v456h313v-456h483zM1460 310v-310h-1275v310h1275z" />
    <glyph glyph-name="twosuperior" unicode="&#xb2;" horiz-adv-x="1297" 
d="M1206 1139v-223h-851v189l393 355q73 62 110.5 121t37.5 96q0 54 -34.5 85.5t-98.5 31.5q-74 0 -114 -43.5t-40 -108.5h-278q0 158 115.5 266t303.5 108q202 0 313 -88t111 -251q0 -59 -17 -109t-57.5 -100t-90 -94.5t-131.5 -108.5l-159 -126h487z" />
    <glyph glyph-name="threesuperior" unicode="&#xb3;" horiz-adv-x="1297" 
d="M555 1376v187h121q78 0 117 32.5t39 89.5q0 46 -36 77.5t-112 31.5q-60 0 -100 -23.5t-40 -63.5h-279q0 98 58 169.5t150 105.5t205 34q197 0 314.5 -81t117.5 -230q0 -81 -49 -140.5t-136 -91.5q205 -56 205 -253q0 -147 -127 -233.5t-325 -86.5q-64 0 -124 11.5
t-116 38t-98 65t-67 96.5t-25 129h281q0 -47 45 -80.5t120 -33.5q78 0 118 34.5t40 87.5q0 128 -176 128h-121z" />
    <glyph glyph-name="acute" unicode="&#xb4;" horiz-adv-x="964" 
d="M166 1688l262 424h399l-357 -424h-304z" />
    <glyph glyph-name="mu" unicode="&#xb5;" horiz-adv-x="1655" 
d="M1114 692v844h374v-1536h-346l-9 111q-127 -139 -321 -139q-159 0 -268 117v-661h-377v2108h377v-849q0 -200 74 -295.5t203 -95.5q143 0 218 105.5t75 290.5z" />
    <glyph glyph-name="paragraph" unicode="&#xb6;" horiz-adv-x="1297" 
d="M1195 0h-300v716h-114q-161 0 -290 48t-213 134.5t-128.5 204t-44.5 257.5q0 139 44.5 256t128.5 203.5t213 135.5t290 49h414v-2004z" />
    <glyph glyph-name="periodcentered" unicode="&#xb7;" horiz-adv-x="795" 
d="M396 754q-93 0 -159.5 67t-66.5 162q0 93 66.5 159t159.5 66q94 0 160 -66t66 -159q0 -95 -66 -162t-160 -67z" />
    <glyph glyph-name="cedilla" unicode="&#xb8;" horiz-adv-x="959" 
d="M287 11h290l-16 -83q87 -14 146 -71t59 -165q0 -149 -123 -237t-351 -88l-11 224q73 0 116 27t43 85q0 56 -44.5 79t-152.5 30z" />
    <glyph glyph-name="onesuperior" unicode="&#xb9;" horiz-adv-x="1041" 
d="M783 1997v-1081h-274v758l-262 -57v215l512 165h24z" />
    <glyph glyph-name="ordmasculine" unicode="&#xba;" horiz-adv-x="1297" 
d="M172 1436v105q0 218 129.5 354.5t346.5 136.5q219 0 347.5 -136t128.5 -355v-105q0 -216 -128 -351.5t-344 -135.5q-219 0 -349.5 135.5t-130.5 351.5zM412 1541v-105q0 -128 62 -206t178 -78q113 0 172.5 78t59.5 206v105q0 128 -60.5 207.5t-175.5 79.5
q-113 0 -174.5 -80t-61.5 -207z" />
    <glyph glyph-name="guillemotright" unicode="&#xbb;" horiz-adv-x="1471" 
d="M178 179l339 569l-339 569h251l388 -556v-25l-388 -557h-251zM723 179l339 569l-339 569h251l388 -556v-25l-388 -557h-251z" />
    <glyph glyph-name="onequarter" unicode="&#xbc;" horiz-adv-x="2147" 
d="M682 1993v-1081h-274v758l-262 -57v215l512 165h24zM1611 1728l-976 -1564l-190 103l976 1565zM1990 447v-226h-122v-221h-278v221h-478l-16 183l493 680h279v-637h122zM1363 447h227v297l-19 -30z" />
    <glyph glyph-name="onehalf" unicode="&#xbd;" horiz-adv-x="2321" 
d="M762 2001v-1081h-274v758l-262 -57v215l512 165h24zM1654 1728l-976 -1564l-190 103l976 1565zM2211 223v-223h-851v189l393 355q73 62 110.5 121t37.5 96q0 54 -34.5 85.5t-98.5 31.5q-74 0 -114 -43.5t-40 -108.5h-278q0 158 115.5 266t303.5 108q202 0 313 -88
t111 -251q0 -59 -17 -109t-57.5 -100t-90 -94.5t-131.5 -108.5l-159 -126h487z" />
    <glyph glyph-name="threequarters" unicode="&#xbe;" horiz-adv-x="2321" 
d="M596 1376v187h121q78 0 117 32.5t39 89.5q0 46 -36 77.5t-112 31.5q-60 0 -100 -23.5t-40 -63.5h-279q0 98 58 169.5t150 105.5t205 34q197 0 314.5 -81t117.5 -230q0 -81 -49 -140.5t-136 -91.5q205 -56 205 -253q0 -147 -127 -233.5t-325 -86.5q-64 0 -124 11.5
t-116 38t-98 65t-67 96.5t-25 129h281q0 -47 45 -80.5t120 -33.5q78 0 118 34.5t40 87.5q0 128 -176 128h-121zM1901 1728l-976 -1564l-190 103l976 1565zM2271 447v-226h-122v-221h-278v221h-478l-16 183l493 680h279v-637h122zM1644 447h227v297l-19 -30z" />
    <glyph glyph-name="questiondown" unicode="&#xbf;" horiz-adv-x="1553" 
d="M798 1539q100 0 165 -62.5t65 -156.5t-65 -157.5t-165 -63.5q-98 0 -163 63.5t-65 157.5q0 93 65 156t163 63zM634 901h335q0 -98 -15 -181t-40 -143t-58 -110.5t-69.5 -89t-72.5 -73t-69 -67.5t-58 -67t-40 -78t-15 -95q0 -119 60 -181.5t171 -62.5q47 0 88 15t75 45
t53.5 81t20.5 118h383q-1 -142 -49 -252.5t-132.5 -179t-195.5 -103.5t-243 -35q-286 0 -448 144.5t-162 400.5q0 93 26 171t68 134t92.5 107t102 101.5t94 105.5t69.5 130.5t29 164.5z" />
    <glyph glyph-name="Agrave" unicode="&#xc0;" horiz-adv-x="2084" 
d="M965 2569l271 -424h-320l-378 424h427zM501 0h-424l755 2048h419l755 -2048h-423l-149 436h-784zM1030 1550l-270 -790h564l-270 790h-24z" />
    <glyph glyph-name="Aacute" unicode="&#xc1;" horiz-adv-x="2084" 
d="M861 2145l262 424h399l-357 -424h-304zM501 0h-424l755 2048h419l755 -2048h-423l-149 436h-784zM1030 1550l-270 -790h564l-270 790h-24z" />
    <glyph glyph-name="Acircumflex" unicode="&#xc2;" horiz-adv-x="2084" 
d="M827 2233h-320v13l416 387h236l414 -387v-13h-317l-214 202zM501 0h-424l755 2048h419l755 -2048h-423l-149 436h-784zM1030 1550l-270 -790h564l-270 790h-24z" />
    <glyph glyph-name="Atilde" unicode="&#xc3;" horiz-adv-x="2084" 
d="M1332 2648l226 -16q0 -153 -89 -258.5t-223 -105.5q-59 0 -112.5 19t-87 41t-80.5 41t-95 19q-50 0 -83 -36t-33 -97l-230 10q0 151 89.5 259t222.5 108q49 0 101.5 -18.5t90.5 -40t88 -40t95 -18.5q51 0 85.5 36t34.5 97zM501 0h-424l755 2048h419l755 -2048h-423
l-149 436h-784zM1030 1550l-270 -790h564l-270 790h-24z" />
    <glyph glyph-name="Adieresis" unicode="&#xc4;" horiz-adv-x="2084" 
d="M758 2238q-79 0 -132 51t-53 123q0 75 53 125.5t132 50.5q78 0 130 -50.5t52 -125.5q0 -72 -52 -123t-130 -51zM1328 2238q-78 0 -131 51t-53 123q0 75 52.5 125.5t131.5 50.5t130.5 -50.5t51.5 -125.5q0 -72 -52 -123t-130 -51zM501 0h-424l755 2048h419l755 -2048h-423
l-149 436h-784zM1030 1550l-270 -790h564l-270 790h-24z" />
    <glyph glyph-name="Aring" unicode="&#xc5;" horiz-adv-x="2084" 
d="M719 2439q0 125 93.5 214t232.5 89t231.5 -88.5t92.5 -214.5q0 -124 -92 -208.5t-232 -84.5t-233 84.5t-93 208.5zM885 2439q0 -65 45 -111.5t115 -46.5t114.5 46t44.5 112q0 67 -44.5 114t-114.5 47t-115 -47t-45 -114zM501 0h-424l755 2048h419l755 -2048h-423
l-149 436h-784zM1030 1550l-270 -790h564l-270 790h-24z" />
    <glyph glyph-name="AE" unicode="&#xc6;" horiz-adv-x="2777" 
d="M2640 318v-318h-1223l-18 438h-661l-219 -438h-445l1089 2048h1393v-318h-830l21 -543h697v-315h-684l22 -554h858zM899 760h487l-37 900z" />
    <glyph glyph-name="Ccedilla" unicode="&#xc7;" horiz-adv-x="2004" 
d="M1882 1405l-384 -43q-44 174 -167 265.5t-292 91.5q-112 0 -204 -42.5t-160.5 -126.5t-106.5 -219t-38 -310q0 -344 138.5 -518t370.5 -174q168 0 289 89.5t165 259.5l387 -43q-66 -275 -251 -445t-446 -208l-11 -59q87 -14 146 -71t59 -165q0 -149 -123 -237t-351 -88
l-11 224q73 0 116 27t43 85q0 56 -44.5 79t-152.5 30l39 176q-167 25 -306 107t-239.5 212.5t-156.5 314.5t-56 404q0 244 68 443.5t188.5 333t286.5 206t361 72.5q313 0 541 -177.5t302 -493.5z" />
    <glyph glyph-name="Egrave" unicode="&#xc8;" horiz-adv-x="1665" 
d="M784 2569l271 -424h-320l-378 424h427zM1508 332v-332h-1331v2048h1326v-332h-931v-526h803v-331h-803v-527h936z" />
    <glyph glyph-name="Eacute" unicode="&#xc9;" horiz-adv-x="1665" 
d="M680 2145l262 424h399l-357 -424h-304zM1508 332v-332h-1331v2048h1326v-332h-931v-526h803v-331h-803v-527h936z" />
    <glyph glyph-name="Ecircumflex" unicode="&#xca;" horiz-adv-x="1665" 
d="M646 2233h-320v13l416 387h236l414 -387v-13h-317l-214 202zM1508 332v-332h-1331v2048h1326v-332h-931v-526h803v-331h-803v-527h936z" />
    <glyph glyph-name="Edieresis" unicode="&#xcb;" horiz-adv-x="1665" 
d="M577 2181q-79 0 -132 51t-53 123q0 75 53 125.5t132 50.5q78 0 130 -50.5t52 -125.5q0 -72 -52 -123t-130 -51zM1147 2181q-78 0 -131 51t-53 123q0 75 52.5 125.5t131.5 50.5t130.5 -50.5t51.5 -125.5q0 -72 -52 -123t-130 -51zM1508 332v-332h-1331v2048h1326v-332
h-931v-526h803v-331h-803v-527h936z" />
    <glyph glyph-name="Igrave" unicode="&#xcc;" horiz-adv-x="749" 
d="M293 2569l271 -424h-320l-378 424h427zM572 2048v-2048h-395v2048h395z" />
    <glyph glyph-name="Iacute" unicode="&#xcd;" horiz-adv-x="749" 
d="M189 2145l262 424h399l-357 -424h-304zM572 2048v-2048h-395v2048h395z" />
    <glyph glyph-name="Icircumflex" unicode="&#xce;" horiz-adv-x="749" 
d="M155 2233h-320v13l416 387h236l414 -387v-13h-317l-214 202zM572 2048v-2048h-395v2048h395z" />
    <glyph glyph-name="Idieresis" unicode="&#xcf;" horiz-adv-x="1033" 
d="M233 2238q-79 0 -132 51t-53 123q0 75 53 125.5t132 50.5q78 0 130 -50.5t52 -125.5q0 -72 -52 -123t-130 -51zM803 2238q-78 0 -131 51t-53 123q0 75 52.5 125.5t131.5 50.5t130.5 -50.5t51.5 -125.5q0 -72 -52 -123t-130 -51zM712 2048v-2048h-395v2048h395z" />
    <glyph glyph-name="Eth" unicode="&#xd0;" horiz-adv-x="2010" 
d="M902 0h-695v895h-131v239h131v914h704q450 0 707 -272t257 -751q0 -480 -258.5 -752.5t-714.5 -272.5zM1032 1134v-239h-430v-553h281q298 0 447.5 168.5t149.5 514.5q0 681 -591 681h-287v-572h430z" />
    <glyph glyph-name="Ntilde" unicode="&#xd1;" horiz-adv-x="1993" 
d="M1334 2565l226 -16q0 -153 -89 -258.5t-223 -105.5q-49 0 -92 12.5t-75.5 30t-63 35t-68 30t-76.5 12.5q-50 0 -83 -36t-33 -97l-230 10q0 151 89.5 259t222.5 108q49 0 101.5 -18.5t90.5 -40t88 -40t95 -18.5q51 0 85.5 36t34.5 97zM1816 2048v-2048h-387l-840 1370h-17
v-1370h-395v2048h390l838 -1373h17v1373h394z" />
    <glyph glyph-name="Ograve" unicode="&#xd2;" horiz-adv-x="2073" 
d="M962 2569l271 -424h-320l-378 424h427zM1938 1021q0 -244 -68.5 -443t-189 -331t-285 -203.5t-356.5 -71.5q-193 0 -358.5 71.5t-286.5 203.5t-190 331t-69 443q0 245 69 445.5t190 333t286.5 204.5t358.5 72q192 0 356.5 -72t285 -204.5t189 -333t68.5 -445.5z
M1543 1021q0 348 -137.5 523t-366.5 175q-111 0 -202.5 -42t-160.5 -125t-107.5 -218.5t-38.5 -312.5t38.5 -311.5t108 -216.5t160.5 -123t202 -41t201.5 41t159 123t106 216.5t37.5 311.5z" />
    <glyph glyph-name="Oacute" unicode="&#xd3;" horiz-adv-x="2073" 
d="M858 2145l262 424h399l-357 -424h-304zM1938 1021q0 -244 -68.5 -443t-189 -331t-285 -203.5t-356.5 -71.5q-193 0 -358.5 71.5t-286.5 203.5t-190 331t-69 443q0 245 69 445.5t190 333t286.5 204.5t358.5 72q192 0 356.5 -72t285 -204.5t189 -333t68.5 -445.5z
M1543 1021q0 348 -137.5 523t-366.5 175q-111 0 -202.5 -42t-160.5 -125t-107.5 -218.5t-38.5 -312.5t38.5 -311.5t108 -216.5t160.5 -123t202 -41t201.5 41t159 123t106 216.5t37.5 311.5z" />
    <glyph glyph-name="Ocircumflex" unicode="&#xd4;" horiz-adv-x="2073" 
d="M824 2233h-320v13l416 387h236l414 -387v-13h-317l-214 202zM1938 1021q0 -244 -68.5 -443t-189 -331t-285 -203.5t-356.5 -71.5q-193 0 -358.5 71.5t-286.5 203.5t-190 331t-69 443q0 245 69 445.5t190 333t286.5 204.5t358.5 72q192 0 356.5 -72t285 -204.5t189 -333
t68.5 -445.5zM1543 1021q0 348 -137.5 523t-366.5 175q-111 0 -202.5 -42t-160.5 -125t-107.5 -218.5t-38.5 -312.5t38.5 -311.5t108 -216.5t160.5 -123t202 -41t201.5 41t159 123t106 216.5t37.5 311.5z" />
    <glyph glyph-name="Otilde" unicode="&#xd5;" horiz-adv-x="2073" 
d="M1327 2648l226 -16q0 -153 -89 -258.5t-223 -105.5q-59 0 -112.5 19t-87 41t-80.5 41t-95 19q-50 0 -83 -36t-33 -97l-230 10q0 151 89.5 259t222.5 108q49 0 101.5 -18.5t90.5 -40t88 -40t95 -18.5q51 0 85.5 36t34.5 97zM1938 1021q0 -244 -68.5 -443t-189 -331
t-285 -203.5t-356.5 -71.5q-193 0 -358.5 71.5t-286.5 203.5t-190 331t-69 443q0 245 69 445.5t190 333t286.5 204.5t358.5 72q192 0 356.5 -72t285 -204.5t189 -333t68.5 -445.5zM1543 1021q0 348 -137.5 523t-366.5 175q-111 0 -202.5 -42t-160.5 -125t-107.5 -218.5
t-38.5 -312.5t38.5 -311.5t108 -216.5t160.5 -123t202 -41t201.5 41t159 123t106 216.5t37.5 311.5z" />
    <glyph glyph-name="Odieresis" unicode="&#xd6;" horiz-adv-x="2073" 
d="M753 2238q-79 0 -132 51t-53 123q0 75 53 125.5t132 50.5q78 0 130 -50.5t52 -125.5q0 -72 -52 -123t-130 -51zM1323 2238q-78 0 -131 51t-53 123q0 75 52.5 125.5t131.5 50.5t130.5 -50.5t51.5 -125.5q0 -72 -52 -123t-130 -51zM1938 1021q0 -244 -68.5 -443t-189 -331
t-285 -203.5t-356.5 -71.5q-193 0 -358.5 71.5t-286.5 203.5t-190 331t-69 443q0 245 69 445.5t190 333t286.5 204.5t358.5 72q192 0 356.5 -72t285 -204.5t189 -333t68.5 -445.5zM1543 1021q0 348 -137.5 523t-366.5 175q-111 0 -202.5 -42t-160.5 -125t-107.5 -218.5
t-38.5 -312.5t38.5 -311.5t108 -216.5t160.5 -123t202 -41t201.5 41t159 123t106 216.5t37.5 311.5z" />
    <glyph glyph-name="multiply" unicode="&#xd7;" horiz-adv-x="1645" 
d="M411 253l-223 221l414 422l-419 427l223 221l416 -424l417 424l222 -221l-419 -427l414 -422l-222 -221l-412 419z" />
    <glyph glyph-name="Oslash" unicode="&#xd8;" horiz-adv-x="2073" 
d="M427 -95l-185 126l149 220q-123 137 -189.5 332.5t-66.5 437.5q0 245 69 445.5t190 333t286.5 204.5t358.5 72q277 0 488 -143l139 206l185 -126l-156 -231q243 -288 243 -761q0 -244 -68.5 -443t-189 -331t-285 -203.5t-356.5 -71.5q-268 0 -477 133zM530 1021
q0 -264 87 -435l705 1043q-118 90 -283 90q-111 0 -202.5 -42t-160.5 -125t-107.5 -218.5t-38.5 -312.5zM1543 1021q0 254 -77 422l-699 -1035q116 -79 272 -79q111 0 201.5 41t159 123t106 216.5t37.5 311.5z" />
    <glyph glyph-name="Ugrave" unicode="&#xd9;" horiz-adv-x="1996" 
d="M921 2569l271 -424h-320l-378 424h427zM1423 2048h395v-1353q0 -137 -39.5 -254t-112.5 -203.5t-174 -147t-225.5 -91t-266.5 -30.5q-239 0 -423.5 83t-292 249t-107.5 394v1353h395v-1342q0 -175 120.5 -277t307.5 -102t305 101.5t118 277.5v1342z" />
    <glyph glyph-name="Uacute" unicode="&#xda;" horiz-adv-x="1996" 
d="M817 2145l262 424h399l-357 -424h-304zM1423 2048h395v-1353q0 -137 -39.5 -254t-112.5 -203.5t-174 -147t-225.5 -91t-266.5 -30.5q-239 0 -423.5 83t-292 249t-107.5 394v1353h395v-1342q0 -175 120.5 -277t307.5 -102t305 101.5t118 277.5v1342z" />
    <glyph glyph-name="Ucircumflex" unicode="&#xdb;" horiz-adv-x="1996" 
d="M783 2233h-320v13l416 387h236l414 -387v-13h-317l-214 202zM1423 2048h395v-1353q0 -137 -39.5 -254t-112.5 -203.5t-174 -147t-225.5 -91t-266.5 -30.5q-239 0 -423.5 83t-292 249t-107.5 394v1353h395v-1342q0 -175 120.5 -277t307.5 -102t305 101.5t118 277.5v1342z
" />
    <glyph glyph-name="Udieresis" unicode="&#xdc;" horiz-adv-x="1996" 
d="M714 2181q-79 0 -132 51t-53 123q0 75 53 125.5t132 50.5q78 0 130 -50.5t52 -125.5q0 -72 -52 -123t-130 -51zM1284 2181q-78 0 -131 51t-53 123q0 75 52.5 125.5t131.5 50.5t130.5 -50.5t51.5 -125.5q0 -72 -52 -123t-130 -51zM1423 2048h395v-1353q0 -137 -39.5 -254
t-112.5 -203.5t-174 -147t-225.5 -91t-266.5 -30.5q-239 0 -423.5 83t-292 249t-107.5 394v1353h395v-1342q0 -175 120.5 -277t307.5 -102t305 101.5t118 277.5v1342z" />
    <glyph glyph-name="Yacute" unicode="&#xdd;" horiz-adv-x="2065" 
d="M851 2145l262 424h399l-357 -424h-304zM501 2048l519 -896h24l520 896h433l-767 -1248v-800h-395v800l-767 1248h433z" />
    <glyph glyph-name="Thorn" unicode="&#xde;" horiz-adv-x="1809" 
d="M172 2048h395v-386h306q174 0 314 -46.5t231 -129.5t139.5 -196t48.5 -246t-48.5 -246t-139.5 -196t-231 -129.5t-314 -46.5h-306v-426h-395v2048zM873 1350h-306v-611h306q177 0 266.5 82.5t89.5 218.5q0 139 -89.5 224.5t-266.5 85.5z" />
    <glyph glyph-name="germandbls" unicode="&#xdf;" horiz-adv-x="1735" 
d="M544 1467v-1467h-377v1467q0 306 161 467.5t445 161.5q126 0 234 -32.5t190 -94t129 -159.5t47 -221q0 -65 -14 -123t-33.5 -100t-39.5 -80.5t-34 -81.5t-14 -87q0 -43 22.5 -81.5t58 -70t78.5 -64.5t86 -73t78.5 -86t58 -112t22.5 -144q0 -107 -38 -199.5t-111 -163
t-191 -111t-268 -40.5q-116 0 -223.5 24t-166.5 61l101 294q150 -68 280 -68q115 0 179 54.5t64 143.5q0 55 -23.5 101t-60.5 79.5t-82 66t-90 68t-82 76t-60.5 99.5t-23.5 130t24.5 138.5t53.5 112t53.5 105t24.5 119.5q0 93 -65 144.5t-164 51.5q-229 0 -229 -305z" />
    <glyph glyph-name="agrave" unicode="&#xe0;" horiz-adv-x="1564" 
d="M711 2117l271 -424h-320l-378 424h427zM1022 0v173h-18q-46 -85 -145 -144.5t-248 -59.5q-138 0 -250.5 53t-181 160t-68.5 251q0 425 618 482q148 16 179 23q96 23 97 78v23q0 102 -59.5 158t-162.5 56q-104 0 -179 -52.5t-97 -133.5l-365 53q52 209 226.5 322.5
t424.5 113.5q95 0 180 -17t163.5 -56t135.5 -98t90.5 -150t33.5 -204v-1031h-374zM1005 512v203q-31 -34 -239 -61q-141 -16 -209 -67t-68 -149q0 -81 59 -128t156 -47q127 0 214 73.5t87 175.5z" />
    <glyph glyph-name="aacute" unicode="&#xe1;" horiz-adv-x="1564" 
d="M607 1693l262 424h399l-357 -424h-304zM1022 0v173h-18q-46 -85 -145 -144.5t-248 -59.5q-138 0 -250.5 53t-181 160t-68.5 251q0 425 618 482q148 16 179 23q96 23 97 78v23q0 102 -59.5 158t-162.5 56q-104 0 -179 -52.5t-97 -133.5l-365 53q52 209 226.5 322.5
t424.5 113.5q95 0 180 -17t163.5 -56t135.5 -98t90.5 -150t33.5 -204v-1031h-374zM1005 512v203q-31 -34 -239 -61q-141 -16 -209 -67t-68 -149q0 -81 59 -128t156 -47q127 0 214 73.5t87 175.5z" />
    <glyph glyph-name="acircumflex" unicode="&#xe2;" horiz-adv-x="1564" 
d="M573 1781h-320v13l416 387h236l414 -387v-13h-317l-214 202zM1022 0v173h-18q-46 -85 -145 -144.5t-248 -59.5q-138 0 -250.5 53t-181 160t-68.5 251q0 425 618 482q148 16 179 23q96 23 97 78v23q0 102 -59.5 158t-162.5 56q-104 0 -179 -52.5t-97 -133.5l-365 53
q52 209 226.5 322.5t424.5 113.5q95 0 180 -17t163.5 -56t135.5 -98t90.5 -150t33.5 -204v-1031h-374zM1005 512v203q-31 -34 -239 -61q-141 -16 -209 -67t-68 -149q0 -81 59 -128t156 -47q127 0 214 73.5t87 175.5z" />
    <glyph glyph-name="atilde" unicode="&#xe3;" horiz-adv-x="1569" 
d="M1051 2116l226 -16q0 -153 -89 -258.5t-223 -105.5q-59 0 -112.5 19t-87 41t-80.5 41t-95 19q-50 0 -83 -36t-33 -97l-230 10q0 151 89.5 259t222.5 108q49 0 101.5 -18.5t90.5 -40t88 -40t95 -18.5q51 0 85.5 36t34.5 97zM1022 0v173h-18q-46 -85 -145 -144.5
t-248 -59.5q-138 0 -250.5 53t-181 160t-68.5 251q0 425 618 482q148 16 179 23q96 23 97 78v23q0 102 -59.5 158t-162.5 56q-104 0 -179 -52.5t-97 -133.5l-365 53q52 209 226.5 322.5t424.5 113.5q95 0 180 -17t163.5 -56t135.5 -98t90.5 -150t33.5 -204v-1031h-374z
M1005 512v203q-31 -34 -239 -61q-141 -16 -209 -67t-68 -149q0 -81 59 -128t156 -47q127 0 214 73.5t87 175.5z" />
    <glyph glyph-name="adieresis" unicode="&#xe4;" horiz-adv-x="1569" 
d="M499 1726q-79 0 -132 51t-53 123q0 75 53 125.5t132 50.5q78 0 130 -50.5t52 -125.5q0 -72 -52 -123t-130 -51zM1069 1726q-78 0 -131 51t-53 123q0 75 52.5 125.5t131.5 50.5t130.5 -50.5t51.5 -125.5q0 -72 -52 -123t-130 -51zM1022 0v173h-18q-46 -85 -145 -144.5
t-248 -59.5q-138 0 -250.5 53t-181 160t-68.5 251q0 425 618 482q148 16 179 23q96 23 97 78v23q0 102 -59.5 158t-162.5 56q-104 0 -179 -52.5t-97 -133.5l-365 53q52 209 226.5 322.5t424.5 113.5q95 0 180 -17t163.5 -56t135.5 -98t90.5 -150t33.5 -204v-1031h-374z
M1005 512v203q-31 -34 -239 -61q-141 -16 -209 -67t-68 -149q0 -81 59 -128t156 -47q127 0 214 73.5t87 175.5z" />
    <glyph glyph-name="aring" unicode="&#xe5;" horiz-adv-x="1564" 
d="M465 1987q0 125 93.5 214t232.5 89t231.5 -88.5t92.5 -214.5q0 -124 -92 -208.5t-232 -84.5t-233 84.5t-93 208.5zM631 1987q0 -65 45 -111.5t115 -46.5t114.5 46t44.5 112q0 67 -44.5 114t-114.5 47t-115 -47t-45 -114zM1022 0v173h-18q-46 -85 -145 -144.5t-248 -59.5
q-138 0 -250.5 53t-181 160t-68.5 251q0 425 618 482q148 16 179 23q96 23 97 78v23q0 102 -59.5 158t-162.5 56q-104 0 -179 -52.5t-97 -133.5l-365 53q52 209 226.5 322.5t424.5 113.5q95 0 180 -17t163.5 -56t135.5 -98t90.5 -150t33.5 -204v-1031h-374zM1005 512v203
q-31 -34 -239 -61q-141 -16 -209 -67t-68 -149q0 -81 59 -128t156 -47q127 0 214 73.5t87 175.5z" />
    <glyph glyph-name="ae" unicode="&#xe6;" horiz-adv-x="2495" 
d="M147 1120q52 209 227 322.5t425 113.5q290 0 450 -155q182 155 448 155q118 0 221.5 -29t189 -89t147 -147t95.5 -207.5t34 -265.5v-121l-1032 -96q29 -150 119 -231t239 -81q233 0 310 213l348 -94q-17 -65 -51.5 -126.5t-91.5 -118.5t-129 -99t-171.5 -67.5
t-212.5 -25.5q-359 0 -535 265h-9q-8 -27 -30 -60t-64 -70t-96.5 -67t-135 -50t-171.5 -20q-109 0 -206.5 28t-176.5 83t-125 146t-46 207q0 425 618 482q14 2 44.5 5t45.5 4.5t41 5t40 7t34 9t30 12t21 15t15.5 19.5t4.5 24v23q0 99 -64 151t-166 52q-106 0 -175.5 -52.5
t-98.5 -138.5zM1694 1241q-146 0 -236.5 -99t-112.5 -279l671 59q0 140 -86.5 229.5t-235.5 89.5zM1011 512v203q-31 -34 -239 -61q-141 -16 -209.5 -67t-68.5 -149q0 -81 59 -128t156 -47q127 0 214.5 73.5t87.5 175.5z" />
    <glyph glyph-name="ccedilla" unicode="&#xe7;" horiz-adv-x="1583" 
d="M1482 1046l-361 -54q-62 249 -295 249q-168 0 -255.5 -126.5t-87.5 -346.5q0 -223 87 -351t256 -128q113 0 186.5 60t103.5 167l363 -52q-39 -189 -174.5 -317.5t-336.5 -163.5l-11 -55q87 -14 146 -71t59 -165q0 -149 -123 -237t-351 -88l-11 224q73 0 116 27t43 85
q0 56 -44.5 79t-152.5 30l38 172q-264 49 -415 260.5t-151 523.5q0 231 86 409t249 278.5t379 100.5q261 0 438 -138.5t219 -371.5z" />
    <glyph glyph-name="egrave" unicode="&#xe8;" horiz-adv-x="1639" 
d="M737 2117l271 -424h-320l-378 424h427zM855 -29q-345 0 -544.5 208.5t-199.5 568.5q0 235 85 417t251.5 286.5t391.5 104.5q118 0 221.5 -29t189 -89t147 -147t95.5 -207.5t34 -265.5v-163h-1040q19 -175 111.5 -270.5t254.5 -95.5q233 0 310 213l348 -94
q-22 -83 -71 -158t-126.5 -139t-196 -102t-261.5 -38zM836 1241q-133 0 -220.5 -83.5t-118.5 -235.5h661q0 140 -86.5 229.5t-235.5 89.5z" />
    <glyph glyph-name="eacute" unicode="&#xe9;" horiz-adv-x="1639" 
d="M633 1693l262 424h399l-357 -424h-304zM855 -29q-345 0 -544.5 208.5t-199.5 568.5q0 235 85 417t251.5 286.5t391.5 104.5q118 0 221.5 -29t189 -89t147 -147t95.5 -207.5t34 -265.5v-163h-1040q19 -175 111.5 -270.5t254.5 -95.5q233 0 310 213l348 -94
q-22 -83 -71 -158t-126.5 -139t-196 -102t-261.5 -38zM836 1241q-133 0 -220.5 -83.5t-118.5 -235.5h661q0 140 -86.5 229.5t-235.5 89.5z" />
    <glyph glyph-name="ecircumflex" unicode="&#xea;" horiz-adv-x="1639" 
d="M599 1781h-320v13l416 387h236l414 -387v-13h-317l-214 202zM855 -29q-345 0 -544.5 208.5t-199.5 568.5q0 235 85 417t251.5 286.5t391.5 104.5q118 0 221.5 -29t189 -89t147 -147t95.5 -207.5t34 -265.5v-163h-1040q19 -175 111.5 -270.5t254.5 -95.5q233 0 310 213
l348 -94q-22 -83 -71 -158t-126.5 -139t-196 -102t-261.5 -38zM836 1241q-133 0 -220.5 -83.5t-118.5 -235.5h661q0 140 -86.5 229.5t-235.5 89.5z" />
    <glyph glyph-name="edieresis" unicode="&#xeb;" horiz-adv-x="1637" 
d="M536 1726q-79 0 -132 51t-53 123q0 75 53 125.5t132 50.5q78 0 130 -50.5t52 -125.5q0 -72 -52 -123t-130 -51zM1106 1726q-78 0 -131 51t-53 123q0 75 52.5 125.5t131.5 50.5t130.5 -50.5t51.5 -125.5q0 -72 -52 -123t-130 -51zM855 -29q-345 0 -544.5 208.5
t-199.5 568.5q0 235 85 417t251.5 286.5t391.5 104.5q118 0 221.5 -29t189 -89t147 -147t95.5 -207.5t34 -265.5v-163h-1040q19 -175 111.5 -270.5t254.5 -95.5q233 0 310 213l348 -94q-22 -83 -71 -158t-126.5 -139t-196 -102t-261.5 -38zM836 1241q-133 0 -220.5 -83.5
t-118.5 -235.5h661q0 140 -86.5 229.5t-235.5 89.5z" />
    <glyph glyph-name="igrave" unicode="&#xec;" horiz-adv-x="744" 
d="M300 2097l271 -424h-320l-378 424h427zM566 1536v-1536h-388v1536h388z" />
    <glyph glyph-name="iacute" unicode="&#xed;" horiz-adv-x="744" 
d="M196 1673l262 424h399l-357 -424h-304zM566 1536v-1536h-388v1536h388z" />
    <glyph glyph-name="icircumflex" unicode="&#xee;" horiz-adv-x="744" 
d="M162 1761h-320v13l416 387h236l414 -387v-13h-317l-214 202zM566 1536v-1536h-388v1536h388z" />
    <glyph glyph-name="idieresis" unicode="&#xef;" horiz-adv-x="829" 
d="M131 1726q-79 0 -132 51t-53 123q0 75 53 125.5t132 50.5q78 0 130 -50.5t52 -125.5q0 -72 -52 -123t-130 -51zM701 1726q-78 0 -131 51t-53 123q0 75 52.5 125.5t131.5 50.5t130.5 -50.5t51.5 -125.5q0 -72 -52 -123t-130 -51zM612 1536v-1536h-388v1536h388z" />
    <glyph glyph-name="eth" unicode="&#xf0;" horiz-adv-x="1567" 
d="M783 -32q-202 0 -355.5 94.5t-235 261.5t-81.5 380q0 153 42.5 284.5t114.5 222t163.5 146.5t191.5 69q112 13 214 -25.5t159 -114.5h20q-110 210 -257 352l-341 -176l-106 203l255 131q-93 66 -212 133l172 247q180 -93 339 -226l277 143l106 -202l-208 -108
q191 -208 302.5 -468.5t111.5 -562.5q0 -368 -182.5 -576t-489.5 -208zM797 278q150 0 233 110t83 314q0 203 -82.5 318t-233.5 115q-149 0 -231.5 -111t-82.5 -317q0 -204 81 -316.5t233 -112.5z" />
    <glyph glyph-name="ntilde" unicode="&#xf1;" horiz-adv-x="1650" 
d="M1085 2116l226 -16q0 -153 -89 -258.5t-223 -105.5q-59 0 -112.5 19t-87 41t-80.5 41t-95 19q-50 0 -83 -36t-33 -97l-230 10q0 151 89.5 259t222.5 108q49 0 101.5 -18.5t90.5 -40t88 -40t95 -18.5q51 0 85.5 36t34.5 97zM555 845v-845h-388v1536h364v-195h16
q65 98 175 156.5t251 58.5q83 0 156.5 -20t139 -65.5t112.5 -112.5t74.5 -167.5t27.5 -225.5v-965h-389v949q0 134 -72 210.5t-185 76.5q-130 0 -206 -106t-76 -285z" />
    <glyph glyph-name="ograve" unicode="&#xf2;" horiz-adv-x="1653" 
d="M728 2117l271 -424h-320l-378 424h427zM826 -29q-216 0 -379.5 101t-249.5 280.5t-86 412.5q0 234 86.5 413t249 278.5t379.5 99.5t380 -99.5t249 -278.5t86 -413q0 -233 -86 -412.5t-249 -280.5t-380 -101zM826 289q118 0 196.5 63.5t112.5 167.5t34 245t-34 245
t-112.5 167.5t-196.5 63.5q-88 0 -155 -35.5t-107.5 -100.5t-60.5 -150t-20 -190q0 -216 85 -346t258 -130z" />
    <glyph glyph-name="oacute" unicode="&#xf3;" horiz-adv-x="1653" 
d="M624 1693l262 424h399l-357 -424h-304zM826 -29q-216 0 -379.5 101t-249.5 280.5t-86 412.5q0 234 86.5 413t249 278.5t379.5 99.5t380 -99.5t249 -278.5t86 -413q0 -233 -86 -412.5t-249 -280.5t-380 -101zM826 289q118 0 196.5 63.5t112.5 167.5t34 245t-34 245
t-112.5 167.5t-196.5 63.5q-88 0 -155 -35.5t-107.5 -100.5t-60.5 -150t-20 -190q0 -216 85 -346t258 -130z" />
    <glyph glyph-name="ocircumflex" unicode="&#xf4;" horiz-adv-x="1653" 
d="M590 1781h-320v13l416 387h236l414 -387v-13h-317l-214 202zM826 -29q-216 0 -379.5 101t-249.5 280.5t-86 412.5q0 234 86.5 413t249 278.5t379.5 99.5t380 -99.5t249 -278.5t86 -413q0 -233 -86 -412.5t-249 -280.5t-380 -101zM826 289q118 0 196.5 63.5t112.5 167.5
t34 245t-34 245t-112.5 167.5t-196.5 63.5q-88 0 -155 -35.5t-107.5 -100.5t-60.5 -150t-20 -190q0 -216 85 -346t258 -130z" />
    <glyph glyph-name="otilde" unicode="&#xf5;" horiz-adv-x="1653" 
d="M1117 2116l226 -16q0 -153 -89 -258.5t-223 -105.5q-59 0 -112.5 19t-87 41t-80.5 41t-95 19q-50 0 -83 -36t-33 -97l-230 10q0 151 89.5 259t222.5 108q49 0 101.5 -18.5t90.5 -40t88 -40t95 -18.5q51 0 85.5 36t34.5 97zM826 -29q-216 0 -379.5 101t-249.5 280.5
t-86 412.5q0 234 86.5 413t249 278.5t379.5 99.5t380 -99.5t249 -278.5t86 -413q0 -233 -86 -412.5t-249 -280.5t-380 -101zM826 289q118 0 196.5 63.5t112.5 167.5t34 245t-34 245t-112.5 167.5t-196.5 63.5q-88 0 -155 -35.5t-107.5 -100.5t-60.5 -150t-20 -190
q0 -216 85 -346t258 -130z" />
    <glyph glyph-name="odieresis" unicode="&#xf6;" horiz-adv-x="1653" 
d="M543 1726q-79 0 -132 51t-53 123q0 75 53 125.5t132 50.5q78 0 130 -50.5t52 -125.5q0 -72 -52 -123t-130 -51zM1113 1726q-78 0 -131 51t-53 123q0 75 52.5 125.5t131.5 50.5t130.5 -50.5t51.5 -125.5q0 -72 -52 -123t-130 -51zM826 -29q-216 0 -379.5 101t-249.5 280.5
t-86 412.5q0 234 86.5 413t249 278.5t379.5 99.5t380 -99.5t249 -278.5t86 -413q0 -233 -86 -412.5t-249 -280.5t-380 -101zM826 289q118 0 196.5 63.5t112.5 167.5t34 245t-34 245t-112.5 167.5t-196.5 63.5q-88 0 -155 -35.5t-107.5 -100.5t-60.5 -150t-20 -190
q0 -216 85 -346t258 -130z" />
    <glyph glyph-name="divide" unicode="&#xf7;" horiz-adv-x="1645" 
d="M600 1435q0 91 60.5 148.5t161.5 57.5t162 -58t61 -148q0 -89 -61 -145.5t-162 -56.5t-161.5 56t-60.5 146zM1462 1052v-310h-1280v310h1280zM600 350q0 91 61 149.5t161 58.5q101 0 162 -58.5t61 -149.5q0 -89 -61 -145.5t-162 -56.5t-161.5 56t-60.5 146z" />
    <glyph glyph-name="oslash" unicode="&#xf8;" horiz-adv-x="1653" 
d="M380 -95l-185 126l109 161q-193 219 -193 573q0 234 86.5 413t249 278.5t379.5 99.5q193 0 345 -80l96 143l185 -126l-104 -155q193 -216 193 -573q0 -233 -86 -412.5t-249 -280.5t-380 -101q-193 0 -346 82zM483 765q0 -147 38 -252l465 690q-67 38 -160 38
q-88 0 -155 -35.5t-107.5 -100.5t-60.5 -150t-20 -190zM826 289q118 0 196.5 63.5t112.5 167.5t34 245q0 148 -38 253l-466 -690q70 -39 161 -39z" />
    <glyph glyph-name="ugrave" unicode="&#xf9;" horiz-adv-x="1650" 
d="M732 2117l271 -424h-320l-378 424h427zM1094 684v852h389v-1536h-364v181h-16q-67 -91 -177 -146t-249 -55q-77 0 -148.5 19.5t-138 65t-115.5 112t-78.5 168t-29.5 226.5v965h388v-954q0 -133 71.5 -207.5t185.5 -74.5q131 0 206.5 102.5t75.5 281.5z" />
    <glyph glyph-name="uacute" unicode="&#xfa;" horiz-adv-x="1650" 
d="M628 1693l262 424h399l-357 -424h-304zM1094 684v852h389v-1536h-364v181h-16q-67 -91 -177 -146t-249 -55q-77 0 -148.5 19.5t-138 65t-115.5 112t-78.5 168t-29.5 226.5v965h388v-954q0 -133 71.5 -207.5t185.5 -74.5q131 0 206.5 102.5t75.5 281.5z" />
    <glyph glyph-name="ucircumflex" unicode="&#xfb;" horiz-adv-x="1650" 
d="M594 1781h-320v13l416 387h236l414 -387v-13h-317l-214 202zM1094 684v852h389v-1536h-364v181h-16q-67 -91 -177 -146t-249 -55q-77 0 -148.5 19.5t-138 65t-115.5 112t-78.5 168t-29.5 226.5v965h388v-954q0 -133 71.5 -207.5t185.5 -74.5q131 0 206.5 102.5
t75.5 281.5z" />
    <glyph glyph-name="udieresis" unicode="&#xfc;" horiz-adv-x="1650" 
d="M540 1726q-79 0 -132 51t-53 123q0 75 53 125.5t132 50.5q78 0 130 -50.5t52 -125.5q0 -72 -52 -123t-130 -51zM1110 1726q-78 0 -131 51t-53 123q0 75 52.5 125.5t131.5 50.5t130.5 -50.5t51.5 -125.5q0 -72 -52 -123t-130 -51zM1094 684v852h389v-1536h-364v181h-16
q-67 -91 -177 -146t-249 -55q-77 0 -148.5 19.5t-138 65t-115.5 112t-78.5 168t-29.5 226.5v965h388v-954q0 -133 71.5 -207.5t185.5 -74.5q131 0 206.5 102.5t75.5 281.5z" />
    <glyph glyph-name="yacute" unicode="&#xfd;" horiz-adv-x="1636" 
d="M610 1693l262 424h399l-357 -424h-304zM598 -65l29 77l-558 1524h403l338 -1012h17l337 1012h403l-649 -1765q-21 -57 -50 -107.5t-74 -99.5t-99.5 -84.5t-129 -57t-159.5 -21.5q-111 0 -213 39l88 306q57 -16 99 -18t74 8.5t57.5 38.5t45 65t41.5 95z" />
    <glyph glyph-name="thorn" unicode="&#xfe;" horiz-adv-x="1672" 
d="M167 2048h388v-702h18q44 89 139 149.5t237 60.5q126 0 236 -51t194.5 -148t133 -249t48.5 -341q0 -188 -47 -340t-130 -250.5t-194 -151t-240 -52.5q-142 0 -237.5 60t-139.5 149h-18v-758h-388v2624zM1192 768q0 220 -88.5 346.5t-256.5 126.5q-86 0 -150.5 -35.5
t-102.5 -100t-56.5 -148.5t-18.5 -189q0 -104 18 -189t56 -151t102.5 -102.5t151.5 -36.5q167 0 256 129t89 350z" />
    <glyph glyph-name="ydieresis" unicode="&#xff;" horiz-adv-x="1553" 
d="M493 1726q-79 0 -132 51t-53 123q0 75 53 125.5t132 50.5q78 0 130 -50.5t52 -125.5q0 -72 -52 -123t-130 -51zM1063 1726q-78 0 -131 51t-53 123q0 75 52.5 125.5t131.5 50.5t130.5 -50.5t51.5 -125.5q0 -72 -52 -123t-130 -51zM598 -65l29 77l-558 1524h403l338 -1012
h17l337 1012h403l-649 -1765q-21 -57 -50 -107.5t-74 -99.5t-99.5 -84.5t-129 -57t-159.5 -21.5q-111 0 -213 39l88 306q57 -16 99 -18t74 8.5t57.5 38.5t45 65t41.5 95z" />
    <glyph glyph-name="Amacron" unicode="&#x100;" horiz-adv-x="2084" 
d="M1519 2454v-226h-948v226h948zM501 0h-424l755 2048h419l755 -2048h-423l-149 436h-784zM1030 1550l-270 -790h564l-270 790h-24z" />
    <glyph glyph-name="amacron" unicode="&#x101;" horiz-adv-x="1564" 
d="M1265 2002v-226h-948v226h948zM1022 0v173h-18q-46 -85 -145 -144.5t-248 -59.5q-138 0 -250.5 53t-181 160t-68.5 251q0 425 618 482q148 16 179 23q96 23 97 78v23q0 102 -59.5 158t-162.5 56q-104 0 -179 -52.5t-97 -133.5l-365 53q52 209 226.5 322.5t424.5 113.5
q95 0 180 -17t163.5 -56t135.5 -98t90.5 -150t33.5 -204v-1031h-374zM1005 512v203q-31 -34 -239 -61q-141 -16 -209 -67t-68 -149q0 -81 59 -128t156 -47q127 0 214 73.5t87 175.5z" />
    <glyph glyph-name="Abreve" unicode="&#x102;" horiz-adv-x="2084" 
d="M1236 2554h279q0 -181 -128.5 -293.5t-344.5 -112.5q-213 0 -341 113t-128 293h277q0 -79 47 -131t145 -52q99 0 146.5 52t47.5 131zM501 0h-424l755 2048h419l755 -2048h-423l-149 436h-784zM1030 1550l-270 -790h564l-270 790h-24z" />
    <glyph glyph-name="abreve" unicode="&#x103;" horiz-adv-x="1564" 
d="M982 2102h279q0 -181 -128.5 -293.5t-344.5 -112.5q-213 0 -341 113t-128 293h277q0 -79 47 -131t145 -52q99 0 146.5 52t47.5 131zM1022 0v173h-18q-46 -85 -145 -144.5t-248 -59.5q-138 0 -250.5 53t-181 160t-68.5 251q0 425 618 482q148 16 179 23q96 23 97 78v23
q0 102 -59.5 158t-162.5 56q-104 0 -179 -52.5t-97 -133.5l-365 53q52 209 226.5 322.5t424.5 113.5q95 0 180 -17t163.5 -56t135.5 -98t90.5 -150t33.5 -204v-1031h-374zM1005 512v203q-31 -34 -239 -61q-141 -16 -209 -67t-68 -149q0 -81 59 -128t156 -47q127 0 214 73.5
t87 175.5z" />
    <glyph glyph-name="Aogonek" unicode="&#x104;" horiz-adv-x="2084" 
d="M501 0h-424l755 2048h419l755 -2048h-110q-110 -64 -161.5 -120.5t-51.5 -126.5q0 -90 93 -90q15 0 28.5 1.5t25.5 5t19.5 6.5t19.5 8t16 6l40 -211q-101 -60 -227 -60q-135 0 -222.5 74t-87.5 209q0 189 189 315l-143 419h-784zM1030 1550l-270 -790h564l-270 790h-24z
" />
    <glyph glyph-name="aogonek" unicode="&#x105;" horiz-adv-x="1564" 
d="M1022 0v173h-18q-46 -85 -145 -144.5t-248 -59.5q-138 0 -250.5 53t-181 160t-68.5 251q0 425 618 482q148 16 179 23q96 23 97 78v23q0 102 -59.5 158t-162.5 56q-104 0 -179 -52.5t-97 -133.5l-365 53q52 209 226.5 322.5t424.5 113.5q95 0 180 -17t163.5 -56
t135.5 -98t90.5 -150t33.5 -204v-1031h-8q-110 -64 -161.5 -120.5t-51.5 -126.5q0 -90 93 -90q15 0 28.5 1.5t25.5 5t19.5 6.5t19.5 8t16 6l40 -211q-101 -60 -227 -60q-135 0 -222.5 74t-87.5 209q0 176 165 298h-23zM1005 512v203q-31 -34 -239 -61q-141 -16 -209 -67
t-68 -149q0 -81 59 -128t156 -47q127 0 214 73.5t87 175.5z" />
    <glyph glyph-name="Cacute" unicode="&#x106;" horiz-adv-x="2004" 
d="M858 2145l262 424h399l-357 -424h-304zM1882 1405l-384 -43q-44 174 -167 265.5t-292 91.5q-112 0 -204 -42.5t-160.5 -126.5t-106.5 -219t-38 -310q0 -344 138.5 -518t370.5 -174q168 0 289 89.5t165 259.5l387 -43q-75 -313 -302 -488t-539 -175q-195 0 -361 72
t-286.5 204.5t-188.5 331.5t-68 441q0 244 68 443.5t188.5 333t286.5 206t361 72.5q313 0 541 -177.5t302 -493.5z" />
    <glyph glyph-name="cacute" unicode="&#x107;" horiz-adv-x="1583" 
d="M640 1693l262 424h399l-357 -424h-304zM1482 1046l-361 -54q-62 249 -295 249q-168 0 -255.5 -126.5t-87.5 -346.5q0 -223 87 -351t256 -128q113 0 186.5 60t103.5 167l363 -52q-46 -223 -221.5 -358t-431.5 -135q-218 0 -381 102t-248.5 282t-85.5 413q0 231 86 409
t249 278.5t379 100.5q261 0 438 -138.5t219 -371.5z" />
    <glyph glyph-name="Ccircumflex" unicode="&#x108;" horiz-adv-x="2004" 
d="M824 2233h-320v13l416 387h236l414 -387v-13h-317l-214 202zM1882 1405l-384 -43q-44 174 -167 265.5t-292 91.5q-112 0 -204 -42.5t-160.5 -126.5t-106.5 -219t-38 -310q0 -344 138.5 -518t370.5 -174q168 0 289 89.5t165 259.5l387 -43q-75 -313 -302 -488t-539 -175
q-195 0 -361 72t-286.5 204.5t-188.5 331.5t-68 441q0 244 68 443.5t188.5 333t286.5 206t361 72.5q313 0 541 -177.5t302 -493.5z" />
    <glyph glyph-name="ccircumflex" unicode="&#x109;" horiz-adv-x="1583" 
d="M606 1781h-320v13l416 387h236l414 -387v-13h-317l-214 202zM1482 1046l-361 -54q-62 249 -295 249q-168 0 -255.5 -126.5t-87.5 -346.5q0 -223 87 -351t256 -128q113 0 186.5 60t103.5 167l363 -52q-46 -223 -221.5 -358t-431.5 -135q-218 0 -381 102t-248.5 282
t-85.5 413q0 231 86 409t249 278.5t379 100.5q261 0 438 -138.5t219 -371.5z" />
    <glyph glyph-name="Cdotaccent" unicode="&#x10a;" horiz-adv-x="2004" 
d="M840 2376q0 82 54 134t145 52t146 -52.5t55 -133.5t-55 -132.5t-146 -51.5t-145 51.5t-54 132.5zM1882 1405l-384 -43q-44 174 -167 265.5t-292 91.5q-112 0 -204 -42.5t-160.5 -126.5t-106.5 -219t-38 -310q0 -344 138.5 -518t370.5 -174q168 0 289 89.5t165 259.5
l387 -43q-75 -313 -302 -488t-539 -175q-195 0 -361 72t-286.5 204.5t-188.5 331.5t-68 441q0 244 68 443.5t188.5 333t286.5 206t361 72.5q313 0 541 -177.5t302 -493.5z" />
    <glyph glyph-name="cdotaccent" unicode="&#x10b;" horiz-adv-x="1583" 
d="M622 1924q0 82 54 134t145 52t146 -52.5t55 -133.5t-55 -132.5t-146 -51.5t-145 51.5t-54 132.5zM1482 1046l-361 -54q-62 249 -295 249q-168 0 -255.5 -126.5t-87.5 -346.5q0 -223 87 -351t256 -128q113 0 186.5 60t103.5 167l363 -52q-46 -223 -221.5 -358t-431.5 -135
q-218 0 -381 102t-248.5 282t-85.5 413q0 231 86 409t249 278.5t379 100.5q261 0 438 -138.5t219 -371.5z" />
    <glyph glyph-name="Ccaron" unicode="&#x10c;" horiz-adv-x="2004" 
d="M824 2565l215 -202l214 202h317v-13l-414 -387h-236l-416 387v13h320zM1882 1405l-384 -43q-44 174 -167 265.5t-292 91.5q-112 0 -204 -42.5t-160.5 -126.5t-106.5 -219t-38 -310q0 -344 138.5 -518t370.5 -174q168 0 289 89.5t165 259.5l387 -43q-75 -313 -302 -488
t-539 -175q-195 0 -361 72t-286.5 204.5t-188.5 331.5t-68 441q0 244 68 443.5t188.5 333t286.5 206t361 72.5q313 0 541 -177.5t302 -493.5z" />
    <glyph glyph-name="ccaron" unicode="&#x10d;" horiz-adv-x="1583" 
d="M606 2113l215 -202l214 202h317v-13l-414 -387h-236l-416 387v13h320zM1482 1046l-361 -54q-62 249 -295 249q-168 0 -255.5 -126.5t-87.5 -346.5q0 -223 87 -351t256 -128q113 0 186.5 60t103.5 167l363 -52q-46 -223 -221.5 -358t-431.5 -135q-218 0 -381 102
t-248.5 282t-85.5 413q0 231 86 409t249 278.5t379 100.5q261 0 438 -138.5t219 -371.5z" />
    <glyph glyph-name="Dcaron" unicode="&#x10e;" horiz-adv-x="1980" 
d="M589 2565l215 -202l214 202h317v-13l-414 -387h-236l-416 387v13h320zM872 0h-695v2048h704q450 0 707 -272t257 -751q0 -480 -258.5 -752.5t-714.5 -272.5zM859 1706h-287v-1364h281q298 0 447.5 168.5t149.5 514.5q0 681 -591 681z" />
    <glyph glyph-name="dcaron" unicode="&#x10f;" horiz-adv-x="1822" 
d="M1985 2126v-194q-2 -354 -185 -560l-216 89q54 122 80.5 219.5t26.5 230.5v215h294zM1505 0h-383v182h-21q-44 -89 -140 -149t-238 -60q-130 0 -241 52.5t-194 151t-130 250.5t-47 340q0 189 48.5 341t133 249t194.5 148t237 51q142 0 237.5 -60.5t139.5 -149.5h16v702
h388v-2048zM481 768q0 -221 88.5 -350t255.5 -129q87 0 151.5 36.5t102.5 102.5t56.5 151t18.5 189q0 141 -32 244t-107 166t-190 63q-168 0 -256 -126.5t-88 -346.5z" />
    <glyph glyph-name="Dcroat" unicode="&#x110;" horiz-adv-x="2010" 
d="M902 0h-695v895h-131v239h131v914h704q450 0 707 -272t257 -751q0 -480 -258.5 -752.5t-714.5 -272.5zM1032 1134v-239h-430v-553h281q298 0 447.5 168.5t149.5 514.5q0 681 -591 681h-287v-572h430z" />
    <glyph glyph-name="dcroat" unicode="&#x111;" horiz-adv-x="1724" 
d="M1505 0h-383v182h-21q-44 -89 -140 -149t-238 -60q-130 0 -241 52.5t-194 151t-130 250.5t-47 340q0 189 48.5 341t133 249t194.5 148t237 51q142 0 237.5 -60.5t139.5 -149.5h16v311h-363v239h363v152h388v-152h205v-239h-205v-1657zM481 768q0 -221 88.5 -350
t255.5 -129q87 0 151.5 36.5t102.5 102.5t56.5 151t18.5 189q0 141 -32 244t-107 166t-190 63q-168 0 -256 -126.5t-88 -346.5z" />
    <glyph glyph-name="Emacron" unicode="&#x112;" horiz-adv-x="1665" 
d="M1338 2454v-226h-948v226h948zM1508 332v-332h-1331v2048h1326v-332h-931v-526h803v-331h-803v-527h936z" />
    <glyph glyph-name="emacron" unicode="&#x113;" horiz-adv-x="1639" 
d="M1291 2002v-226h-948v226h948zM855 -29q-345 0 -544.5 208.5t-199.5 568.5q0 235 85 417t251.5 286.5t391.5 104.5q118 0 221.5 -29t189 -89t147 -147t95.5 -207.5t34 -265.5v-163h-1040q19 -175 111.5 -270.5t254.5 -95.5q233 0 310 213l348 -94q-22 -83 -71 -158
t-126.5 -139t-196 -102t-261.5 -38zM836 1241q-133 0 -220.5 -83.5t-118.5 -235.5h661q0 140 -86.5 229.5t-235.5 89.5z" />
    <glyph glyph-name="Ebreve" unicode="&#x114;" horiz-adv-x="1665" 
d="M1055 2554h279q0 -181 -128.5 -293.5t-344.5 -112.5q-213 0 -341 113t-128 293h277q0 -79 47 -131t145 -52q99 0 146.5 52t47.5 131zM1508 332v-332h-1331v2048h1326v-332h-931v-526h803v-331h-803v-527h936z" />
    <glyph glyph-name="ebreve" unicode="&#x115;" horiz-adv-x="1639" 
d="M1008 2102h279q0 -181 -128.5 -293.5t-344.5 -112.5q-213 0 -341 113t-128 293h277q0 -79 47 -131t145 -52q99 0 146.5 52t47.5 131zM855 -29q-345 0 -544.5 208.5t-199.5 568.5q0 235 85 417t251.5 286.5t391.5 104.5q118 0 221.5 -29t189 -89t147 -147t95.5 -207.5
t34 -265.5v-163h-1040q19 -175 111.5 -270.5t254.5 -95.5q233 0 310 213l348 -94q-22 -83 -71 -158t-126.5 -139t-196 -102t-261.5 -38zM836 1241q-133 0 -220.5 -83.5t-118.5 -235.5h661q0 140 -86.5 229.5t-235.5 89.5z" />
    <glyph glyph-name="Edotaccent" unicode="&#x116;" horiz-adv-x="1665" 
d="M662 2376q0 82 54 134t145 52t146 -52.5t55 -133.5t-55 -132.5t-146 -51.5t-145 51.5t-54 132.5zM1508 332v-332h-1331v2048h1326v-332h-931v-526h803v-331h-803v-527h936z" />
    <glyph glyph-name="edotaccent" unicode="&#x117;" horiz-adv-x="1639" 
d="M615 1924q0 82 54 134t145 52t146 -52.5t55 -133.5t-55 -132.5t-146 -51.5t-145 51.5t-54 132.5zM855 -29q-345 0 -544.5 208.5t-199.5 568.5q0 235 85 417t251.5 286.5t391.5 104.5q118 0 221.5 -29t189 -89t147 -147t95.5 -207.5t34 -265.5v-163h-1040
q19 -175 111.5 -270.5t254.5 -95.5q233 0 310 213l348 -94q-22 -83 -71 -158t-126.5 -139t-196 -102t-261.5 -38zM836 1241q-133 0 -220.5 -83.5t-118.5 -235.5h661q0 140 -86.5 229.5t-235.5 89.5z" />
    <glyph glyph-name="Eogonek" unicode="&#x118;" horiz-adv-x="1665" 
d="M1508 332v-332h-169q-110 -64 -161.5 -120.5t-51.5 -126.5q0 -90 93 -90q15 0 28.5 1.5t25.5 5t19.5 6.5t19.5 8t16 6l40 -211q-101 -60 -227 -60q-135 0 -222.5 74t-87.5 209q0 176 165 298h-819v2048h1326v-332h-931v-526h803v-331h-803v-527h936z" />
    <glyph glyph-name="eogonek" unicode="&#x119;" horiz-adv-x="1639" 
d="M1251 -459q-101 -60 -227 -60q-135 0 -222.5 74t-87.5 209q0 116 72 209q-315 22 -495 228t-180 547q0 235 85 417t251.5 286.5t391.5 104.5q118 0 221.5 -29t189 -89t147 -147t95.5 -207.5t34 -265.5v-163h-1040q19 -175 111.5 -270.5t254.5 -95.5q233 0 310 213
l348 -94q-32 -120 -119 -222t-227 -159q-78 -52 -116.5 -102t-38.5 -110q0 -90 93 -90q15 0 28.5 1.5t25.5 5t19.5 6.5t19.5 8t16 6zM836 1241q-133 0 -220.5 -83.5t-118.5 -235.5h661q0 140 -86.5 229.5t-235.5 89.5z" />
    <glyph glyph-name="Ecaron" unicode="&#x11a;" horiz-adv-x="1665" 
d="M646 2565l215 -202l214 202h317v-13l-414 -387h-236l-416 387v13h320zM1508 332v-332h-1331v2048h1326v-332h-931v-526h803v-331h-803v-527h936z" />
    <glyph glyph-name="ecaron" unicode="&#x11b;" horiz-adv-x="1639" 
d="M599 2113l215 -202l214 202h317v-13l-414 -387h-236l-416 387v13h320zM855 -29q-345 0 -544.5 208.5t-199.5 568.5q0 235 85 417t251.5 286.5t391.5 104.5q118 0 221.5 -29t189 -89t147 -147t95.5 -207.5t34 -265.5v-163h-1040q19 -175 111.5 -270.5t254.5 -95.5
q233 0 310 213l348 -94q-22 -83 -71 -158t-126.5 -139t-196 -102t-261.5 -38zM836 1241q-133 0 -220.5 -83.5t-118.5 -235.5h661q0 140 -86.5 229.5t-235.5 89.5z" />
    <glyph glyph-name="Gcircumflex" unicode="&#x11c;" horiz-adv-x="2029" 
d="M822 2233h-320v13l416 387h236l414 -387v-13h-317l-214 202zM1886 1070v-301q0 -177 -66 -327.5t-179.5 -252.5t-268.5 -159.5t-330 -57.5q-195 0 -361.5 71.5t-287.5 203.5t-189.5 331t-68.5 443q0 245 68 445.5t188 333t284 204.5t356 72q301 0 526.5 -170t318.5 -479
l-399 -43q-52 166 -171 250.5t-275 84.5q-108 0 -197.5 -42t-158 -125t-107 -219t-38.5 -312t39 -311t109 -217t161.5 -123t202.5 -41q199 0 329.5 121t130.5 319h-429v301h813z" />
    <glyph glyph-name="gcircumflex" unicode="&#x11d;" horiz-adv-x="1672" 
d="M597 1781h-320v13l416 387h236l414 -387v-13h-317l-214 202zM1122 1531h383v-1489q0 -152 -54 -272t-151 -197t-228 -117t-288 -40q-204 0 -365.5 68.5t-234.5 160.5l190 254q84 -72 177 -117t223 -45q163 0 257.5 80.5t93.5 248.5v155h-22q-18 -34 -47.5 -65t-75 -61
t-112 -48t-145.5 -18q-126 0 -235 46.5t-194 136.5t-134 235.5t-49 331.5q0 185 48.5 334.5t133 245t195 146.5t236.5 51q142 0 237.5 -60.5t139.5 -149.5h21v185zM481 780q0 -213 90 -327t254 -114q165 0 247 117t82 324q0 134 -33 235t-108.5 163.5t-187.5 62.5
q-167 0 -255.5 -125.5t-88.5 -335.5z" />
    <glyph glyph-name="Gbreve" unicode="&#x11e;" horiz-adv-x="2029" 
d="M1231 2554h279q0 -181 -128.5 -293.5t-344.5 -112.5q-213 0 -341 113t-128 293h277q0 -79 47 -131t145 -52q99 0 146.5 52t47.5 131zM1886 1070v-301q0 -177 -66 -327.5t-179.5 -252.5t-268.5 -159.5t-330 -57.5q-195 0 -361.5 71.5t-287.5 203.5t-189.5 331t-68.5 443
q0 245 68 445.5t188 333t284 204.5t356 72q301 0 526.5 -170t318.5 -479l-399 -43q-52 166 -171 250.5t-275 84.5q-108 0 -197.5 -42t-158 -125t-107 -219t-38.5 -312t39 -311t109 -217t161.5 -123t202.5 -41q199 0 329.5 121t130.5 319h-429v301h813z" />
    <glyph glyph-name="gbreve" unicode="&#x11f;" horiz-adv-x="1672" 
d="M1006 2102h279q0 -181 -128.5 -293.5t-344.5 -112.5q-213 0 -341 113t-128 293h277q0 -79 47 -131t145 -52q99 0 146.5 52t47.5 131zM1122 1531h383v-1489q0 -152 -54 -272t-151 -197t-228 -117t-288 -40q-204 0 -365.5 68.5t-234.5 160.5l190 254q84 -72 177 -117
t223 -45q163 0 257.5 80.5t93.5 248.5v155h-22q-18 -34 -47.5 -65t-75 -61t-112 -48t-145.5 -18q-126 0 -235 46.5t-194 136.5t-134 235.5t-49 331.5q0 185 48.5 334.5t133 245t195 146.5t236.5 51q142 0 237.5 -60.5t139.5 -149.5h21v185zM481 780q0 -213 90 -327t254 -114
q165 0 247 117t82 324q0 134 -33 235t-108.5 163.5t-187.5 62.5q-167 0 -255.5 -125.5t-88.5 -335.5z" />
    <glyph glyph-name="Gdotaccent" unicode="&#x120;" horiz-adv-x="2029" 
d="M838 2376q0 82 54 134t145 52t146 -52.5t55 -133.5t-55 -132.5t-146 -51.5t-145 51.5t-54 132.5zM1886 1070v-301q0 -177 -66 -327.5t-179.5 -252.5t-268.5 -159.5t-330 -57.5q-195 0 -361.5 71.5t-287.5 203.5t-189.5 331t-68.5 443q0 245 68 445.5t188 333t284 204.5
t356 72q301 0 526.5 -170t318.5 -479l-399 -43q-52 166 -171 250.5t-275 84.5q-108 0 -197.5 -42t-158 -125t-107 -219t-38.5 -312t39 -311t109 -217t161.5 -123t202.5 -41q199 0 329.5 121t130.5 319h-429v301h813z" />
    <glyph glyph-name="gdotaccent" unicode="&#x121;" horiz-adv-x="1672" 
d="M613 1924q0 82 54 134t145 52t146 -52.5t55 -133.5t-55 -132.5t-146 -51.5t-145 51.5t-54 132.5zM1122 1531h383v-1489q0 -152 -54 -272t-151 -197t-228 -117t-288 -40q-204 0 -365.5 68.5t-234.5 160.5l190 254q84 -72 177 -117t223 -45q163 0 257.5 80.5t93.5 248.5
v155h-22q-18 -34 -47.5 -65t-75 -61t-112 -48t-145.5 -18q-126 0 -235 46.5t-194 136.5t-134 235.5t-49 331.5q0 185 48.5 334.5t133 245t195 146.5t236.5 51q142 0 237.5 -60.5t139.5 -149.5h21v185zM481 780q0 -213 90 -327t254 -114q165 0 247 117t82 324q0 134 -33 235
t-108.5 163.5t-187.5 62.5q-167 0 -255.5 -125.5t-88.5 -335.5z" />
    <glyph glyph-name="Gcommaaccent" unicode="&#x122;" horiz-adv-x="2029" 
d="M1886 1070v-301q0 -177 -66 -327.5t-179.5 -252.5t-268.5 -159.5t-330 -57.5q-195 0 -361.5 71.5t-287.5 203.5t-189.5 331t-68.5 443q0 245 68 445.5t188 333t284 204.5t356 72q301 0 526.5 -170t318.5 -479l-399 -43q-52 166 -171 250.5t-275 84.5q-108 0 -197.5 -42
t-158 -125t-107 -219t-38.5 -312t39 -311t109 -217t161.5 -123t202.5 -41q199 0 329.5 121t130.5 319h-429v301h813zM1187 -125v-194q-2 -354 -185 -560l-216 89q54 122 80.5 219.5t26.5 230.5v215h294z" />
    <glyph glyph-name="gcommaaccent" unicode="&#x123;" horiz-adv-x="1672" 
d="M654 1737v187q0 142 56 264.5t143 182.5l199 -110q-89 -161 -89 -351l-3 -173h-306zM1122 1531h383v-1489q0 -152 -54 -272t-151 -197t-228 -117t-288 -40q-204 0 -365.5 68.5t-234.5 160.5l190 254q84 -72 177 -117t223 -45q163 0 257.5 80.5t93.5 248.5v155h-22
q-18 -34 -47.5 -65t-75 -61t-112 -48t-145.5 -18q-126 0 -235 46.5t-194 136.5t-134 235.5t-49 331.5q0 185 48.5 334.5t133 245t195 146.5t236.5 51q142 0 237.5 -60.5t139.5 -149.5h21v185zM481 780q0 -213 90 -327t254 -114q165 0 247 117t82 324q0 134 -33 235
t-108.5 163.5t-187.5 62.5q-167 0 -255.5 -125.5t-88.5 -335.5z" />
    <glyph glyph-name="Hcircumflex" unicode="&#x124;" horiz-adv-x="1994" 
d="M830 2233h-320v13l416 387h236l414 -387v-13h-317l-214 202zM572 2048v-858h850v858h395v-2048h-395v859h-850v-859h-395v2048h395z" />
    <glyph glyph-name="hcircumflex" unicode="&#x125;" horiz-adv-x="1620" 
d="M688 2320h-320v13l416 387h236l414 -387v-13h-317l-214 202zM555 852v-852h-388v2048h377v-693h16q67 92 173.5 146.5t242.5 54.5q218 0 347.5 -150.5t129.5 -440.5v-965h-389v968q0 126 -56.5 197t-167.5 71q-132 0 -208.5 -103.5t-76.5 -280.5z" />
    <glyph glyph-name="Hbar" unicode="&#x126;" horiz-adv-x="1978" 
d="M573 2048v-369h850v369h395v-369h155v-236h-155v-1443h-395v859h-850v-859h-394v1443h-158v236h158v369h394zM573 1190h850v253h-850v-253z" />
    <glyph glyph-name="hbar" unicode="&#x127;" horiz-adv-x="1650" 
d="M585 852v-852h-388v1683h-236v239h236v126h377v-126h343v-239h-343v-328h16q67 92 173.5 146.5t242.5 54.5q218 0 347.5 -150.5t129.5 -440.5v-965h-389v968q0 126 -56.5 197t-167.5 71q-132 0 -208.5 -103.5t-76.5 -280.5z" />
    <glyph glyph-name="Itilde" unicode="&#x128;" horiz-adv-x="749" 
d="M661 2565l226 -16q0 -153 -89 -258.5t-223 -105.5q-49 0 -92 12.5t-75.5 30t-63 35t-68 30t-76.5 12.5q-50 0 -83 -36t-33 -97l-230 10q0 151 89.5 259t222.5 108q49 0 101.5 -18.5t90.5 -40t88 -40t95 -18.5q51 0 85.5 36t34.5 97zM572 2048v-2048h-395v2048h395z" />
    <glyph glyph-name="itilde" unicode="&#x129;" horiz-adv-x="925" 
d="M753 2116l226 -16q0 -153 -89 -258.5t-223 -105.5q-59 0 -112.5 19t-87 41t-80.5 41t-95 19q-50 0 -83 -36t-33 -97l-230 10q0 151 89.5 259t222.5 108q49 0 101.5 -18.5t90.5 -40t88 -40t95 -18.5q51 0 85.5 36t34.5 97zM659 1536v-1536h-388v1536h388z" />
    <glyph glyph-name="Imacron" unicode="&#x12a;" horiz-adv-x="749" 
d="M847 2454v-226h-948v226h948zM572 2048v-2048h-395v2048h395z" />
    <glyph glyph-name="imacron" unicode="&#x12b;" horiz-adv-x="744" 
d="M854 1982v-226h-948v226h948zM566 1536v-1536h-388v1536h388z" />
    <glyph glyph-name="Ibreve" unicode="&#x12c;" horiz-adv-x="749" 
d="M564 2554h279q0 -181 -128.5 -293.5t-344.5 -112.5q-213 0 -341 113t-128 293h277q0 -79 47 -131t145 -52q99 0 146.5 52t47.5 131zM572 2048v-2048h-395v2048h395z" />
    <glyph glyph-name="ibreve" unicode="&#x12d;" horiz-adv-x="744" 
d="M571 2082h279q0 -181 -128.5 -293.5t-344.5 -112.5q-213 0 -341 113t-128 293h277q0 -79 47 -131t145 -52q99 0 146.5 52t47.5 131zM566 1536v-1536h-388v1536h388z" />
    <glyph glyph-name="Iogonek" unicode="&#x12e;" horiz-adv-x="749" 
d="M572 2048v-2048h-76q-105 -62 -154.5 -117.5t-49.5 -124.5q0 -90 93 -90q15 0 28.5 1.5t25.5 5t19.5 6.5t19.5 8t16 6l40 -211q-101 -60 -227 -60q-135 0 -222.5 74t-87.5 209q0 184 180 309v2032h395z" />
    <glyph glyph-name="iogonek" unicode="&#x12f;" horiz-adv-x="744" 
d="M373 1664q-94 0 -158.5 60.5t-64.5 145.5q0 84 65 145t158 61t156 -61t63 -145q0 -86 -63 -146t-156 -60zM566 1536v-1536h-58q-110 -64 -161.5 -120.5t-51.5 -126.5q0 -90 93 -90q15 0 28.5 1.5t25.5 5t19.5 6.5t19.5 8t16 6l40 -211q-101 -60 -227 -60
q-135 0 -222.5 74t-87.5 209q0 182 178 308v1526h388z" />
    <glyph glyph-name="Idotaccent" unicode="&#x130;" horiz-adv-x="749" 
d="M171 2376q0 82 54 134t145 52t146 -52.5t55 -133.5t-55 -132.5t-146 -51.5t-145 51.5t-54 132.5zM572 2048v-2048h-395v2048h395z" />
    <glyph glyph-name="dotlessi" unicode="&#x131;" horiz-adv-x="744" 
d="M566 1536v-1536h-388v1536h388z" />
    <glyph glyph-name="IJ" unicode="&#x132;" horiz-adv-x="2557" 
d="M828 2048v-2048h-395v2048h395zM1995 614v1434h392v-1434q0 -196 -85 -342.5t-233.5 -223t-339.5 -76.5q-141 0 -259.5 38.5t-206.5 112.5t-137.5 189.5t-49.5 262.5h392q2 -132 75 -206t191 -74q116 0 188.5 80.5t72.5 238.5z" />
    <glyph glyph-name="ij" unicode="&#x133;" horiz-adv-x="1858" 
d="M629 1664q-94 0 -158.5 60.5t-64.5 145.5q0 84 65 145t158 61t156 -61t63 -145q0 -86 -63 -146t-156 -60zM1490 1664q-94 0 -158.5 60.5t-64.5 145.5q0 84 65 145t158 61t156 -61t63 -145q0 -86 -63 -146t-156 -60zM822 1536v-1536h-388v1536h388zM1295 1536h388v-1604
q0 -251 -148.5 -381.5t-402.5 -130.5h-130v315h79q119 0 166.5 52.5t47.5 149.5v1599z" />
    <glyph glyph-name="Jcircumflex" unicode="&#x134;" horiz-adv-x="1552" 
d="M964 2233h-320v13l416 387h236l414 -387v-13h-317l-214 202zM990 614v1434h392v-1434q0 -196 -85 -342.5t-233.5 -223t-339.5 -76.5q-141 0 -259.5 38.5t-206.5 112.5t-137.5 189.5t-49.5 262.5h392q2 -132 75 -206t191 -74q116 0 188.5 80.5t72.5 238.5z" />
    <glyph glyph-name="jcircumflex" unicode="&#x135;" horiz-adv-x="858" 
d="M273 1735h-320v13l416 387h236l414 -387v-13h-317l-214 202zM295 1536h388v-1604q0 -251 -148.5 -381.5t-402.5 -130.5h-130v315h79q119 0 166.5 52.5t47.5 149.5v1599z" />
    <glyph glyph-name="Kcommaaccent" unicode="&#x136;" horiz-adv-x="1980" 
d="M1420 0l-603 823l-245 -270v-553h-395v2048h395v-907h27l819 907h517l-868 -940l828 -1108h-475zM1084 -80v-194q-2 -354 -185 -560l-216 89q54 122 80.5 219.5t26.5 230.5v215h294z" />
    <glyph glyph-name="kcommaaccent" unicode="&#x137;" horiz-adv-x="1560" 
d="M1121 0l-432 634l-134 -151v-483h-388v2048h388v-1079h23l477 567h455l-567 -655l604 -881h-426zM921 -120v-194q-2 -354 -185 -560l-216 89q54 122 80.5 219.5t26.5 230.5v215h294z" />
    <glyph glyph-name="kgreenlandic" unicode="&#x138;" horiz-adv-x="1809" 
d="M1117 0l-371 555h-162v-555h-390v1488h390v-564h120l396 564h490l-529 -717l554 -771h-498z" />
    <glyph glyph-name="Lacute" unicode="&#x139;" horiz-adv-x="1573" 
d="M192 2145l262 424h399l-357 -424h-304zM1440 332v-332h-1263v2048h395v-1716h868z" />
    <glyph glyph-name="lacute" unicode="&#x13a;" horiz-adv-x="722" 
d="M181 2219l262 424h399l-357 -424h-304zM555 2048v-2048h-388v2048h388z" />
    <glyph glyph-name="Lcommaaccent" unicode="&#x13b;" horiz-adv-x="1573" 
d="M1440 332v-332h-1263v2048h395v-1716h868zM958 -104v-194q-2 -354 -185 -560l-216 89q54 122 80.5 219.5t26.5 230.5v215h294z" />
    <glyph glyph-name="lcommaaccent" unicode="&#x13c;" horiz-adv-x="722" 
d="M555 2048v-2048h-388v2048h388zM502 -115v-194q-2 -354 -185 -560l-216 89q54 122 80.5 219.5t26.5 230.5v215h294z" />
    <glyph glyph-name="Lcaron" unicode="&#x13d;" horiz-adv-x="1573" 
d="M1440 332v-332h-1263v2048h395v-1716h868zM1212 2017v-194q-2 -354 -185 -560l-216 89q54 122 80.5 219.5t26.5 230.5v215h294z" />
    <glyph glyph-name="lcaron" unicode="&#x13e;" horiz-adv-x="872" 
d="M1039 2126v-194q-2 -354 -185 -560l-216 89q54 122 80.5 219.5t26.5 230.5v215h294zM555 2048v-2048h-388v2048h388z" />
    <glyph glyph-name="Ldot" unicode="&#x13f;" horiz-adv-x="1573" 
d="M1440 332v-332h-1263v2048h395v-1716h868zM796 1152q0 82 54 134t145 52t146 -52.5t55 -133.5t-55 -132.5t-146 -51.5t-145 51.5t-54 132.5z" />
    <glyph glyph-name="ldot" unicode="&#x140;" horiz-adv-x="942" 
d="M555 2048v-2048h-388v2048h388zM683 1077q0 82 54 134t145 52t146 -52.5t55 -133.5t-55 -132.5t-146 -51.5t-145 51.5t-54 132.5z" />
    <glyph glyph-name="L_slash" unicode="&#x141;" horiz-adv-x="1747" 
d="M1557 332v-332h-1263v893l-207 -60v224l207 60v931h395v-816l286 83v-226l-286 -82v-675h868z" />
    <glyph glyph-name="lslash" unicode="&#x142;" horiz-adv-x="722" 
d="M743 1324v-225l-188 -63v-1036h-388v905l-193 -65v225l193 65v918h388v-787z" />
    <glyph glyph-name="Nacute" unicode="&#x143;" horiz-adv-x="1993" 
d="M862 2145l262 424h399l-357 -424h-304zM1816 2048v-2048h-387l-840 1370h-17v-1370h-395v2048h390l838 -1373h17v1373h394z" />
    <glyph glyph-name="nacute" unicode="&#x144;" horiz-adv-x="1650" 
d="M648 1693l262 424h399l-357 -424h-304zM555 845v-845h-388v1536h364v-195h16q65 98 175 156.5t251 58.5q83 0 156.5 -20t139 -65.5t112.5 -112.5t74.5 -167.5t27.5 -225.5v-965h-389v949q0 134 -72 210.5t-185 76.5q-130 0 -206 -106t-76 -285z" />
    <glyph glyph-name="Ncommaaccent" unicode="&#x145;" horiz-adv-x="1993" 
d="M1816 2048v-2048h-387l-840 1370h-17v-1370h-395v2048h390l838 -1373h17v1373h394zM1181 -115v-194q-2 -354 -185 -560l-216 89q54 122 80.5 219.5t26.5 230.5v215h294z" />
    <glyph glyph-name="ncommaaccent" unicode="&#x146;" horiz-adv-x="1650" 
d="M555 845v-845h-388v1536h364v-195h16q65 98 175 156.5t251 58.5q83 0 156.5 -20t139 -65.5t112.5 -112.5t74.5 -167.5t27.5 -225.5v-965h-389v949q0 134 -72 210.5t-185 76.5q-130 0 -206 -106t-76 -285zM978 -120v-194q-2 -354 -185 -560l-216 89q54 122 80.5 219.5
t26.5 230.5v215h294z" />
    <glyph glyph-name="Ncaron" unicode="&#x147;" horiz-adv-x="1993" 
d="M828 2565l215 -202l214 202h317v-13l-414 -387h-236l-416 387v13h320zM1816 2048v-2048h-387l-840 1370h-17v-1370h-395v2048h390l838 -1373h17v1373h394z" />
    <glyph glyph-name="ncaron" unicode="&#x148;" horiz-adv-x="1650" 
d="M614 2113l215 -202l214 202h317v-13l-414 -387h-236l-416 387v13h320zM555 845v-845h-388v1536h364v-195h16q65 98 175 156.5t251 58.5q83 0 156.5 -20t139 -65.5t112.5 -112.5t74.5 -167.5t27.5 -225.5v-965h-389v949q0 134 -72 210.5t-185 76.5q-130 0 -206 -106
t-76 -285z" />
    <glyph glyph-name="napostrophe" unicode="&#x149;" horiz-adv-x="1650" 
d="M179 2126v-194q-2 -354 -185 -560l-216 89q54 122 80.5 219.5t26.5 230.5v215h294zM555 845v-845h-388v1536h364v-195h16q65 98 175 156.5t251 58.5q83 0 156.5 -20t139 -65.5t112.5 -112.5t74.5 -167.5t27.5 -225.5v-965h-389v949q0 134 -72 210.5t-185 76.5
q-130 0 -206 -106t-76 -285z" />
    <glyph glyph-name="Eng" unicode="&#x14a;" horiz-adv-x="1993" 
d="M1816 2048v-2122q0 -130 -44.5 -232t-122 -165.5t-177.5 -96t-217 -32.5q-127 0 -187 12v318q84 -6 111 -6q107 0 177 52t70 170v59l-837 1365h-17v-1370h-395v2048h390l838 -1373h17v1373h394z" />
    <glyph glyph-name="eng" unicode="&#x14b;" horiz-adv-x="1650" 
d="M555 845v-845h-388v1536h364v-195h16q65 98 175 156.5t251 58.5q83 0 156.5 -20t139 -65.5t112.5 -112.5t74.5 -167.5t27.5 -225.5v-1031q0 -250 -140.5 -388t-374.5 -138q-127 0 -198 17l24 317q63 -13 117 -13q183 0 183 205v1015q0 134 -72 210.5t-185 76.5
q-130 0 -206 -106t-76 -285z" />
    <glyph glyph-name="Omacron" unicode="&#x14c;" horiz-adv-x="2073" 
d="M1516 2454v-226h-948v226h948zM1938 1021q0 -244 -68.5 -443t-189 -331t-285 -203.5t-356.5 -71.5q-193 0 -358.5 71.5t-286.5 203.5t-190 331t-69 443q0 245 69 445.5t190 333t286.5 204.5t358.5 72q192 0 356.5 -72t285 -204.5t189 -333t68.5 -445.5zM1543 1021
q0 348 -137.5 523t-366.5 175q-111 0 -202.5 -42t-160.5 -125t-107.5 -218.5t-38.5 -312.5t38.5 -311.5t108 -216.5t160.5 -123t202 -41t201.5 41t159 123t106 216.5t37.5 311.5z" />
    <glyph glyph-name="omacron" unicode="&#x14d;" horiz-adv-x="1653" 
d="M1282 2002v-226h-948v226h948zM826 -29q-216 0 -379.5 101t-249.5 280.5t-86 412.5q0 234 86.5 413t249 278.5t379.5 99.5t380 -99.5t249 -278.5t86 -413q0 -233 -86 -412.5t-249 -280.5t-380 -101zM826 289q118 0 196.5 63.5t112.5 167.5t34 245t-34 245t-112.5 167.5
t-196.5 63.5q-88 0 -155 -35.5t-107.5 -100.5t-60.5 -150t-20 -190q0 -216 85 -346t258 -130z" />
    <glyph glyph-name="Obreve" unicode="&#x14e;" horiz-adv-x="2073" 
d="M1233 2554h279q0 -181 -128.5 -293.5t-344.5 -112.5q-213 0 -341 113t-128 293h277q0 -79 47 -131t145 -52q99 0 146.5 52t47.5 131zM1938 1021q0 -244 -68.5 -443t-189 -331t-285 -203.5t-356.5 -71.5q-193 0 -358.5 71.5t-286.5 203.5t-190 331t-69 443q0 245 69 445.5
t190 333t286.5 204.5t358.5 72q192 0 356.5 -72t285 -204.5t189 -333t68.5 -445.5zM1543 1021q0 348 -137.5 523t-366.5 175q-111 0 -202.5 -42t-160.5 -125t-107.5 -218.5t-38.5 -312.5t38.5 -311.5t108 -216.5t160.5 -123t202 -41t201.5 41t159 123t106 216.5t37.5 311.5z
" />
    <glyph glyph-name="obreve" unicode="&#x14f;" horiz-adv-x="1653" 
d="M999 2102h279q0 -181 -128.5 -293.5t-344.5 -112.5q-213 0 -341 113t-128 293h277q0 -79 47 -131t145 -52q99 0 146.5 52t47.5 131zM826 -29q-216 0 -379.5 101t-249.5 280.5t-86 412.5q0 234 86.5 413t249 278.5t379.5 99.5t380 -99.5t249 -278.5t86 -413
q0 -233 -86 -412.5t-249 -280.5t-380 -101zM826 289q118 0 196.5 63.5t112.5 167.5t34 245t-34 245t-112.5 167.5t-196.5 63.5q-88 0 -155 -35.5t-107.5 -100.5t-60.5 -150t-20 -190q0 -216 85 -346t258 -130z" />
    <glyph glyph-name="Ohungarumlaut" unicode="&#x150;" horiz-adv-x="2073" 
d="M1110 2153l308 416h337l-364 -416h-281zM624 2153l254 416h336l-315 -416h-275zM1938 1021q0 -244 -68.5 -443t-189 -331t-285 -203.5t-356.5 -71.5q-193 0 -358.5 71.5t-286.5 203.5t-190 331t-69 443q0 245 69 445.5t190 333t286.5 204.5t358.5 72q192 0 356.5 -72
t285 -204.5t189 -333t68.5 -445.5zM1543 1021q0 348 -137.5 523t-366.5 175q-111 0 -202.5 -42t-160.5 -125t-107.5 -218.5t-38.5 -312.5t38.5 -311.5t108 -216.5t160.5 -123t202 -41t201.5 41t159 123t106 216.5t37.5 311.5z" />
    <glyph glyph-name="ohungarumlaut" unicode="&#x151;" horiz-adv-x="1653" 
d="M876 1701l308 416h337l-364 -416h-281zM390 1701l254 416h336l-315 -416h-275zM826 -29q-216 0 -379.5 101t-249.5 280.5t-86 412.5q0 234 86.5 413t249 278.5t379.5 99.5t380 -99.5t249 -278.5t86 -413q0 -233 -86 -412.5t-249 -280.5t-380 -101zM826 289
q118 0 196.5 63.5t112.5 167.5t34 245t-34 245t-112.5 167.5t-196.5 63.5q-88 0 -155 -35.5t-107.5 -100.5t-60.5 -150t-20 -190q0 -216 85 -346t258 -130z" />
    <glyph glyph-name="OE" unicode="&#x152;" horiz-adv-x="2785" 
d="M990 2048h1582v-332h-931v-526h803v-331h-803v-527h936v-332h-1587q-243 0 -431.5 102.5t-292.5 288.5t-104 425v420q0 179 60.5 330.5t168.5 257.5t262 165t337 59zM990 315h257v1418h-257q-208 0 -323.5 -125t-115.5 -372v-420q0 -246 117 -373.5t322 -127.5z" />
    <glyph glyph-name="oe" unicode="&#x153;" horiz-adv-x="2693" 
d="M826 -29q-216 0 -379.5 101t-249.5 280.5t-86 412.5q0 234 86.5 413t249 278.5t379.5 99.5q167 0 302.5 -59.5t230.5 -170.5q95 110 231.5 170t306.5 60q118 0 221.5 -29t189 -89t147 -147t95.5 -207.5t34 -265.5v-163h-1040q19 -175 111.5 -270.5t254.5 -95.5
q233 0 310 213l348 -94q-22 -83 -71 -158t-126.5 -139t-196 -102t-261.5 -38q-360 0 -561 226q-94 -109 -227.5 -167.5t-298.5 -58.5zM826 289q118 0 196.5 63.5t112.5 167.5t34 245t-34 245t-112.5 167.5t-196.5 63.5q-88 0 -155 -35.5t-107.5 -100.5t-60.5 -150t-20 -190
q0 -216 85 -346t258 -130zM1894 1241q-133 0 -220.5 -83.5t-118.5 -235.5h661q0 140 -86.5 229.5t-235.5 89.5z" />
    <glyph glyph-name="Racute" unicode="&#x154;" horiz-adv-x="1792" 
d="M720 2145l262 424h399l-357 -424h-304zM1295 0l-380 766h-343v-766h-395v2048h755q354 0 537.5 -170.5t183.5 -465.5q0 -205 -91 -347t-253 -223l424 -842h-438zM572 1716v-619h351q168 0 253.5 79t85.5 228q0 143 -82 227.5t-248 84.5h-360z" />
    <glyph glyph-name="racute" unicode="&#x155;" horiz-adv-x="1161" 
d="M417 1693l262 424h399l-357 -424h-304zM1132 1507l-121 -337q-20 11 -60 21.5t-83 10.5q-134 0 -222.5 -99.5t-90.5 -231.5v-871h-388v1536h380v-218h22q32 112 132 175.5t219 63.5q58 0 116.5 -14t95.5 -36z" />
    <glyph glyph-name="Rcommaaccent" unicode="&#x156;" horiz-adv-x="1792" 
d="M1295 0l-380 766h-343v-766h-395v2048h755q354 0 537.5 -170.5t183.5 -465.5q0 -205 -91 -347t-253 -223l424 -842h-438zM572 1716v-619h351q168 0 253.5 79t85.5 228q0 143 -82 227.5t-248 84.5h-360zM1050 -109v-194q-2 -354 -185 -560l-216 89q54 122 80.5 219.5
t26.5 230.5v215h294z" />
    <glyph glyph-name="rcommaaccent" unicode="&#x157;" horiz-adv-x="1161" 
d="M1132 1507l-121 -337q-20 11 -60 21.5t-83 10.5q-134 0 -222.5 -99.5t-90.5 -231.5v-871h-388v1536h380v-218h22q32 112 132 175.5t219 63.5q58 0 116.5 -14t95.5 -36zM512 -120v-194q-2 -354 -185 -560l-216 89q54 122 80.5 219.5t26.5 230.5v215h294z" />
    <glyph glyph-name="Rcaron" unicode="&#x158;" horiz-adv-x="1792" 
d="M686 2565l215 -202l214 202h317v-13l-414 -387h-236l-416 387v13h320zM1295 0l-380 766h-343v-766h-395v2048h755q354 0 537.5 -170.5t183.5 -465.5q0 -205 -91 -347t-253 -223l424 -842h-438zM572 1716v-619h351q168 0 253.5 79t85.5 228q0 143 -82 227.5t-248 84.5
h-360z" />
    <glyph glyph-name="rcaron" unicode="&#x159;" horiz-adv-x="1161" 
d="M383 2113l215 -202l214 202h317v-13l-414 -387h-236l-416 387v13h320zM1132 1507l-121 -337q-20 11 -60 21.5t-83 10.5q-134 0 -222.5 -99.5t-90.5 -231.5v-871h-388v1536h380v-218h22q32 112 132 175.5t219 63.5q58 0 116.5 -14t95.5 -36z" />
    <glyph glyph-name="Sacute" unicode="&#x15a;" horiz-adv-x="1780" 
d="M723 2145l262 424h399l-357 -424h-304zM1257 1466q-13 131 -104 203.5t-250 72.5q-158 0 -256 -67t-98 -174q0 -41 18.5 -76t49 -62t82.5 -53t105.5 -47t131.5 -46l105 -34q304 -99 452.5 -241.5t148.5 -370.5q0 -183 -93 -320t-263 -209.5t-395 -72.5q-127 0 -242 25.5
t-213.5 78.5t-171 129t-114.5 183t-44 235h386q9 -154 117 -236t282 -82q172 0 270.5 76t98.5 190q0 106 -95 178.5t-324 142.5l-108 31q-128 39 -230 92.5t-179 124.5t-118.5 163.5t-41.5 200.5q0 169 96.5 300.5t265 203t379.5 71.5q320 0 521.5 -168t206.5 -442h-376z
" />
    <glyph glyph-name="sacute" unicode="&#x15b;" horiz-adv-x="1523" 
d="M592 1693l262 424h399l-357 -424h-304zM1390 1119l-353 -36q-16 79 -86 131t-178 52q-102 0 -174.5 -45.5t-72.5 -118.5q0 -118 198 -161l285 -61q412 -91 412 -415q0 -155 -90 -268.5t-241.5 -169.5t-344.5 -56q-283 0 -448 120.5t-211 343.5l371 42q27 -104 108.5 -161
t196.5 -57q111 0 186 47.5t75 114.5q0 38 -14.5 66t-43.5 45.5t-57.5 27t-71.5 19.5l-270 61q-198 47 -311.5 154.5t-113.5 282.5q0 221 177.5 350t470.5 129q522 0 601 -437z" />
    <glyph glyph-name="Scircumflex" unicode="&#x15c;" horiz-adv-x="1780" 
d="M689 2233h-320v13l416 387h236l414 -387v-13h-317l-214 202zM1257 1466q-13 131 -104 203.5t-250 72.5q-158 0 -256 -67t-98 -174q0 -41 18.5 -76t49 -62t82.5 -53t105.5 -47t131.5 -46l105 -34q304 -99 452.5 -241.5t148.5 -370.5q0 -183 -93 -320t-263 -209.5
t-395 -72.5q-127 0 -242 25.5t-213.5 78.5t-171 129t-114.5 183t-44 235h386q9 -154 117 -236t282 -82q172 0 270.5 76t98.5 190q0 106 -95 178.5t-324 142.5l-108 31q-128 39 -230 92.5t-179 124.5t-118.5 163.5t-41.5 200.5q0 169 96.5 300.5t265 203t379.5 71.5
q320 0 521.5 -168t206.5 -442h-376z" />
    <glyph glyph-name="scircumflex" unicode="&#x15d;" horiz-adv-x="1523" 
d="M558 1781h-320v13l416 387h236l414 -387v-13h-317l-214 202zM1390 1119l-353 -36q-16 79 -86 131t-178 52q-102 0 -174.5 -45.5t-72.5 -118.5q0 -118 198 -161l285 -61q412 -91 412 -415q0 -155 -90 -268.5t-241.5 -169.5t-344.5 -56q-283 0 -448 120.5t-211 343.5
l371 42q27 -104 108.5 -161t196.5 -57q111 0 186 47.5t75 114.5q0 38 -14.5 66t-43.5 45.5t-57.5 27t-71.5 19.5l-270 61q-198 47 -311.5 154.5t-113.5 282.5q0 221 177.5 350t470.5 129q522 0 601 -437z" />
    <glyph glyph-name="Scedilla" unicode="&#x15e;" horiz-adv-x="1780" 
d="M1257 1466q-13 131 -104 203.5t-250 72.5q-158 0 -256 -67t-98 -174q0 -41 18.5 -76t49 -62t82.5 -53t105.5 -47t131.5 -46l105 -34q304 -99 452.5 -241.5t148.5 -370.5q0 -242 -159 -399t-434 -193l-12 -63q87 -14 146 -71t59 -165q0 -149 -123 -237t-351 -88l-11 224
q73 0 116 27t43 85q0 56 -44.5 79t-152.5 30l39 176q-137 16 -253 64.5t-205 127t-140.5 194.5t-53.5 258h386q9 -154 117 -236t282 -82q172 0 270.5 76t98.5 190q0 106 -95 178.5t-324 142.5l-108 31q-128 39 -230 92.5t-179 124.5t-118.5 163.5t-41.5 200.5
q0 169 96.5 300.5t265 203t379.5 71.5q320 0 521.5 -168t206.5 -442h-376z" />
    <glyph glyph-name="scedilla" unicode="&#x15f;" horiz-adv-x="1523" 
d="M1390 1119l-353 -36q-16 79 -86 131t-178 52q-102 0 -174.5 -45.5t-72.5 -118.5q0 -118 198 -161l285 -61q412 -91 412 -415q0 -195 -137.5 -320t-365.5 -161l-12 -64q87 -14 146 -71t59 -165q0 -149 -123 -237t-351 -88l-11 224q73 0 116 27t43 85q0 56 -44.5 79
t-152.5 30l38 173q-228 24 -363.5 142t-176.5 316l371 42q27 -104 108.5 -161t196.5 -57q111 0 186 47.5t75 114.5q0 38 -14.5 66t-43.5 45.5t-57.5 27t-71.5 19.5l-270 61q-198 47 -311.5 154.5t-113.5 282.5q0 221 177.5 350t470.5 129q522 0 601 -437z" />
    <glyph glyph-name="Scaron" unicode="&#x160;" horiz-adv-x="1780" 
d="M689 2565l215 -202l214 202h317v-13l-414 -387h-236l-416 387v13h320zM1257 1466q-13 131 -104 203.5t-250 72.5q-158 0 -256 -67t-98 -174q0 -41 18.5 -76t49 -62t82.5 -53t105.5 -47t131.5 -46l105 -34q304 -99 452.5 -241.5t148.5 -370.5q0 -183 -93 -320t-263 -209.5
t-395 -72.5q-127 0 -242 25.5t-213.5 78.5t-171 129t-114.5 183t-44 235h386q9 -154 117 -236t282 -82q172 0 270.5 76t98.5 190q0 106 -95 178.5t-324 142.5l-108 31q-128 39 -230 92.5t-179 124.5t-118.5 163.5t-41.5 200.5q0 169 96.5 300.5t265 203t379.5 71.5
q320 0 521.5 -168t206.5 -442h-376z" />
    <glyph glyph-name="scaron" unicode="&#x161;" horiz-adv-x="1523" 
d="M558 2113l215 -202l214 202h317v-13l-414 -387h-236l-416 387v13h320zM1390 1119l-353 -36q-16 79 -86 131t-178 52q-102 0 -174.5 -45.5t-72.5 -118.5q0 -118 198 -161l285 -61q412 -91 412 -415q0 -155 -90 -268.5t-241.5 -169.5t-344.5 -56q-283 0 -448 120.5
t-211 343.5l371 42q27 -104 108.5 -161t196.5 -57q111 0 186 47.5t75 114.5q0 38 -14.5 66t-43.5 45.5t-57.5 27t-71.5 19.5l-270 61q-198 47 -311.5 154.5t-113.5 282.5q0 221 177.5 350t470.5 129q522 0 601 -437z" />
    <glyph glyph-name="Tcommaaccent" unicode="&#x162;" horiz-adv-x="1816" 
d="M1718 2048v-332h-614v-1716h-58l-12 -61q87 -14 146 -71t59 -165q0 -149 -123 -237t-351 -88l-11 224q73 0 116 27t43 85q0 56 -44.5 79t-152.5 30l39 177h-43v1716h-614v332h1620z" />
    <glyph glyph-name="tcommaaccent" unicode="&#x163;" horiz-adv-x="1033" 
d="M471 11h51q-119 46 -191.5 150t-72.5 250v837h-191v288h191v328h388v-328h268v-288h-268v-778q0 -98 40 -131t115 -33q54 0 99 12l61 -299q-74 -30 -206 -37l-10 -54q87 -14 146 -71t59 -165q0 -149 -123 -237t-351 -88l-11 224q73 0 116 27t43 85q0 56 -44.5 79
t-152.5 30z" />
    <glyph glyph-name="Tcaron" unicode="&#x164;" horiz-adv-x="1816" 
d="M686 2565l215 -202l214 202h317v-13l-414 -387h-236l-416 387v13h320zM1718 2048v-332h-614v-1716h-392v1716h-614v332h1620z" />
    <glyph glyph-name="tcaron" unicode="&#x165;" horiz-adv-x="1073" 
d="M1165 2307v-194q-2 -354 -185 -560l-216 89q54 122 80.5 219.5t26.5 230.5v215h294zM914 1536v-288h-268v-778q0 -98 40 -131t115 -33q54 0 99 12l61 -299q-32 -13 -103.5 -26t-164.5 -13q-118 0 -216 50.5t-158.5 150t-60.5 230.5v837h-191v288h191v328h388v-328h268z
" />
    <glyph glyph-name="Tbar" unicode="&#x166;" horiz-adv-x="1816" 
d="M1337 1285v-239h-233v-1046h-392v1046h-331v239h331v431h-614v332h1620v-332h-614v-431h233z" />
    <glyph glyph-name="tbar" unicode="&#x167;" horiz-adv-x="1033" 
d="M930 988v-239h-284v-279q0 -98 40 -131t115 -33q54 0 99 12l61 -299q-32 -13 -103.5 -26t-164.5 -13q-118 0 -216 50.5t-158.5 150t-60.5 230.5v338h-284v239h284v260h-191v288h191v328h388v-328h268v-288h-268v-260h284z" />
    <glyph glyph-name="Utilde" unicode="&#x168;" horiz-adv-x="1996" 
d="M1289 2565l226 -16q0 -153 -89 -258.5t-223 -105.5q-49 0 -92 12.5t-75.5 30t-63 35t-68 30t-76.5 12.5q-50 0 -83 -36t-33 -97l-230 10q0 151 89.5 259t222.5 108q49 0 101.5 -18.5t90.5 -40t88 -40t95 -18.5q51 0 85.5 36t34.5 97zM1423 2048h395v-1353
q0 -137 -39.5 -254t-112.5 -203.5t-174 -147t-225.5 -91t-266.5 -30.5q-239 0 -423.5 83t-292 249t-107.5 394v1353h395v-1342q0 -175 120.5 -277t307.5 -102t305 101.5t118 277.5v1342z" />
    <glyph glyph-name="utilde" unicode="&#x169;" horiz-adv-x="1650" 
d="M1098 2116l226 -16q0 -153 -89 -258.5t-223 -105.5q-59 0 -112.5 19t-87 41t-80.5 41t-95 19q-50 0 -83 -36t-33 -97l-230 10q0 151 89.5 259t222.5 108q49 0 101.5 -18.5t90.5 -40t88 -40t95 -18.5q51 0 85.5 36t34.5 97zM1094 684v852h389v-1536h-364v181h-16
q-67 -91 -177 -146t-249 -55q-77 0 -148.5 19.5t-138 65t-115.5 112t-78.5 168t-29.5 226.5v965h388v-954q0 -133 71.5 -207.5t185.5 -74.5q131 0 206.5 102.5t75.5 281.5z" />
    <glyph glyph-name="Umacron" unicode="&#x16a;" horiz-adv-x="1996" 
d="M1475 2454v-226h-948v226h948zM1423 2048h395v-1353q0 -137 -39.5 -254t-112.5 -203.5t-174 -147t-225.5 -91t-266.5 -30.5q-239 0 -423.5 83t-292 249t-107.5 394v1353h395v-1342q0 -175 120.5 -277t307.5 -102t305 101.5t118 277.5v1342z" />
    <glyph glyph-name="umacron" unicode="&#x16b;" horiz-adv-x="1650" 
d="M1286 2002v-226h-948v226h948zM1094 684v852h389v-1536h-364v181h-16q-67 -91 -177 -146t-249 -55q-77 0 -148.5 19.5t-138 65t-115.5 112t-78.5 168t-29.5 226.5v965h388v-954q0 -133 71.5 -207.5t185.5 -74.5q131 0 206.5 102.5t75.5 281.5z" />
    <glyph glyph-name="Ubreve" unicode="&#x16c;" horiz-adv-x="1996" 
d="M1192 2554h279q0 -181 -128.5 -293.5t-344.5 -112.5q-213 0 -341 113t-128 293h277q0 -79 47 -131t145 -52q99 0 146.5 52t47.5 131zM1423 2048h395v-1353q0 -137 -39.5 -254t-112.5 -203.5t-174 -147t-225.5 -91t-266.5 -30.5q-239 0 -423.5 83t-292 249t-107.5 394
v1353h395v-1342q0 -175 120.5 -277t307.5 -102t305 101.5t118 277.5v1342z" />
    <glyph glyph-name="ubreve" unicode="&#x16d;" horiz-adv-x="1650" 
d="M1003 2102h279q0 -181 -128.5 -293.5t-344.5 -112.5q-213 0 -341 113t-128 293h277q0 -79 47 -131t145 -52q99 0 146.5 52t47.5 131zM1094 684v852h389v-1536h-364v181h-16q-67 -91 -177 -146t-249 -55q-77 0 -148.5 19.5t-138 65t-115.5 112t-78.5 168t-29.5 226.5v965
h388v-954q0 -133 71.5 -207.5t185.5 -74.5q131 0 206.5 102.5t75.5 281.5z" />
    <glyph glyph-name="Uring" unicode="&#x16e;" horiz-adv-x="1996" 
d="M675 2439q0 125 93.5 214t232.5 89t231.5 -88.5t92.5 -214.5q0 -124 -92 -208.5t-232 -84.5t-233 84.5t-93 208.5zM841 2439q0 -65 45 -111.5t115 -46.5t114.5 46t44.5 112q0 67 -44.5 114t-114.5 47t-115 -47t-45 -114zM1423 2048h395v-1353q0 -137 -39.5 -254
t-112.5 -203.5t-174 -147t-225.5 -91t-266.5 -30.5q-239 0 -423.5 83t-292 249t-107.5 394v1353h395v-1342q0 -175 120.5 -277t307.5 -102t305 101.5t118 277.5v1342z" />
    <glyph glyph-name="uring" unicode="&#x16f;" horiz-adv-x="1650" 
d="M486 1987q0 125 93.5 214t232.5 89t231.5 -88.5t92.5 -214.5q0 -124 -92 -208.5t-232 -84.5t-233 84.5t-93 208.5zM652 1987q0 -65 45 -111.5t115 -46.5t114.5 46t44.5 112q0 67 -44.5 114t-114.5 47t-115 -47t-45 -114zM1094 684v852h389v-1536h-364v181h-16
q-67 -91 -177 -146t-249 -55q-77 0 -148.5 19.5t-138 65t-115.5 112t-78.5 168t-29.5 226.5v965h388v-954q0 -133 71.5 -207.5t185.5 -74.5q131 0 206.5 102.5t75.5 281.5z" />
    <glyph glyph-name="Uhungarumlaut" unicode="&#x170;" horiz-adv-x="1996" 
d="M1069 2153l308 416h337l-364 -416h-281zM583 2153l254 416h336l-315 -416h-275zM1423 2048h395v-1353q0 -137 -39.5 -254t-112.5 -203.5t-174 -147t-225.5 -91t-266.5 -30.5q-239 0 -423.5 83t-292 249t-107.5 394v1353h395v-1342q0 -175 120.5 -277t307.5 -102
t305 101.5t118 277.5v1342z" />
    <glyph glyph-name="uhungarumlaut" unicode="&#x171;" horiz-adv-x="1650" 
d="M880 1701l308 416h337l-364 -416h-281zM394 1701l254 416h336l-315 -416h-275zM1094 684v852h389v-1536h-364v181h-16q-67 -91 -177 -146t-249 -55q-77 0 -148.5 19.5t-138 65t-115.5 112t-78.5 168t-29.5 226.5v965h388v-954q0 -133 71.5 -207.5t185.5 -74.5
q131 0 206.5 102.5t75.5 281.5z" />
    <glyph glyph-name="Uogonek" unicode="&#x172;" horiz-adv-x="1996" 
d="M1423 2048h395v-1353q0 -281 -156.5 -463t-423.5 -239q-74 -69 -74 -149q0 -90 93 -90q15 0 28.5 1.5t25.5 5t19.5 6.5t19.5 8t16 6l40 -211q-101 -60 -227 -60q-135 0 -222.5 74t-87.5 209q0 98 50 179q-219 14 -384.5 101t-261.5 247t-96 375v1353h395v-1342
q0 -175 120.5 -277t307.5 -102t305 101.5t118 277.5v1342z" />
    <glyph glyph-name="uogonek" unicode="&#x173;" horiz-adv-x="1650" 
d="M1094 684v852h389v-1536h-116q-110 -64 -161.5 -120.5t-51.5 -126.5q0 -90 93 -90q15 0 28.5 1.5t25.5 5t19.5 6.5t19.5 8t16 6l40 -211q-101 -60 -227 -60q-135 0 -222.5 74t-87.5 209q0 220 260 357v122h-16q-67 -91 -177 -146t-249 -55q-77 0 -148.5 19.5t-138 65
t-115.5 112t-78.5 168t-29.5 226.5v965h388v-954q0 -133 71.5 -207.5t185.5 -74.5q131 0 206.5 102.5t75.5 281.5z" />
    <glyph glyph-name="Wcircumflex" unicode="&#x174;" horiz-adv-x="2824" 
d="M1197 2233h-320v13l416 387h236l414 -387v-13h-317l-214 202zM459 2048l371 -1469h17l382 1469h367l381 -1472h18l370 1472h367l-533 -2048h-403l-376 1395h-16l-376 -1395h-403l-532 2048h366z" />
    <glyph glyph-name="wcircumflex" unicode="&#x175;" horiz-adv-x="2231" 
d="M899 1781h-320v13l416 387h236l414 -387v-13h-317l-214 202zM2135 1536l-406 -1536h-327l-276 957h-24l-273 -957h-328l-405 1536h379l209 -1002h19l265 1002h293l264 -995h19l212 995h379z" />
    <glyph glyph-name="Ycircumflex" unicode="&#x176;" horiz-adv-x="2065" 
d="M817 2233h-320v13l416 387h236l414 -387v-13h-317l-214 202zM501 2048l519 -896h24l520 896h433l-767 -1248v-800h-395v800l-767 1248h433z" />
    <glyph glyph-name="ycircumflex" unicode="&#x177;" horiz-adv-x="1636" 
d="M576 1781h-320v13l416 387h236l414 -387v-13h-317l-214 202zM598 -65l29 77l-558 1524h403l338 -1012h17l337 1012h403l-649 -1765q-21 -57 -50 -107.5t-74 -99.5t-99.5 -84.5t-129 -57t-159.5 -21.5q-111 0 -213 39l88 306q57 -16 99 -18t74 8.5t57.5 38.5t45 65
t41.5 95z" />
    <glyph glyph-name="Ydieresis" unicode="&#x178;" horiz-adv-x="2065" 
d="M748 2181q-79 0 -132 51t-53 123q0 75 53 125.5t132 50.5q78 0 130 -50.5t52 -125.5q0 -72 -52 -123t-130 -51zM1318 2181q-78 0 -131 51t-53 123q0 75 52.5 125.5t131.5 50.5t130.5 -50.5t51.5 -125.5q0 -72 -52 -123t-130 -51zM501 2048l519 -896h24l520 896h433
l-767 -1248v-800h-395v800l-767 1248h433z" />
    <glyph glyph-name="Zacute" unicode="&#x179;" horiz-adv-x="1804" 
d="M723 2145l262 424h399l-357 -424h-304zM1657 332v-332h-1507v243l1018 1473h-1022v332h1507v-243l-1017 -1473h1021z" />
    <glyph glyph-name="zacute" unicode="&#x17a;" horiz-adv-x="1538" 
d="M582 1693l262 424h399l-357 -424h-304zM1388 315v-315h-1234v241l732 980h-718v315h1203v-237l-731 -984h748z" />
    <glyph glyph-name="Zdotaccent" unicode="&#x17b;" horiz-adv-x="1804" 
d="M705 2376q0 82 54 134t145 52t146 -52.5t55 -133.5t-55 -132.5t-146 -51.5t-145 51.5t-54 132.5zM1657 332v-332h-1507v243l1018 1473h-1022v332h1507v-243l-1017 -1473h1021z" />
    <glyph glyph-name="zdotaccent" unicode="&#x17c;" horiz-adv-x="1538" 
d="M564 1924q0 82 54 134t145 52t146 -52.5t55 -133.5t-55 -132.5t-146 -51.5t-145 51.5t-54 132.5zM1388 315v-315h-1234v241l732 980h-718v315h1203v-237l-731 -984h748z" />
    <glyph glyph-name="Zcaron" unicode="&#x17d;" horiz-adv-x="1804" 
d="M689 2565l215 -202l214 202h317v-13l-414 -387h-236l-416 387v13h320zM1657 332v-332h-1507v243l1018 1473h-1022v332h1507v-243l-1017 -1473h1021z" />
    <glyph glyph-name="zcaron" unicode="&#x17e;" horiz-adv-x="1538" 
d="M548 2113l215 -202l214 202h317v-13l-414 -387h-236l-416 387v13h320zM1388 315v-315h-1234v241l732 980h-718v315h1203v-237l-731 -984h748z" />
    <glyph glyph-name="longs" unicode="&#x17f;" horiz-adv-x="785" 
d="M403 0h-390v1618q0 253 142.5 387.5t401.5 134.5q89 0 215 -28l-32 -296q-60 12 -131 12q-101 0 -153.5 -54t-52.5 -156v-1618z" />
    <glyph glyph-name="bbar" unicode="&#x180;" horiz-adv-x="1795" 
d="M292 2048h388v-125h314v-239h-314v-338h18q44 89 139 149.5t237 60.5q126 0 236 -51t194.5 -148t133 -249t48.5 -341q0 -188 -47 -340t-130 -250.5t-194 -151t-240 -52.5q-142 0 -237.5 60t-139.5 149h-23v-182h-383v1684h-254v239h254v125zM1317 768q0 220 -88.5 346.5
t-256.5 126.5q-86 0 -150.5 -35.5t-102.5 -100t-56.5 -148.5t-18.5 -189q0 -104 18 -189t56 -151t102.5 -102.5t151.5 -36.5q167 0 256 129t89 350z" />
    <glyph glyph-name="Bhook" unicode="&#x181;" horiz-adv-x="2254" 
d="M1440 0h-808v1719h-71q-193 0 -193 -253v-112h-355v188q0 231 147 368.5t400 137.5h824q174 0 309 -41.5t220 -116.5t128.5 -175.5t43.5 -221.5q0 -175 -91.5 -282t-259.5 -146v-17q175 -20 289.5 -154.5t114.5 -341.5q0 -251 -179.5 -401.5t-518.5 -150.5zM1027 1716
v-535h327q168 0 255.5 68.5t87.5 200.5q0 118 -76 192t-245 74h-349zM1752 596q0 128 -83 213t-238 85h-404v-562h389q173 0 254.5 69.5t81.5 194.5z" />
    <glyph glyph-name="Btopbar" unicode="&#x182;" horiz-adv-x="1810" 
d="M1484 2048v-332h-912v-444h351q348 0 551 -170t203 -457q0 -289 -204 -467t-550 -178h-746v2048h1307zM572 322h351q169 0 266 94.5t97 232.5q0 132 -96.5 217.5t-266.5 85.5h-351v-630z" />
    <glyph glyph-name="btopbar" unicode="&#x183;" horiz-adv-x="1789" 
d="M167 2048h1181v-329h-793v-373h18q44 89 139 149.5t237 60.5q126 0 236 -51t194.5 -148t133 -249t48.5 -341q0 -188 -47 -340t-130 -250.5t-194 -151t-240 -52.5q-142 0 -237.5 60t-139.5 149h-23v-182h-383v2048zM1192 768q0 220 -88.5 346.5t-256.5 126.5
q-86 0 -150.5 -35.5t-102.5 -100t-56.5 -148.5t-18.5 -189q0 -104 18 -189t56 -151t102.5 -102.5t151.5 -36.5q167 0 256 129t89 350z" />
    <glyph glyph-name="Tonesix" unicode="&#x184;" horiz-adv-x="2115" 
d="M31 1716v332h875v-776h351q348 0 550.5 -170t202.5 -457q0 -289 -203.5 -467t-549.5 -178h-746v1716h-480zM906 322h351q169 0 266 94.5t97 232.5q0 132 -96.5 217.5t-266.5 85.5h-351v-630z" />
    <glyph glyph-name="tonesix" unicode="&#x185;" horiz-adv-x="1809" 
d="M350 2112h66v-64h320v-702h18q44 89 139 149.5t237 60.5q126 0 236 -51t194.5 -148t133 -249t48.5 -341q0 -188 -47 -340t-130 -250.5t-194 -151t-240 -52.5q-142 0 -237.5 60t-139.5 149h-23v-182h-383v1442l-249 240v185zM1373 768q0 220 -88.5 346.5t-256.5 126.5
q-86 0 -150.5 -35.5t-102.5 -100t-56.5 -148.5t-18.5 -189q0 -104 18 -189t56 -151t102.5 -102.5t151.5 -36.5q167 0 256 129t89 350z" />
    <glyph glyph-name="Oopen" unicode="&#x186;" horiz-adv-x="2004" 
d="M125 1405q74 316 302 493.5t541 177.5q195 0 361 -72.5t286.5 -206t188.5 -333t68 -443.5q0 -242 -68 -441t-188.5 -331.5t-286.5 -204.5t-361 -72q-312 0 -539 175t-302 488l387 43q44 -170 165 -259.5t289 -89.5q232 0 370.5 174t138.5 518q0 175 -38 310t-106.5 219
t-160.5 126.5t-204 42.5q-169 0 -292 -91.5t-167 -265.5z" />
    <glyph glyph-name="Chook" unicode="&#x187;" horiz-adv-x="2213" 
d="M1882 1362h-380h-4q-44 174 -167 265.5t-292 91.5q-112 0 -204 -42.5t-160.5 -126.5t-106.5 -219t-38 -310q0 -344 138.5 -518t370.5 -174q168 0 289 89.5t165 259.5l387 -43q-75 -313 -302 -488t-539 -175q-195 0 -361 72t-286.5 204.5t-188.5 331.5t-68 441
q0 244 68 443.5t188.5 333t286.5 206t361 72.5q322 0 549 -184q75 110 202 169t278 59q125 0 188 -12v-317q-6 0 -50 2.5t-62 2.5q-50 0 -94 -12.5t-83 -39.5t-62 -77t-23 -117v-188z" />
    <glyph glyph-name="chook" unicode="&#x188;" horiz-adv-x="1744" 
d="M1482 1046l-361 -54q-62 249 -295 249q-168 0 -255.5 -126.5t-87.5 -346.5q0 -223 87 -351t256 -128q113 0 186.5 60t103.5 167l363 -52q-46 -223 -221.5 -358t-431.5 -135q-218 0 -381 102t-248.5 282t-85.5 413q0 231 86 409t249 278.5t379 100.5q204 0 358 -86
q60 104 168.5 159.5t245.5 55.5q93 0 166 -20v-265q-85 11 -98 11q-90 0 -136.5 -44t-46.5 -154v-167z" />
    <glyph glyph-name="Dbar1" unicode="&#x189;" horiz-adv-x="2136" 
d="M1028 0h-695v901h-268v239h268v908h704q450 0 707 -272t257 -751q0 -480 -258.5 -752.5t-714.5 -272.5zM1021 1140v-239h-293v-559h281q298 0 447.5 168.5t149.5 514.5q0 681 -591 681h-287v-566h293z" />
    <glyph glyph-name="Dhook" unicode="&#x18a;" horiz-adv-x="2443" 
d="M1335 0h-695v1706h-79q-46 0 -81 -13.5t-56 -35t-34 -53.5t-17.5 -64.5t-4.5 -73.5v-112h-355v188q0 231 147 368.5t400 137.5h784q449 0 706.5 -272.5t257.5 -750.5q0 -480 -259 -752.5t-714 -272.5zM1322 1706h-287v-1364h281q298 0 447.5 168.5t149.5 514.5
q0 681 -591 681z" />
    <glyph glyph-name="Dtopbar" unicode="&#x18b;" horiz-adv-x="1809" 
d="M1656 0h-745q-347 0 -551 178t-204 467q0 287 203 458.5t552 171.5h341v426h-902v333h1306v-2034zM1252 326v624h-341q-171 0 -260.5 -83.5t-89.5 -217.5q0 -140 90 -231.5t260 -91.5h341z" />
    <glyph glyph-name="dtopbar" unicode="&#x18c;" horiz-adv-x="1615" 
d="M1511 0h-383v182h-21q-44 -89 -140.5 -149t-238.5 -60q-129 0 -240 52.5t-194 151t-130 250.5t-47 340q0 189 48.5 341t133 249t194.5 148t236 51q142 0 238 -60.5t140 -149.5h16v373h-818v329h1206v-2048zM486 768q0 -221 89 -350t256 -129q86 0 150.5 36.5t102.5 102.5
t56.5 151t18.5 189q0 105 -18.5 189t-56.5 148.5t-102.5 100t-150.5 35.5q-169 0 -257 -126.5t-88 -346.5z" />
    <glyph glyph-name="deltaturn" unicode="&#x18d;" horiz-adv-x="1727" 
d="M1388 -516h-1074v310h568q-28 24 -113.5 90t-133.5 105q-108 90 -187 172.5t-145.5 178t-101 200t-34.5 216.5v28q0 158 46.5 291.5t133.5 231.5t219.5 153.5t296.5 55.5q165 0 298 -52.5t221 -145.5t135 -220t47 -276v-28q0 -271 -155.5 -457.5t-403.5 -227.5
q-18 -1 -46 -1q103 -91 232 -215t197 -201v-208zM1174 756v28q0 91 -16.5 164.5t-52 132t-97 91t-145.5 32.5q-82 0 -143 -32.5t-97 -91t-53 -132.5t-17 -164v-28q0 -147 63 -260t158 -170q28 -10 82 -10q84 0 146.5 34.5t99.5 96t54.5 139t17.5 170.5z" />
    <glyph glyph-name="Eturn" unicode="&#x18e;" horiz-adv-x="1660" 
d="M138 0v332h931v526h-803v331h803v527h-936v332h1331v-2048h-1326z" />
    <glyph glyph-name="Schwa" unicode="&#x18f;" horiz-adv-x="2065" 
d="M1035 -28q-278 0 -473 115.5t-291.5 325t-96.5 498.5v221h1312q-3 94 -23.5 173.5t-63 149t-106 117.5t-157 76t-211.5 28q-279 0 -529 -85l-68 331q64 33 242 71.5t374 38.5q227 0 408 -69t298.5 -193.5t179.5 -295.5t62 -377v-198q0 -201 -66.5 -375t-181 -294.5
t-272.5 -189t-337 -68.5zM1035 324q129 0 227 64t152 170.5t68 245.5h-904v-41q0 -96 24.5 -173t77 -138t142.5 -94.5t213 -33.5z" />
    <glyph glyph-name="Epsilon1" unicode="&#x190;" horiz-adv-x="1809" 
d="M902 1180h240v-316h-240q-177 0 -262 -70t-85 -227q0 -136 97 -202.5t270 -66.5q154 0 244.5 72t90.5 186h404q0 -118 -42.5 -216.5t-114 -165.5t-167 -113.5t-200 -67.5t-215.5 -21q-137 0 -253.5 21.5t-213 68t-164.5 115t-105.5 166t-37.5 217.5q0 171 88.5 290
t254.5 177q-146 62 -228.5 173.5t-82.5 259.5q0 183 93 313t259 194.5t390 64.5q115 0 221.5 -25t195 -73.5t154.5 -116t103 -158t37 -193.5h-404q0 112 -84 174t-223 62q-171 0 -255 -68t-84 -181q0 -273 319 -273z" />
    <glyph glyph-name="Fhook" unicode="&#x191;" horiz-adv-x="1652" 
d="M1363 1190v-331h-791v-966q0 -110 -30 -194.5t-78 -135.5t-115.5 -83t-134 -44t-142.5 -12q-141 0 -185 9v305q27 -5 81 -5q209 0 209 161v2154h1323v-332h-928v-526h791z" />
    <glyph glyph-name="florin" unicode="&#x192;" horiz-adv-x="1240" 
d="M1064 1488v-283h-288v-1277q0 -256 -129.5 -392t-366.5 -136q-108 0 -194 20l20 308q50 -16 128 -16q85 0 123 54.5t38 161.5v1277h-226v283h226v130q0 252 140.5 387t388.5 135q113 0 230 -31l-41 -300q-63 13 -131 13q-100 0 -153 -51.5t-53 -152.5v-130h288z" />
    <glyph glyph-name="Ghook" unicode="&#x193;" horiz-adv-x="2274" 
d="M1886 1070v-301q0 -177 -66 -327.5t-179.5 -252.5t-268.5 -159.5t-330 -57.5q-195 0 -361.5 71.5t-287.5 203.5t-189.5 331t-68.5 443q0 245 68 445.5t188 333t284 204.5t356 72q286 0 503 -153q68 138 206.5 212.5t315.5 74.5q103 0 188 -20v-314q-93 10 -112 10
q-41 0 -74.5 -4.5t-67.5 -17.5t-57 -35t-37.5 -58.5t-14.5 -86.5v-300h-404q-52 166 -171 250.5t-275 84.5q-108 0 -197.5 -42t-158 -125t-107 -219t-38.5 -312t39 -311t109 -217t161.5 -123t202.5 -41q199 0 329.5 121t130.5 319h-429v301h813z" />
    <glyph glyph-name="Gamma1" unicode="&#x194;" horiz-adv-x="1983" 
d="M93 2018h448l450 -1083l451 1083h447l-705 -1542q33 -76 82.5 -185t78.5 -173t59 -137t43.5 -122t13.5 -82q0 -96 -36 -169t-101 -118t-149 -67.5t-184 -22.5q-101 0 -186 22.5t-151 67t-103.5 118.5t-37.5 169q0 41 26.5 116.5t60 148.5t96.5 208.5t104 229.5zM907 -212
q0 -45 20.5 -73t63.5 -28q45 0 65 28.5t20 72.5q0 81 -83 270q-46 -103 -66 -163.5t-20 -106.5z" />
    <glyph glyph-name="hv" unicode="&#x195;" horiz-adv-x="2497" 
d="M555 852v-852h-388v2048h377v-693h16q67 92 173.5 146.5t242.5 54.5q219 0 348 -149.5t129 -441.5v-365q0 -157 68.5 -230t174.5 -73q50 0 92.5 16.5t78 50.5t55.5 94.5t20 141.5v936h388v-936q0 -286 -169 -457t-465 -171t-464 171t-168 457v368q0 126 -56.5 197
t-167.5 71q-132 0 -208.5 -103.5t-76.5 -280.5z" />
    <glyph glyph-name="Iota1" unicode="&#x196;" horiz-adv-x="1041" 
d="M531 2112v-1618q0 -99 52.5 -153t153.5 -54q66 0 131 13l32 -300q-126 -28 -215 -28q-258 0 -401 135.5t-143 386.5v1618h390z" />
    <glyph glyph-name="Istroke" unicode="&#x197;" horiz-adv-x="1148" 
d="M1052 1171v-239h-285v-932h-395v932h-276v239h276v877h395v-877h285z" />
    <glyph glyph-name="Khook" unicode="&#x198;" horiz-adv-x="1971" 
d="M1420 0l-603 823l-245 -270v-553h-395v2048h395v-907h27l571 631l105 115q96 107 209.5 153.5t231.5 31.5t236 -87l-130 -285q-79 43 -138.5 28t-130.5 -93l-57 -64l-429 -463l828 -1108h-475z" />
    <glyph glyph-name="khook" unicode="&#x199;" horiz-adv-x="1560" 
d="M1119 0l-415 602l-149 -170v-432h-388v1607q0 110 30 194.5t77 135.5t114 83t133 44t141 12q127 0 202 -15v-300q-58 8 -98 8q-211 0 -211 -162v-638h20l477 567h458l-568 -656l605 -880h-428z" />
    <glyph glyph-name="lbar" unicode="&#x19a;" horiz-adv-x="1161" 
d="M1059 1247v-239h-272v-1008h-388v1008h-296v239h296v801h388v-801h272z" />
    <glyph glyph-name="lambdabar" unicode="&#x19b;" horiz-adv-x="1809" 
d="M1042 1900v-263l-46 -15l469 -1184q30 -69 62 -106.5t82 -37.5h46l2 -310q-49 -11 -146 -11q-161 0 -255 74.5t-151 231.5l-236 643l-307 -922h-421l527 1452l-22 52l-373 -126v265l271 90q-49 75 -153 75q-48 0 -78 -4l-8 292q86 27 215 27q280 0 371 -236l13 -33z" />
    <glyph glyph-name="mcapturn" unicode="&#x19c;" horiz-adv-x="2577" 
d="M2021 0l-18 162q-150 -190 -414 -190q-315 0 -428 245q-151 -245 -461 -245q-118 0 -205.5 30t-154 99.5t-100.5 191t-34 296.5v1415h388v-1415q0 -299 215 -299t291 174q-5 65 -5 125v1415h386v-1415q0 -299 217 -299q208 0 286 164v1550h389v-2004h-352z" />
    <glyph glyph-name="Nhook" unicode="&#x19d;" horiz-adv-x="1993" 
d="M1816 2048v-2048h-387l-840 1370h-17v-1477q0 -110 -30 -194.5t-78 -135.5t-115.5 -83t-134 -44t-142.5 -12q-141 0 -185 9v305q27 -5 81 -5q209 0 209 161v2154h390l838 -1373h17v1373h394z" />
    <glyph glyph-name="nlegrightlong" unicode="&#x19e;" horiz-adv-x="1644" 
d="M553 845v-845h-389v1536h364v-195h16q65 98 175 156.5t251 58.5q83 0 156.5 -20t139 -65.5t112.5 -112.5t74.5 -167.5t27.5 -225.5v-1541h-388v1525q0 134 -72 210.5t-185 76.5q-130 0 -206 -105.5t-76 -285.5z" />
    <glyph glyph-name="Obar" unicode="&#x19f;" horiz-adv-x="2073" 
d="M1938 1021q0 -244 -68.5 -443t-189 -331t-285 -203.5t-356.5 -71.5q-193 0 -358.5 71.5t-286.5 203.5t-190 331t-69 443q0 245 69 445.5t190 333t286.5 204.5t358.5 72q192 0 356.5 -72t285 -204.5t189 -333t68.5 -445.5zM1039 1719q-200 0 -334 -134.5t-166 -402.5
q104 22 197 25.5t160 -7.5t142 -25t142 -27t160.5 -13.5t197.5 15.5q-26 284 -159.5 426.5t-339.5 142.5zM1039 329q203 0 335 134.5t161 406.5q-104 -23 -197 -27.5t-160 6.5t-142 25t-142 27.5t-160.5 14.5t-198.5 -14q24 -288 159.5 -430.5t344.5 -142.5z" />
    <glyph glyph-name="Ohorn" unicode="&#x1a0;" horiz-adv-x="2126" 
d="M1938 1021q0 -244 -68.5 -443t-189 -331t-285 -203.5t-356.5 -71.5q-193 0 -358.5 71.5t-286.5 203.5t-190 331t-69 443q0 245 69 445.5t190 333t286.5 204.5t358.5 72q197 0 364 -74t288 -215q79 34 113.5 126.5t34.5 244.5h263q0 -447 -285 -564q121 -244 121 -573z
M1543 1021q0 348 -137.5 523t-366.5 175q-111 0 -202.5 -42t-160.5 -125t-107.5 -218.5t-38.5 -312.5t38.5 -311.5t108 -216.5t160.5 -123t202 -41t201.5 41t159 123t106 216.5t37.5 311.5z" />
    <glyph glyph-name="ohorn" unicode="&#x1a1;" horiz-adv-x="1727" 
d="M826 -29q-216 0 -379.5 101t-249.5 280.5t-86 412.5q0 234 86.5 413t249 278.5t379.5 99.5q175 0 315 -65t234 -185q59 38 82 117.5t23 206.5h242q0 -380 -252 -486q71 -170 71 -379q0 -233 -86 -412.5t-249 -280.5t-380 -101zM826 289q118 0 196.5 63.5t112.5 167.5
t34 245t-34 245t-112.5 167.5t-196.5 63.5q-88 0 -155 -35.5t-107.5 -100.5t-60.5 -150t-20 -190q0 -216 85 -346t258 -130z" />
    <glyph glyph-name="OI" unicode="&#x1a2;" horiz-adv-x="2495" 
d="M2353 2004v-2576h-387v2119l-204 -89v-1200q-31 -38 -71 -73.5t-107.5 -75.5t-146.5 -69t-191.5 -48.5t-239.5 -19.5q-192 0 -351 64.5t-273 186t-177.5 305t-63.5 412.5v124q0 227 63 410t177 305t273.5 187.5t351.5 65.5q427 0 671 -201l383 173h293zM1025 1705
q-474 0 -474 -641v-124q0 -308 120 -475t358 -167q228 0 344 106v1195q-114 106 -348 106z" />
    <glyph glyph-name="oi" unicode="&#x1a3;" horiz-adv-x="1983" 
d="M1884 1488v-2060h-389v1612l-143 -64v-715q-186 -289 -566 -289q-136 0 -248.5 38t-192.5 106t-135.5 162t-82 206.5t-26.5 239.5v40q0 159 43 294t126 238t215.5 161.5t300.5 58.5q144 0 263.5 -53t205.5 -139l359 164h270zM780 287q118 0 181 63v776q-67 78 -183 78
q-69 0 -121 -24.5t-83.5 -64.5t-51 -98.5t-26.5 -119t-7 -133.5v-40q0 -100 15 -177t48 -137t90.5 -91.5t137.5 -31.5z" />
    <glyph glyph-name="Phook" unicode="&#x1a4;" horiz-adv-x="2247" 
d="M1391 716h-364v-716h-395v1719h-71q-193 0 -193 -253v-112h-355v188q0 231 147 368.5t400 137.5h830q187 0 326.5 -48.5t224.5 -138.5t126 -210t41 -270q0 -152 -42 -272.5t-128 -209t-224.5 -136t-322.5 -47.5zM1027 1716v-672h364q88 0 152.5 25.5t101.5 72.5t54.5 106
t17.5 133q0 153 -78 244t-249 91h-363z" />
    <glyph glyph-name="phook" unicode="&#x1a5;" horiz-adv-x="1672" 
d="M167 -576v2112q6 399 476 399q116 0 202 -23v-281q-62 19 -125 19q-141 0 -170 -114v-190h23q44 89 139 149.5t237 60.5q126 0 236 -51t194.5 -148t133 -249t48.5 -341q0 -188 -47 -340t-130 -250.5t-194 -151t-240 -52.5q-142 0 -237.5 60t-139.5 149h-18v-758h-388z
M1192 768q0 220 -88.5 346.5t-256.5 126.5q-86 0 -150.5 -35.5t-102.5 -100t-56.5 -148.5t-18.5 -189q0 -104 18 -189t56 -151t102.5 -102.5t151.5 -36.5q167 0 256 129t89 350z" />
    <glyph glyph-name="YR" unicode="&#x1a6;" horiz-adv-x="2065" 
d="M1503 -485l-630 1225h-335v-740h-408v2004h3v140h405v-140h334q347 0 541.5 -157t194.5 -450q0 -398 -359 -557l685 -1306v-19h-431zM538 1674v-608h334q161 0 247 81.5t86 219.5q0 145 -83.5 226t-249.5 81h-334z" />
    <glyph glyph-name="Tonetwo" unicode="&#x1a7;" horiz-adv-x="1809" 
d="M546 524q0 -105 80 -168.5t237 -63.5q92 0 163.5 18.5t125.5 58t83 105t29 154.5h406q0 -130 -46 -239.5t-124 -185.5t-182 -129t-219 -77.5t-236 -24.5q-332 0 -527 148.5t-195 407.5q0 240 162.5 393.5t501.5 254.5q205 62 302.5 130t97.5 164q0 105 -84 171.5
t-241 66.5q-166 0 -251.5 -79.5t-85.5 -215.5h-402q0 133 52.5 247t146.5 196.5t232 129t303 46.5q214 0 381 -70t260.5 -197.5t93.5 -292.5q0 -100 -35.5 -186t-93.5 -149.5t-147 -119.5t-181.5 -95.5t-211.5 -77.5q-164 -51 -249.5 -98t-115.5 -96.5t-30 -125.5z" />
    <glyph glyph-name="tonetwo" unicode="&#x1a8;" horiz-adv-x="1553" 
d="M524 412q0 -72 62 -116t174 -44q118 0 195.5 54.5t82.5 166.5h371q0 -92 -42.5 -180t-120.5 -160.5t-203 -116.5t-275 -44q-280 0 -451.5 128t-171.5 328q0 86 28 154.5t75 117t120.5 86.5t153 62.5t183.5 45.5q157 30 219 70.5t62 108.5q0 72 -57.5 119t-157.5 47
q-113 0 -172 -56.5t-59 -145.5h-390q0 210 169 344.5t452 134.5q135 0 247.5 -37.5t187 -101t115.5 -147t41 -176.5q0 -337 -531 -448q-124 -26 -192 -55.5t-91.5 -61t-23.5 -77.5z" />
    <glyph glyph-name="Esh" unicode="&#x1a9;" horiz-adv-x="1809" 
d="M1225 1028v-22l-484 -673h868v-333h-1419v211l608 804l-608 807v212h1385v-335h-833z" />
    <glyph glyph-name="eshlooprev" unicode="&#x1aa;" horiz-adv-x="1727" 
d="M167 1619q0 148 72.5 274t198 199.5t273.5 73.5t274 -73.5t199.5 -199.5t73.5 -274v-1658q0 -230 187 -230q57 0 115 12v-309q-81 -21 -196 -21q-237 0 -366.5 141.5t-129.5 406.5v1137q-77 -23 -157 -23q-148 0 -273.5 73t-198 198t-72.5 273zM714 1411q86 0 141.5 54.5
t55.5 157.5q0 99 -56 154t-141 55q-92 0 -148 -54.5t-56 -154.5q0 -104 56 -158t148 -54z" />
    <glyph glyph-name="tpalatalhook" unicode="&#x1ab;" horiz-adv-x="1035" 
d="M914 1536v-288h-268v-778q0 -98 40 -131t115 -33q14 0 40 2l120 25v-440q0 -221 -120.5 -343.5t-325.5 -122.5q-103 0 -168 17v265q66 -8 100 -8q46 0 84 9t73 29t55 59.5t20 94.5v87q-115 4 -209.5 55t-153 149.5t-58.5 226.5v837h-191v288h191v328h388v-328h268z" />
    <glyph glyph-name="Thook" unicode="&#x1ac;" horiz-adv-x="2043" 
d="M1955 2048v-332h-614v-1716h-395v1716h-397q-195 0 -195 -244v-111h-330v182q0 235 137.5 370t387.5 135h1406z" />
    <glyph glyph-name="thook" unicode="&#x1ad;" horiz-adv-x="1215" 
d="M1006 1488v-283h-256v-744q0 -94 37.5 -130.5t116.5 -36.5q42 0 117 10v-296q-102 -36 -240 -36q-199 0 -308.5 109t-109.5 342v782h-222v283h222v210q0 80 16 147t43.5 114.5t67.5 84.5t83.5 59.5t96 37t101.5 20t103 5.5q115 0 201 -23v-260q-48 12 -98 12
q-45 0 -83 -9.5t-71.5 -31t-53 -61.5t-19.5 -95v-210h256z" />
    <glyph glyph-name="Trthook" unicode="&#x1ae;" horiz-adv-x="1816" 
d="M1716 2048v-332h-615v-1823q0 -157 216 -157h81v-312h-185q-76 0 -143 11.5t-135 44t-116.5 83t-79 135t-30.5 194.5v1824h-614v332h1621z" />
    <glyph glyph-name="Uhorn" unicode="&#x1af;" horiz-adv-x="2322" 
d="M1423 2048h395v-323q43 11 75 29.5t53.5 47t35.5 60.5t21.5 77t10 89t2.5 103h262q0 -141 -23.5 -246.5t-76 -188t-142.5 -131.5t-218 -65v-805q0 -137 -39.5 -254t-112.5 -203.5t-174 -147t-225.5 -91t-266.5 -30.5q-239 0 -423.5 83t-292 249t-107.5 394v1353h395
v-1342q0 -175 120.5 -277t307.5 -102t305 101.5t118 277.5v1342z" />
    <glyph glyph-name="uhorn" unicode="&#x1b0;" horiz-adv-x="1842" 
d="M1094 684v852h389v-226q43 15 69.5 40.5t40 67.5t17.5 86t4 114h235q0 -226 -83.5 -348.5t-282.5 -154.5v-1115h-364v181h-16q-67 -91 -177 -146t-249 -55q-77 0 -148.5 19.5t-138 65t-115.5 112t-78.5 168t-29.5 226.5v965h388v-954q0 -133 71.5 -207.5t185.5 -74.5
q131 0 206.5 102.5t75.5 281.5z" />
    <glyph glyph-name="Upsilon2" unicode="&#x1b1;" horiz-adv-x="1809" 
d="M560 939v-122q0 -251 92 -383.5t256 -132.5q161 0 251.5 132.5t90.5 383.5v122q0 624 -278 728v337h704v-330h-300q147 -133 234.5 -325t87.5 -410v-118q0 -246 -99.5 -439.5t-279.5 -301.5t-411 -108q-232 0 -413.5 108t-281.5 301.5t-100 439.5v118q0 217 87.5 409.5
t233.5 325.5h-298v330h692v-337q-125 -50 -196.5 -228t-71.5 -500z" />
    <glyph glyph-name="Vcursive" unicode="&#x1b2;" horiz-adv-x="1809" 
d="M907 -28q-168 0 -308 46t-242.5 134t-159 223.5t-56.5 305.5v1323h404v-1323q0 -383 362 -383q357 0 357 383v800q0 123 -43.5 168.5t-146.5 45.5q-69 0 -115 -10v320q85 24 194 24q242 0 380.5 -142.5t138.5 -405.5v-800q0 -170 -57.5 -305.5t-160 -223t-242 -134
t-305.5 -46.5z" />
    <glyph glyph-name="Yhook" unicode="&#x1b3;" horiz-adv-x="2127" 
d="M501 2048l519 -896h24l312 538l60 105q60 105 140.5 171t169 89t179 15.5t182.5 -43.5l-86 -301q-94 33 -157 6.5t-120 -125.5l-38 -63l-456 -744v-800h-395v800l-767 1248h433z" />
    <glyph glyph-name="yhook" unicode="&#x1b4;" horiz-adv-x="1672" 
d="M584 -60l29 93l-544 1503h405l310 -938l249 787l34 105q48 145 141 246.5t239 132.5q60 15 121 15.5t104.5 -8t99.5 -24.5l-37 -298q-5 2 -19.5 6.5t-19.5 5.5t-16 4t-17.5 3.5t-16.5 1.5t-19 -0.5t-19 -3.5q-67 -12 -109.5 -66.5t-77.5 -163.5l-20 -59l-485 -1505
q-19 -56 -49 -108t-76.5 -101.5t-103.5 -86t-133.5 -59t-162.5 -22.5q-101 0 -186 25v310q29 -5 78 -5q124 0 194.5 48.5t106.5 161.5z" />
    <glyph glyph-name="Zbar" unicode="&#x1b5;" horiz-adv-x="1804" 
d="M1657 332v-332h-1507v243l455 658h-189v239h354l398 576h-1022v332h1507v-243l-459 -665h178v-239h-343l-393 -569h1021z" />
    <glyph glyph-name="zbar" unicode="&#x1b6;" horiz-adv-x="1538" 
d="M1388 315v-315h-1234v241l313 419h-175v239h353l241 322h-718v315h1203v-237l-297 -400h174v-239h-352l-256 -345h748z" />
    <glyph glyph-name="Ezh" unicode="&#x1b7;" horiz-adv-x="1983" 
d="M177 100h405q20 -190 112.5 -277.5t286.5 -87.5q223 0 323 128.5t100 402.5q0 294 -104 420t-327 126h-360v236l549 626h-971v330h1486v-231l-567 -656q327 -38 512.5 -256.5t185.5 -594.5q0 -413 -221 -635t-606 -222q-180 0 -327.5 51.5t-247.5 143.5t-158.5 218
t-70.5 278z" />
    <glyph glyph-name="Ezhreversed" unicode="&#x1b8;" horiz-adv-x="2065" 
d="M1443 100h403q-11 -152 -69.5 -278t-158.5 -218t-247 -143.5t-328 -51.5q-385 0 -606 222t-221 635q0 377 188 596t518 256l-566 655v231h1476v-330h-962l546 -626v-236h-364q-224 0 -328 -126t-104 -420q0 -274 100.5 -402.5t322.5 -128.5q195 0 287 87.5t113 277.5z
" />
    <glyph glyph-name="ezhreversed" unicode="&#x1b9;" horiz-adv-x="1809" 
d="M242 1488h1299v-312h-844l466 -498v-252h-188q-196 0 -293.5 -88.5t-97.5 -286.5q0 -123 90.5 -203t245.5 -80q137 0 221.5 78.5t84.5 193.5h389q0 -119 -39.5 -217t-106.5 -165t-157 -113.5t-188.5 -67.5t-203.5 -21q-211 0 -374.5 68.5t-257.5 203t-94 316.5
q0 265 140 428t400 206l-495 555z" />
    <glyph glyph-name="ezhtail" unicode="&#x1ba;" horiz-adv-x="1553" 
d="M512 -162q0 -75 64 -116.5t173 -41.5q53 0 99 11.5t86.5 35.5t65 68.5t26.5 104.5h370q0 -92 -42.5 -180.5t-120.5 -160t-202 -115.5t-274 -44q-281 0 -452.5 127.5t-171.5 327.5q0 189 135 297.5t411 162.5q168 34 231.5 72.5t63.5 113.5q0 71 -56.5 111.5t-159.5 40.5
h-310v229l352 294h-595v312h1205v-222l-414 -368q166 -49 259 -161t93 -255q0 -79 -28.5 -145.5t-76.5 -114t-118 -85.5t-144.5 -62.5t-164.5 -43.5q-120 -26 -188.5 -56.5t-92 -62t-23.5 -74.5z" />
    <glyph glyph-name="twostroke" unicode="&#x1bb;" horiz-adv-x="1691" 
d="M1540 332v-332h-1397v286l610 615h-168v239h387q138 179 138 324q0 125 -79 212t-210 87q-141 0 -215.5 -104.5t-74.5 -264.5h-380q0 137 45.5 259.5t129 217t214 150t289.5 55.5q190 0 340 -76t233.5 -212.5t83.5 -310.5q0 -165 -93 -337h148v-239h-316
q-79 -95 -177 -195l-354 -362v-12h846z" />
    <glyph glyph-name="Tonefive" unicode="&#x1bc;" horiz-adv-x="1778" 
d="M633 926l-315 77l80 695h-282v320h319l3 30h1132v-337h-815l-60 -501h9q42 47 127.5 82t193.5 35q178 0 318.5 -83t220 -235t79.5 -347q0 -141 -44 -264.5t-127.5 -219t-217.5 -151t-302 -55.5q-298 0 -480 171t-190 451h379q17 -139 88 -224t206 -85q148 0 230.5 108
t82.5 270q0 180 -91 277.5t-250 97.5q-182 0 -294 -112z" />
    <glyph glyph-name="tonefive" unicode="&#x1bd;" horiz-adv-x="1727" 
d="M684 637l-350 17l67 522h-227v312h1281v-312h-695l-37 -262q49 29 130 49.5t166 21.5q253 2 393 -129.5t140 -370.5q0 -112 -36.5 -203t-111 -160.5t-198 -107.5t-288.5 -38q-98 0 -190 17t-175.5 53.5t-145 90t-98 131t-36.5 171.5l383 21q7 -81 76 -124.5t186 -43.5
q124 0 186 57.5t62 157.5q0 97 -66 154.5t-185 57.5q-162 0 -231 -82z" />
    <glyph glyph-name="glottalstopbarinv" unicode="&#x1be;" horiz-adv-x="1553" 
d="M1030 412q0 47 -27.5 85t-72 67.5t-98.5 60t-107.5 72.5t-98 95.5t-72 137.5t-27.5 190v85h-219v283h219v367h390v-367h256v-283h-256v-88q0 -76 27 -133t70.5 -92t96 -65t105 -62t96 -72.5t70.5 -107.5t27 -157q0 -200 -170.5 -328t-450.5 -128q-151 0 -276 44
t-203.5 116.5t-121 160.5t-42.5 180h371q3 -60 28 -104.5t65 -69t86.5 -36t98.5 -11.5q110 0 173 43t63 117z" />
    <glyph glyph-name="wynn" unicode="&#x1bf;" horiz-adv-x="1809" 
d="M1573 731q0 -139 -30 -256.5t-90 -210t-140 -167.5t-190.5 -136t-229 -107t-267.5 -89v-337h-390v2060h363l14 -145q142 173 379 173q185 0 317 -95t198 -264t66 -396v-30zM889 1201q-190 0 -263 -151v-977q262 71 409.5 235t147.5 423v30q0 96 -16.5 174t-50.5 138.5
t-92 94t-135 33.5z" />
    <glyph glyph-name="pipe" unicode="&#x1c0;" horiz-adv-x="783" 
d="M511 2018v-2018h-239v2018h239z" />
    <glyph glyph-name="pipedbl" unicode="&#x1c1;" horiz-adv-x="1041" 
d="M449 2018v-2018h-239v2018h239zM821 2018v-2018h-239v2018h239z" />
    <glyph glyph-name="pipedblbar" unicode="&#x1c2;" horiz-adv-x="1261" 
d="M1109 851v-239h-359v-612h-239v612h-358v239h358v397h-358v239h358v531h239v-531h359v-239h-359v-397h359z" />
    <glyph glyph-name="exclam1" unicode="&#x1c3;" horiz-adv-x="785" 
d="M589 2048l-44 -1431h-319l-45 1431h408zM382 -27q-100 0 -163.5 62.5t-63.5 157.5q0 94 63.5 157t163.5 63t165.5 -63t65.5 -157t-65.5 -157t-165.5 -63z" />
    <glyph glyph-name="Dzcaron_" unicode="&#x1c5;" horiz-adv-x="3308" 
d="M872 0h-695v2048h704q450 0 707 -272t257 -751q0 -480 -258.5 -752.5t-714.5 -272.5zM2337 2048l215 -202l214 202h317v-13l-414 -387h-236l-416 387v13h320zM859 1706h-287v-1364h281q298 0 447.5 168.5t149.5 514.5q0 681 -591 681zM3159 315v-315h-1234v241l732 980
h-718v315h1203v-237l-731 -984h748z" />
    <glyph glyph-name="dzcaron" unicode="&#x1c6;" horiz-adv-x="2975" 
d="M1505 0h-383v182h-21q-44 -89 -140 -149t-238 -60q-130 0 -241 52.5t-194 151t-130 250.5t-47 340q0 189 48.5 341t133 249t194.5 148t237 51q142 0 237.5 -60.5t139.5 -149.5h16v702h388v-2048zM2024 2048l215 -202l214 202h317v-13l-414 -387h-236l-416 387v13h320z
M2825 315v-315h-1234v241l732 980h-718v315h1203v-237l-731 -984h748zM481 768q0 -221 88.5 -350t255.5 -129q87 0 151.5 36.5t102.5 102.5t56.5 151t18.5 189q0 141 -32 244t-107 166t-190 63q-168 0 -256 -126.5t-88 -346.5z" />
    <glyph glyph-name="LJ" unicode="&#x1c7;" horiz-adv-x="3381" 
d="M1696 332v-332h-1263v2048h395v-1716h868zM2819 614v1434h392v-1434q0 -196 -85 -342.5t-233.5 -223t-339.5 -76.5q-141 0 -259.5 38.5t-206.5 112.5t-137.5 189.5t-49.5 262.5h392q2 -132 75 -206t191 -74q116 0 188.5 80.5t72.5 238.5z" />
    <glyph glyph-name="Lj" unicode="&#x1c8;" horiz-adv-x="2687" 
d="M2319 1664q-94 0 -158.5 60.5t-64.5 145.5q0 84 65 145t158 61t156 -61t63 -145q0 -86 -63 -146t-156 -60zM1696 332v-332h-1263v2048h395v-1716h868zM2124 1536h388v-1604q0 -251 -148.5 -381.5t-402.5 -130.5h-130v315h79q119 0 166.5 52.5t47.5 149.5v1599z" />
    <glyph glyph-name="lj" unicode="&#x1c9;" horiz-adv-x="1836" 
d="M1468 1664q-94 0 -158.5 60.5t-64.5 145.5q0 84 65 145t158 61t156 -61t63 -145q0 -86 -63 -146t-156 -60zM811 2048v-2048h-388v2048h388zM1273 1536h388v-1604q0 -251 -148.5 -381.5t-402.5 -130.5h-130v315h79q119 0 166.5 52.5t47.5 149.5v1599z" />
    <glyph glyph-name="NJ" unicode="&#x1ca;" horiz-adv-x="3801" 
d="M2072 2048v-2048h-387l-840 1370h-17v-1370h-395v2048h390l838 -1373h17v1373h394zM3239 614v1434h392v-1434q0 -196 -85 -342.5t-233.5 -223t-339.5 -76.5q-141 0 -259.5 38.5t-206.5 112.5t-137.5 189.5t-49.5 262.5h392q2 -132 75 -206t191 -74q116 0 188.5 80.5
t72.5 238.5z" />
    <glyph glyph-name="Nj" unicode="&#x1cb;" horiz-adv-x="3107" 
d="M2739 1664q-94 0 -158.5 60.5t-64.5 145.5q0 84 65 145t158 61t156 -61t63 -145q0 -86 -63 -146t-156 -60zM2072 2048v-2048h-387l-840 1370h-17v-1370h-395v2048h390l838 -1373h17v1373h394zM2544 1536h388v-1604q0 -251 -148.5 -381.5t-402.5 -130.5h-130v315h79
q119 0 166.5 52.5t47.5 149.5v1599z" />
    <glyph glyph-name="nj" unicode="&#x1cc;" horiz-adv-x="2764" 
d="M2396 1664q-94 0 -158.5 60.5t-64.5 145.5q0 84 65 145t158 61t156 -61t63 -145q0 -86 -63 -146t-156 -60zM811 845v-845h-388v1536h364v-195h16q65 98 175 156.5t251 58.5q83 0 156.5 -20t139 -65.5t112.5 -112.5t74.5 -167.5t27.5 -225.5v-965h-389v949
q0 134 -72 210.5t-185 76.5q-130 0 -206 -106t-76 -285zM2201 1536h388v-1604q0 -251 -148.5 -381.5t-402.5 -130.5h-130v315h79q119 0 166.5 52.5t47.5 149.5v1599z" />
    <glyph glyph-name="Acaron" unicode="&#x1cd;" horiz-adv-x="2084" 
d="M827 2565l215 -202l214 202h317v-13l-414 -387h-236l-416 387v13h320zM501 0h-424l755 2048h419l755 -2048h-423l-149 436h-784zM1030 1550l-270 -790h564l-270 790h-24z" />
    <glyph glyph-name="acaron" unicode="&#x1ce;" horiz-adv-x="1564" 
d="M573 2113l215 -202l214 202h317v-13l-414 -387h-236l-416 387v13h320zM1022 0v173h-18q-46 -85 -145 -144.5t-248 -59.5q-138 0 -250.5 53t-181 160t-68.5 251q0 425 618 482q148 16 179 23q96 23 97 78v23q0 102 -59.5 158t-162.5 56q-104 0 -179 -52.5t-97 -133.5
l-365 53q52 209 226.5 322.5t424.5 113.5q95 0 180 -17t163.5 -56t135.5 -98t90.5 -150t33.5 -204v-1031h-374zM1005 512v203q-31 -34 -239 -61q-141 -16 -209 -67t-68 -149q0 -81 59 -128t156 -47q127 0 214 73.5t87 175.5z" />
    <glyph glyph-name="Icaron" unicode="&#x1cf;" horiz-adv-x="749" 
d="M155 2565l215 -202l214 202h317v-13l-414 -387h-236l-416 387v13h320zM572 2048v-2048h-395v2048h395z" />
    <glyph glyph-name="icaron" unicode="&#x1d0;" horiz-adv-x="744" 
d="M162 2093l215 -202l214 202h317v-13l-414 -387h-236l-416 387v13h320zM566 1536v-1536h-388v1536h388z" />
    <glyph glyph-name="Ocaron" unicode="&#x1d1;" horiz-adv-x="2073" 
d="M824 2565l215 -202l214 202h317v-13l-414 -387h-236l-416 387v13h320zM1938 1021q0 -244 -68.5 -443t-189 -331t-285 -203.5t-356.5 -71.5q-193 0 -358.5 71.5t-286.5 203.5t-190 331t-69 443q0 245 69 445.5t190 333t286.5 204.5t358.5 72q192 0 356.5 -72t285 -204.5
t189 -333t68.5 -445.5zM1543 1021q0 348 -137.5 523t-366.5 175q-111 0 -202.5 -42t-160.5 -125t-107.5 -218.5t-38.5 -312.5t38.5 -311.5t108 -216.5t160.5 -123t202 -41t201.5 41t159 123t106 216.5t37.5 311.5z" />
    <glyph glyph-name="ocaron" unicode="&#x1d2;" horiz-adv-x="1653" 
d="M590 2113l215 -202l214 202h317v-13l-414 -387h-236l-416 387v13h320zM826 -29q-216 0 -379.5 101t-249.5 280.5t-86 412.5q0 234 86.5 413t249 278.5t379.5 99.5t380 -99.5t249 -278.5t86 -413q0 -233 -86 -412.5t-249 -280.5t-380 -101zM826 289q118 0 196.5 63.5
t112.5 167.5t34 245t-34 245t-112.5 167.5t-196.5 63.5q-88 0 -155 -35.5t-107.5 -100.5t-60.5 -150t-20 -190q0 -216 85 -346t258 -130z" />
    <glyph glyph-name="Ucaron" unicode="&#x1d3;" horiz-adv-x="1996" 
d="M783 2565l215 -202l214 202h317v-13l-414 -387h-236l-416 387v13h320zM1423 2048h395v-1353q0 -137 -39.5 -254t-112.5 -203.5t-174 -147t-225.5 -91t-266.5 -30.5q-239 0 -423.5 83t-292 249t-107.5 394v1353h395v-1342q0 -175 120.5 -277t307.5 -102t305 101.5
t118 277.5v1342z" />
    <glyph glyph-name="ucaron" unicode="&#x1d4;" horiz-adv-x="1650" 
d="M594 2113l215 -202l214 202h317v-13l-414 -387h-236l-416 387v13h320zM1094 684v852h389v-1536h-364v181h-16q-67 -91 -177 -146t-249 -55q-77 0 -148.5 19.5t-138 65t-115.5 112t-78.5 168t-29.5 226.5v965h388v-954q0 -133 71.5 -207.5t185.5 -74.5q131 0 206.5 102.5
t75.5 281.5z" />
    <glyph glyph-name="Udieresismacron" unicode="&#x1d5;" horiz-adv-x="1996" 
d="M1472 2846v-228h-949v228h949zM514 2336q0 69 50 115t132 46q83 0 133.5 -46t50.5 -115t-50.5 -114.5t-133.5 -45.5q-82 0 -132 45.5t-50 114.5zM1115 2336q0 69 50 114.5t133 45.5t133 -45.5t50 -114.5q0 -70 -50 -115.5t-133 -45.5t-133 45.5t-50 115.5zM1423 2048h395
v-1353q0 -137 -39.5 -254t-112.5 -203.5t-174 -147t-225.5 -91t-266.5 -30.5q-239 0 -423.5 83t-292 249t-107.5 394v1353h395v-1342q0 -175 120.5 -277t307.5 -102t305 101.5t118 277.5v1342z" />
    <glyph glyph-name="udieresismacron" unicode="&#x1d6;" horiz-adv-x="1650" 
d="M1286 2432v-228h-949v228h949zM288 1885q0 73 53 123t135 50t135 -50t53 -123t-53 -122.5t-135 -49.5t-135 49.5t-53 122.5zM953 1884q0 74 53 123.5t135 49.5t135 -50t53 -123t-53 -122.5t-135 -49.5t-135 49t-53 123zM1094 684v852h389v-1536h-364v181h-16
q-67 -91 -177 -146t-249 -55q-77 0 -148.5 19.5t-138 65t-115.5 112t-78.5 168t-29.5 226.5v965h388v-954q0 -133 71.5 -207.5t185.5 -74.5q131 0 206.5 102.5t75.5 281.5z" />
    <glyph glyph-name="Udieresisacute" unicode="&#x1d7;" horiz-adv-x="1996" 
d="M879 2488l176 272h284l-248 -272h-212zM1156 2282q-21 49 1 96.5t80 66.5q59 22 111 4.5t72 -65.5q23 -47 1 -94t-81 -69q-60 -20 -111 -3.5t-73 64.5zM580 2282q-21 49 1 96.5t79 66.5q59 22 111.5 4.5t72.5 -65.5q23 -47 0 -94t-82 -69q-58 -20 -109 -3.5t-73 64.5z
M1423 2048h395v-1353q0 -137 -39.5 -254t-112.5 -203.5t-174 -147t-225.5 -91t-266.5 -30.5q-239 0 -423.5 83t-292 249t-107.5 394v1353h395v-1342q0 -175 120.5 -277t307.5 -102t305 101.5t118 277.5v1342z" />
    <glyph glyph-name="udieresisacute" unicode="&#x1d8;" horiz-adv-x="1650" 
d="M621 2122l270 424h427l-382 -424h-315zM288 1885q0 73 53 123t135 50t135 -50t53 -123t-53 -122.5t-135 -49.5t-135 49.5t-53 122.5zM953 1884q0 74 53 123.5t135 49.5t135 -50t53 -123t-53 -122.5t-135 -49.5t-135 49t-53 123zM1094 684v852h389v-1536h-364v181h-16
q-67 -91 -177 -146t-249 -55q-77 0 -148.5 19.5t-138 65t-115.5 112t-78.5 168t-29.5 226.5v965h388v-954q0 -133 71.5 -207.5t185.5 -74.5q131 0 206.5 102.5t75.5 281.5z" />
    <glyph glyph-name="Udieresiscaron" unicode="&#x1d9;" horiz-adv-x="1996" 
d="M815 2853l183 -158l183 158h332v-23l-383 -314h-264l-383 314v23h332zM514 2336q0 69 50 115t132 46q83 0 133.5 -46t50.5 -115t-50.5 -114.5t-133.5 -45.5q-82 0 -132 45.5t-50 114.5zM1115 2336q0 69 50 114.5t133 45.5t133 -45.5t50 -114.5q0 -70 -50 -115.5
t-133 -45.5t-133 45.5t-50 115.5zM1423 2048h395v-1353q0 -137 -39.5 -254t-112.5 -203.5t-174 -147t-225.5 -91t-266.5 -30.5q-239 0 -423.5 83t-292 249t-107.5 394v1353h395v-1342q0 -175 120.5 -277t307.5 -102t305 101.5t118 277.5v1342z" />
    <glyph glyph-name="udieresiscaron" unicode="&#x1da;" horiz-adv-x="1650" 
d="M607 2548l201 -199l202 199h332v-15l-411 -386h-246l-411 388v13h333zM288 1885q0 73 53 123t135 50t135 -50t53 -123t-53 -122.5t-135 -49.5t-135 49.5t-53 122.5zM953 1884q0 74 53 123.5t135 49.5t135 -50t53 -123t-53 -122.5t-135 -49.5t-135 49t-53 123zM1094 684
v852h389v-1536h-364v181h-16q-67 -91 -177 -146t-249 -55q-77 0 -148.5 19.5t-138 65t-115.5 112t-78.5 168t-29.5 226.5v965h388v-954q0 -133 71.5 -207.5t185.5 -74.5q131 0 206.5 102.5t75.5 281.5z" />
    <glyph glyph-name="Udieresisgrave" unicode="&#x1db;" horiz-adv-x="1996" 
d="M944 2760l176 -272h-212l-248 272h284zM514 2336q0 69 50 115t132 46q83 0 133.5 -46t50.5 -115t-50.5 -114.5t-133.5 -45.5q-82 0 -132 45.5t-50 114.5zM1115 2336q0 69 50 114.5t133 45.5t133 -45.5t50 -114.5q0 -70 -50 -115.5t-133 -45.5t-133 45.5t-50 115.5z
M1423 2048h395v-1353q0 -137 -39.5 -254t-112.5 -203.5t-174 -147t-225.5 -91t-266.5 -30.5q-239 0 -423.5 83t-292 249t-107.5 394v1353h395v-1342q0 -175 120.5 -277t307.5 -102t305 101.5t118 277.5v1342z" />
    <glyph glyph-name="udieresisgrave" unicode="&#x1dc;" horiz-adv-x="1650" 
d="M731 2546l272 -424h-320l-378 424h426zM288 1885q0 73 53 123t135 50t135 -50t53 -123t-53 -122.5t-135 -49.5t-135 49.5t-53 122.5zM953 1884q0 74 53 123.5t135 49.5t135 -50t53 -123t-53 -122.5t-135 -49.5t-135 49t-53 123zM1094 684v852h389v-1536h-364v181h-16
q-67 -91 -177 -146t-249 -55q-77 0 -148.5 19.5t-138 65t-115.5 112t-78.5 168t-29.5 226.5v965h388v-954q0 -133 71.5 -207.5t185.5 -74.5q131 0 206.5 102.5t75.5 281.5z" />
    <glyph glyph-name="eturn" unicode="&#x1dd;" horiz-adv-x="1553" 
d="M723 1517q160 0 293.5 -55.5t223 -153t139 -231.5t49.5 -289v-53q0 -163 -47.5 -303t-133.5 -242t-212 -160t-276 -58q-303 0 -467 182t-164 493v221h904q-19 150 -108 243.5t-239 93.5q-135 0 -224.5 -27.5t-190.5 -82.5l-109 252q92 72 236.5 121t325.5 49zM759 288
q111 0 179 84.5t89 226.5h-517v-36q0 -127 61 -201t188 -74z" />
    <glyph glyph-name="Adieresismacron" unicode="&#x1de;" horiz-adv-x="2084" 
d="M1516 2846v-228h-949v228h949zM558 2336q0 69 50 115t132 46q83 0 133.5 -46t50.5 -115t-50.5 -114.5t-133.5 -45.5q-82 0 -132 45.5t-50 114.5zM1159 2336q0 69 50 114.5t133 45.5t133 -45.5t50 -114.5q0 -70 -50 -115.5t-133 -45.5t-133 45.5t-50 115.5zM501 0h-424
l755 2048h419l755 -2048h-423l-149 436h-784zM1030 1550l-270 -790h564l-270 790h-24z" />
    <glyph glyph-name="adieresismacron" unicode="&#x1df;" horiz-adv-x="1564" 
d="M1265 2432v-228h-949v228h949zM267 1885q0 73 53 123t135 50t135 -50t53 -123t-53 -122.5t-135 -49.5t-135 49.5t-53 122.5zM932 1884q0 74 53 123.5t135 49.5t135 -50t53 -123t-53 -122.5t-135 -49.5t-135 49t-53 123zM1022 0v173h-18q-46 -85 -145 -144.5t-248 -59.5
q-138 0 -250.5 53t-181 160t-68.5 251q0 425 618 482q148 16 179 23q96 23 97 78v23q0 102 -59.5 158t-162.5 56q-104 0 -179 -52.5t-97 -133.5l-365 53q52 209 226.5 322.5t424.5 113.5q95 0 180 -17t163.5 -56t135.5 -98t90.5 -150t33.5 -204v-1031h-374zM1005 512v203
q-31 -34 -239 -61q-141 -16 -209 -67t-68 -149q0 -81 59 -128t156 -47q127 0 214 73.5t87 175.5z" />
    <glyph glyph-name="Adotmacron" unicode="&#x1e0;" horiz-adv-x="2084" 
d="M1516 2843v-227h-949v227h949zM858 2343q0 68 50.5 114t133.5 46q82 0 132.5 -46t50.5 -114q0 -69 -50.5 -115t-132.5 -46q-83 0 -133.5 45.5t-50.5 115.5zM501 0h-424l755 2048h419l755 -2048h-423l-149 436h-784zM1030 1550l-270 -790h564l-270 790h-24z" />
    <glyph glyph-name="adotmacron" unicode="&#x1e1;" horiz-adv-x="1564" 
d="M1265 2485v-228h-949v228h949zM587 1918q0 82 54.5 134.5t145.5 52.5t146 -52.5t55 -134.5q0 -81 -55 -132.5t-146 -51.5t-145.5 51.5t-54.5 132.5zM1022 0v173h-18q-46 -85 -145 -144.5t-248 -59.5q-138 0 -250.5 53t-181 160t-68.5 251q0 425 618 482q148 16 179 23
q96 23 97 78v23q0 102 -59.5 158t-162.5 56q-104 0 -179 -52.5t-97 -133.5l-365 53q52 209 226.5 322.5t424.5 113.5q95 0 180 -17t163.5 -56t135.5 -98t90.5 -150t33.5 -204v-1031h-374zM1005 512v203q-31 -34 -239 -61q-141 -16 -209 -67t-68 -149q0 -81 59 -128t156 -47
q127 0 214 73.5t87 175.5z" />
    <glyph glyph-name="AEmacron" unicode="&#x1e2;" horiz-adv-x="2777" 
d="M1866 2465v-226h-948v226h948zM2640 318v-318h-1223l-18 438h-661l-219 -438h-445l1089 2048h1393v-318h-830l21 -543h697v-315h-684l22 -554h858zM899 760h487l-37 900z" />
    <glyph glyph-name="aemacron" unicode="&#x1e3;" horiz-adv-x="2495" 
d="M1734 2002v-226h-948v226h948zM147 1120q52 209 227 322.5t425 113.5q290 0 450 -155q182 155 448 155q118 0 221.5 -29t189 -89t147 -147t95.5 -207.5t34 -265.5v-121l-1032 -96q29 -150 119 -231t239 -81q233 0 310 213l348 -94q-17 -65 -51.5 -126.5t-91.5 -118.5
t-129 -99t-171.5 -67.5t-212.5 -25.5q-359 0 -535 265h-9q-8 -27 -30 -60t-64 -70t-96.5 -67t-135 -50t-171.5 -20q-109 0 -206.5 28t-176.5 83t-125 146t-46 207q0 425 618 482q14 2 44.5 5t45.5 4.5t41 5t40 7t34 9t30 12t21 15t15.5 19.5t4.5 24v23q0 99 -64 151t-166 52
q-106 0 -175.5 -52.5t-98.5 -138.5zM1694 1241q-146 0 -236.5 -99t-112.5 -279l671 59q0 140 -86.5 229.5t-235.5 89.5zM1011 512v203q-31 -34 -239 -61q-141 -16 -209.5 -67t-68.5 -149q0 -81 59 -128t156 -47q127 0 214.5 73.5t87.5 175.5z" />
    <glyph glyph-name="Gbar" unicode="&#x1e4;" horiz-adv-x="2129" 
d="M1886 1070v-301q0 -45 -4 -80h190v-206h-235q-87 -237 -302 -374t-493 -137q-195 0 -361.5 71.5t-287.5 203.5t-189.5 331t-68.5 443q0 245 68 445.5t188 333t284 204.5t356 72q301 0 526.5 -170t318.5 -479l-399 -43q-52 166 -171 250.5t-275 84.5q-108 0 -197.5 -42
t-158 -125t-107 -219t-38.5 -312t39 -311t109 -217t161.5 -123t202.5 -41t205 40t156 114h-330v206h423q6 39 6 80v53h-429v248h813z" />
    <glyph glyph-name="gbar" unicode="&#x1e5;" horiz-adv-x="1737" 
d="M1122 1531h383v-625h219v-239h-219v-625q0 -152 -54 -272t-151 -197t-228 -117t-288 -40q-204 0 -365.5 68.5t-234.5 160.5l190 254q84 -72 177 -117t223 -45q163 0 257.5 80.5t93.5 248.5v155h-22q-18 -34 -47.5 -65t-75 -61t-112 -48t-145.5 -18q-126 0 -235 46.5
t-194 136.5t-134 235.5t-49 331.5q0 185 48.5 334.5t133 245t195 146.5t236.5 51q142 0 237.5 -60.5t139.5 -149.5h21v185zM481 780q0 -213 90 -327t254 -114q141 0 221.5 86t100.5 242h-379v239h377q-22 155 -102 245t-218 90q-167 0 -255.5 -125.5t-88.5 -335.5z" />
    <glyph glyph-name="Gcaron" unicode="&#x1e6;" horiz-adv-x="2029" 
d="M822 2565l215 -202l214 202h317v-13l-414 -387h-236l-416 387v13h320zM1886 1070v-301q0 -177 -66 -327.5t-179.5 -252.5t-268.5 -159.5t-330 -57.5q-195 0 -361.5 71.5t-287.5 203.5t-189.5 331t-68.5 443q0 245 68 445.5t188 333t284 204.5t356 72q301 0 526.5 -170
t318.5 -479l-399 -43q-52 166 -171 250.5t-275 84.5q-108 0 -197.5 -42t-158 -125t-107 -219t-38.5 -312t39 -311t109 -217t161.5 -123t202.5 -41q199 0 329.5 121t130.5 319h-429v301h813z" />
    <glyph glyph-name="gcaron" unicode="&#x1e7;" horiz-adv-x="1672" 
d="M597 2113l215 -202l214 202h317v-13l-414 -387h-236l-416 387v13h320zM1122 1531h383v-1489q0 -152 -54 -272t-151 -197t-228 -117t-288 -40q-204 0 -365.5 68.5t-234.5 160.5l190 254q84 -72 177 -117t223 -45q163 0 257.5 80.5t93.5 248.5v155h-22q-18 -34 -47.5 -65
t-75 -61t-112 -48t-145.5 -18q-126 0 -235 46.5t-194 136.5t-134 235.5t-49 331.5q0 185 48.5 334.5t133 245t195 146.5t236.5 51q142 0 237.5 -60.5t139.5 -149.5h21v185zM481 780q0 -213 90 -327t254 -114q165 0 247 117t82 324q0 134 -33 235t-108.5 163.5t-187.5 62.5
q-167 0 -255.5 -125.5t-88.5 -335.5z" />
    <glyph glyph-name="Kcaron" unicode="&#x1e8;" horiz-adv-x="1980" 
d="M641 2565l215 -202l214 202h317v-13l-414 -387h-236l-416 387v13h320zM1420 0l-603 823l-245 -270v-553h-395v2048h395v-907h27l819 907h517l-868 -940l828 -1108h-475z" />
    <glyph glyph-name="kcaron" unicode="&#x1e9;" horiz-adv-x="1560" 
d="M615 2565l215 -202l214 202h317v-13l-414 -387h-236l-416 387v13h320zM1121 0l-432 634l-134 -151v-483h-388v2048h388v-1079h23l477 567h455l-567 -655l604 -881h-426z" />
    <glyph glyph-name="Oogonek" unicode="&#x1ea;" horiz-adv-x="2073" 
d="M1938 1021q0 -230 -60.5 -420.5t-169 -321.5t-256.5 -209t-324 -94q-88 -55 -130.5 -107.5t-42.5 -115.5q0 -90 93 -90q15 0 28.5 1.5t25.5 5t19.5 6.5t19.5 8t16 6l40 -211q-101 -60 -227 -60q-135 0 -222.5 74t-87.5 209q0 173 160 295q-310 73 -497.5 341.5
t-187.5 682.5q0 245 69 445.5t190 333t286.5 204.5t358.5 72q192 0 356.5 -72t285 -204.5t189 -333t68.5 -445.5zM1543 1021q0 348 -137.5 523t-366.5 175q-111 0 -202.5 -42t-160.5 -125t-107.5 -218.5t-38.5 -312.5t38.5 -311.5t108 -216.5t160.5 -123t202 -41t201.5 41
t159 123t106 216.5t37.5 311.5z" />
    <glyph glyph-name="oogonek" unicode="&#x1eb;" horiz-adv-x="1653" 
d="M965 -521q-101 -60 -227 -60q-135 0 -222.5 74t-87.5 209q0 179 170 302q-228 70 -357.5 273t-129.5 488q0 234 86.5 413t249 278.5t379.5 99.5t380 -99.5t249 -278.5t86 -413q0 -221 -78 -394t-225.5 -277.5t-345.5 -119.5q-86 -55 -127.5 -106.5t-41.5 -114.5
q0 -90 93 -90q15 0 28.5 1.5t25.5 5t19.5 6.5t19.5 8t16 6zM826 289q118 0 196.5 63.5t112.5 167.5t34 245t-34 245t-112.5 167.5t-196.5 63.5q-88 0 -155 -35.5t-107.5 -100.5t-60.5 -150t-20 -190q0 -216 85 -346t258 -130z" />
    <glyph glyph-name="Oogonekmacron" unicode="&#x1ec;" horiz-adv-x="2073" 
d="M1516 2454v-226h-948v226h948zM1938 1021q0 -230 -60.5 -420.5t-169 -321.5t-256.5 -209t-324 -94q-88 -55 -130.5 -107.5t-42.5 -115.5q0 -90 93 -90q15 0 28.5 1.5t25.5 5t19.5 6.5t19.5 8t16 6l40 -211q-101 -60 -227 -60q-135 0 -222.5 74t-87.5 209q0 173 160 295
q-310 73 -497.5 341.5t-187.5 682.5q0 245 69 445.5t190 333t286.5 204.5t358.5 72q192 0 356.5 -72t285 -204.5t189 -333t68.5 -445.5zM1543 1021q0 348 -137.5 523t-366.5 175q-111 0 -202.5 -42t-160.5 -125t-107.5 -218.5t-38.5 -312.5t38.5 -311.5t108 -216.5
t160.5 -123t202 -41t201.5 41t159 123t106 216.5t37.5 311.5z" />
    <glyph glyph-name="oogonekmacron" unicode="&#x1ed;" horiz-adv-x="1653" 
d="M1282 2002v-226h-948v226h948zM965 -521q-101 -60 -227 -60q-135 0 -222.5 74t-87.5 209q0 179 170 302q-228 70 -357.5 273t-129.5 488q0 234 86.5 413t249 278.5t379.5 99.5t380 -99.5t249 -278.5t86 -413q0 -221 -78 -394t-225.5 -277.5t-345.5 -119.5
q-86 -55 -127.5 -106.5t-41.5 -114.5q0 -90 93 -90q15 0 28.5 1.5t25.5 5t19.5 6.5t19.5 8t16 6zM826 289q118 0 196.5 63.5t112.5 167.5t34 245t-34 245t-112.5 167.5t-196.5 63.5q-88 0 -155 -35.5t-107.5 -100.5t-60.5 -150t-20 -190q0 -216 85 -346t258 -130z" />
    <glyph glyph-name="Ezhcaron" unicode="&#x1ee;" horiz-adv-x="1983" 
d="M706 2457l215 -202l214 202h317v-13l-414 -387h-236l-416 387v13h320zM172 100h405q20 -190 112.5 -277.5t286.5 -87.5q223 0 323 128.5t100 402.5q0 294 -104 420t-327 126h-360v236l549 626h-971v330h1486v-231l-567 -656q327 -38 512.5 -256.5t185.5 -594.5
q0 -413 -221 -635t-606 -222q-180 0 -327.5 51.5t-247.5 143.5t-158.5 218t-70.5 278z" />
    <glyph glyph-name="ezhcaron" unicode="&#x1ef;" horiz-adv-x="1727" 
d="M667 2096l182 -189l184 189h331v-21l-383 -351h-265l-380 352v20h331zM227 1488h1302v-255l-495 -555q259 -42 399.5 -205.5t140.5 -428.5q0 -182 -94.5 -316.5t-258 -203t-374.5 -68.5q-104 0 -202.5 21t-188.5 67.5t-157 113.5t-106.5 165.5t-39.5 216.5h390
q0 -115 84 -193.5t220 -78.5q156 0 247 80t91 203q0 198 -97.5 286.5t-293.5 88.5h-189v252l466 498h-844v312z" />
    <glyph glyph-name="jcaron" unicode="&#x1f0;" horiz-adv-x="858" 
d="M273 2067l215 -202l214 202h317v-13l-414 -387h-236l-416 387v13h320zM295 1536h388v-1604q0 -251 -148.5 -381.5t-402.5 -130.5h-130v315h79q119 0 166.5 52.5t47.5 149.5v1599z" />
    <glyph glyph-name="DZ" unicode="&#x1f1;" horiz-adv-x="4040" 
d="M1128 0h-695v2048h704q450 0 707 -272t257 -751q0 -480 -258.5 -752.5t-714.5 -272.5zM3893 332v-332h-1507v243l1018 1473h-1022v332h1507v-243l-1017 -1473h1021zM1115 1706h-287v-1364h281q298 0 447.5 168.5t149.5 514.5q0 681 -591 681z" />
    <glyph glyph-name="Dz" unicode="&#x1f2;" horiz-adv-x="3774" 
d="M1128 0h-695v2048h704q450 0 707 -272t257 -751q0 -480 -258.5 -752.5t-714.5 -272.5zM1115 1706h-287v-1364h281q298 0 447.5 168.5t149.5 514.5q0 681 -591 681zM3624 315v-315h-1234v241l732 980h-718v315h1203v-237l-731 -984h748z" />
    <glyph glyph-name="Gacute" unicode="&#x1f4;" horiz-adv-x="2029" 
d="M856 2145l262 424h399l-357 -424h-304zM1886 1070v-301q0 -177 -66 -327.5t-179.5 -252.5t-268.5 -159.5t-330 -57.5q-195 0 -361.5 71.5t-287.5 203.5t-189.5 331t-68.5 443q0 245 68 445.5t188 333t284 204.5t356 72q301 0 526.5 -170t318.5 -479l-399 -43
q-52 166 -171 250.5t-275 84.5q-108 0 -197.5 -42t-158 -125t-107 -219t-38.5 -312t39 -311t109 -217t161.5 -123t202.5 -41q199 0 329.5 121t130.5 319h-429v301h813z" />
    <glyph glyph-name="gacute" unicode="&#x1f5;" horiz-adv-x="1672" 
d="M631 1693l262 424h399l-357 -424h-304zM1122 1531h383v-1489q0 -152 -54 -272t-151 -197t-228 -117t-288 -40q-204 0 -365.5 68.5t-234.5 160.5l190 254q84 -72 177 -117t223 -45q163 0 257.5 80.5t93.5 248.5v155h-22q-18 -34 -47.5 -65t-75 -61t-112 -48t-145.5 -18
q-126 0 -235 46.5t-194 136.5t-134 235.5t-49 331.5q0 185 48.5 334.5t133 245t195 146.5t236.5 51q142 0 237.5 -60.5t139.5 -149.5h21v185zM481 780q0 -213 90 -327t254 -114q165 0 247 117t82 324q0 134 -33 235t-108.5 163.5t-187.5 62.5q-167 0 -255.5 -125.5
t-88.5 -335.5z" />
    <glyph glyph-name="uni01F6" unicode="&#x1f6;" horiz-adv-x="3022" 
d="M569 2048v-863h853v863h392v-1367q0 -183 80.5 -280.5t245.5 -97.5q323 0 323 378v822h392v-822q0 -342 -190 -525.5t-525 -183.5q-337 0 -527.5 184t-190.5 525v181h-853v-862h-392v2048h392z" />
    <glyph glyph-name="uni01F7" unicode="&#x1f7;" horiz-adv-x="1983" 
d="M607 2004v-48q147 76 340 76q385 0 609 -227.5t224 -646.5v-72q0 -439 -311 -782.5t-862 -510.5v-365h-402v2576h402zM947 1705q-208 0 -340 -151v-1425q188 70 334.5 174t239.5 229t140.5 265t47.5 289v76q0 131 -20.5 227t-68 169t-130.5 110t-203 37z" />
    <glyph glyph-name="uni01F8" unicode="&#x1f8;" horiz-adv-x="1993" 
d="M966 2569l271 -424h-320l-378 424h427zM1816 2048v-2048h-387l-840 1370h-17v-1370h-395v2048h390l838 -1373h17v1373h394z" />
    <glyph glyph-name="uni01F9" unicode="&#x1f9;" horiz-adv-x="1650" 
d="M752 2117l271 -424h-320l-378 424h427zM555 845v-845h-388v1536h364v-195h16q65 98 175 156.5t251 58.5q83 0 156.5 -20t139 -65.5t112.5 -112.5t74.5 -167.5t27.5 -225.5v-965h-389v949q0 134 -72 210.5t-185 76.5q-130 0 -206 -106t-76 -285z" />
    <glyph glyph-name="Aringacute" unicode="&#x1fa;" horiz-adv-x="2084" 
d="M946 2494l253 282h353l-366 -282h-240zM501 0h-424l747 2027q-58 66 -58 156q0 108 80 181.5t196 73.5q114 0 192.5 -73.5t78.5 -181.5q0 -90 -55 -154l748 -2029h-423l-149 436h-784zM919 2183q0 -52 35 -86t88 -34q51 0 84 34t33 86q0 56 -32.5 90t-84.5 34
q-53 0 -88 -34.5t-35 -89.5zM1030 1550l-270 -790h564l-270 790h-24z" />
    <glyph glyph-name="aringacute" unicode="&#x1fb;" horiz-adv-x="1564" 
d="M692 2042l253 282h353l-366 -282h-240zM1022 0v173h-18q-46 -85 -145 -144.5t-248 -59.5q-138 0 -250.5 53t-181 160t-68.5 251q0 425 618 482q148 16 179 23q96 23 97 78v23q0 102 -59.5 158t-162.5 56q-104 0 -179 -52.5t-97 -133.5l-365 53q42 167 165 274.5
t303 143.5q-98 74 -98 193q0 108 80 181.5t196 73.5q114 0 192.5 -73.5t78.5 -181.5q0 -119 -93 -191q92 -18 167 -55t135.5 -97.5t94 -151.5t33.5 -205v-1031h-374zM665 1731q0 -52 35 -86t88 -34q51 0 84 34t33 86q0 56 -32.5 90t-84.5 34q-53 0 -88 -34.5t-35 -89.5z
M1005 512v203q-31 -34 -239 -61q-141 -16 -209 -67t-68 -149q0 -81 59 -128t156 -47q127 0 214 73.5t87 175.5z" />
    <glyph glyph-name="AEacute" unicode="&#x1fc;" horiz-adv-x="2777" 
d="M1208 2156l262 424h399l-357 -424h-304zM2640 318v-318h-1223l-18 438h-661l-219 -438h-445l1089 2048h1393v-318h-830l21 -543h697v-315h-684l22 -554h858zM899 760h487l-37 900z" />
    <glyph glyph-name="aeacute" unicode="&#x1fd;" horiz-adv-x="2495" 
d="M1076 1693l262 424h399l-357 -424h-304zM147 1120q52 209 227 322.5t425 113.5q290 0 450 -155q182 155 448 155q118 0 221.5 -29t189 -89t147 -147t95.5 -207.5t34 -265.5v-121l-1032 -96q29 -150 119 -231t239 -81q233 0 310 213l348 -94q-17 -65 -51.5 -126.5
t-91.5 -118.5t-129 -99t-171.5 -67.5t-212.5 -25.5q-359 0 -535 265h-9q-8 -27 -30 -60t-64 -70t-96.5 -67t-135 -50t-171.5 -20q-109 0 -206.5 28t-176.5 83t-125 146t-46 207q0 425 618 482q14 2 44.5 5t45.5 4.5t41 5t40 7t34 9t30 12t21 15t15.5 19.5t4.5 24v23
q0 99 -64 151t-166 52q-106 0 -175.5 -52.5t-98.5 -138.5zM1694 1241q-146 0 -236.5 -99t-112.5 -279l671 59q0 140 -86.5 229.5t-235.5 89.5zM1011 512v203q-31 -34 -239 -61q-141 -16 -209.5 -67t-68.5 -149q0 -81 59 -128t156 -47q127 0 214.5 73.5t87.5 175.5z" />
    <glyph glyph-name="Oslashacute" unicode="&#x1fe;" horiz-adv-x="2073" 
d="M857 2216l262 424h399l-357 -424h-304zM427 -95l-185 126l149 220q-123 137 -189.5 332.5t-66.5 437.5q0 245 69 445.5t190 333t286.5 204.5t358.5 72q277 0 488 -143l139 206l185 -126l-156 -231q243 -288 243 -761q0 -244 -68.5 -443t-189 -331t-285 -203.5
t-356.5 -71.5q-268 0 -477 133zM530 1021q0 -264 87 -435l705 1043q-118 90 -283 90q-111 0 -202.5 -42t-160.5 -125t-107.5 -218.5t-38.5 -312.5zM1543 1021q0 254 -77 422l-699 -1035q116 -79 272 -79q111 0 201.5 41t159 123t106 216.5t37.5 311.5z" />
    <glyph glyph-name="oslashacute" unicode="&#x1ff;" horiz-adv-x="1653" 
d="M540 1688l262 424h399l-357 -424h-304zM380 -95l-185 126l109 161q-193 219 -193 573q0 234 86.5 413t249 278.5t379.5 99.5q193 0 345 -80l96 143l185 -126l-104 -155q193 -216 193 -573q0 -233 -86 -412.5t-249 -280.5t-380 -101q-193 0 -346 82zM483 765
q0 -147 38 -252l465 690q-67 38 -160 38q-88 0 -155 -35.5t-107.5 -100.5t-60.5 -150t-20 -190zM826 289q118 0 196.5 63.5t112.5 167.5t34 245q0 148 -38 253l-466 -690q70 -39 161 -39z" />
    <glyph glyph-name="Adblgrave" unicode="&#x200;" horiz-adv-x="2084" 
d="M982 2179h-323l-403 365h389zM1441 2179h-314l-337 365h381zM501 0h-424l755 2048h419l755 -2048h-423l-149 436h-784zM1030 1550l-270 -790h564l-270 790h-24z" />
    <glyph glyph-name="adblgrave" unicode="&#x201;" horiz-adv-x="1564" 
d="M728 1727h-323l-403 365h389zM1187 1727h-314l-337 365h381zM1022 0v173h-18q-46 -85 -145 -144.5t-248 -59.5q-138 0 -250.5 53t-181 160t-68.5 251q0 425 618 482q148 16 179 23q96 23 97 78v23q0 102 -59.5 158t-162.5 56q-104 0 -179 -52.5t-97 -133.5l-365 53
q52 209 226.5 322.5t424.5 113.5q95 0 180 -17t163.5 -56t135.5 -98t90.5 -150t33.5 -204v-1031h-374zM1005 512v203q-31 -34 -239 -61q-141 -16 -209 -67t-68 -149q0 -81 59 -128t156 -47q127 0 214 73.5t87 175.5z" />
    <glyph glyph-name="Ainvertedbreve" unicode="&#x202;" horiz-adv-x="2084" 
d="M1513 2219h-279q0 79 -47 131t-145 52q-100 0 -147 -52t-47 -131h-278q0 180 128.5 292.5t343.5 112.5t343 -112t128 -293zM501 0h-424l755 2048h419l755 -2048h-423l-149 436h-784zM1030 1550l-270 -790h564l-270 790h-24z" />
    <glyph glyph-name="ainvertedbreve" unicode="&#x203;" horiz-adv-x="1564" 
d="M1259 1767h-279q0 79 -47 131t-145 52q-100 0 -147 -52t-47 -131h-278q0 180 128.5 292.5t343.5 112.5t343 -112t128 -293zM1022 0v173h-18q-46 -85 -145 -144.5t-248 -59.5q-138 0 -250.5 53t-181 160t-68.5 251q0 425 618 482q148 16 179 23q96 23 97 78v23
q0 102 -59.5 158t-162.5 56q-104 0 -179 -52.5t-97 -133.5l-365 53q52 209 226.5 322.5t424.5 113.5q95 0 180 -17t163.5 -56t135.5 -98t90.5 -150t33.5 -204v-1031h-374zM1005 512v203q-31 -34 -239 -61q-141 -16 -209 -67t-68 -149q0 -81 59 -128t156 -47q127 0 214 73.5
t87 175.5z" />
    <glyph glyph-name="Edblgrave" unicode="&#x204;" horiz-adv-x="1665" 
d="M801 2179h-323l-403 365h389zM1260 2179h-314l-337 365h381zM1508 332v-332h-1331v2048h1326v-332h-931v-526h803v-331h-803v-527h936z" />
    <glyph glyph-name="edblgrave" unicode="&#x205;" horiz-adv-x="1639" 
d="M754 1727h-323l-403 365h389zM1213 1727h-314l-337 365h381zM855 -29q-345 0 -544.5 208.5t-199.5 568.5q0 235 85 417t251.5 286.5t391.5 104.5q118 0 221.5 -29t189 -89t147 -147t95.5 -207.5t34 -265.5v-163h-1040q19 -175 111.5 -270.5t254.5 -95.5q233 0 310 213
l348 -94q-22 -83 -71 -158t-126.5 -139t-196 -102t-261.5 -38zM836 1241q-133 0 -220.5 -83.5t-118.5 -235.5h661q0 140 -86.5 229.5t-235.5 89.5z" />
    <glyph glyph-name="Einvertedbreve" unicode="&#x206;" horiz-adv-x="1665" 
d="M1332 2219h-279q0 79 -47 131t-145 52q-100 0 -147 -52t-47 -131h-278q0 180 128.5 292.5t343.5 112.5t343 -112t128 -293zM1508 332v-332h-1331v2048h1326v-332h-931v-526h803v-331h-803v-527h936z" />
    <glyph glyph-name="einvertedbreve" unicode="&#x207;" horiz-adv-x="1639" 
d="M1285 1767h-279q0 79 -47 131t-145 52q-100 0 -147 -52t-47 -131h-278q0 180 128.5 292.5t343.5 112.5t343 -112t128 -293zM855 -29q-345 0 -544.5 208.5t-199.5 568.5q0 235 85 417t251.5 286.5t391.5 104.5q118 0 221.5 -29t189 -89t147 -147t95.5 -207.5t34 -265.5
v-163h-1040q19 -175 111.5 -270.5t254.5 -95.5q233 0 310 213l348 -94q-22 -83 -71 -158t-126.5 -139t-196 -102t-261.5 -38zM836 1241q-133 0 -220.5 -83.5t-118.5 -235.5h661q0 140 -86.5 229.5t-235.5 89.5z" />
    <glyph glyph-name="Idblgrave" unicode="&#x208;" horiz-adv-x="749" 
d="M310 2179h-323l-403 365h389zM769 2179h-314l-337 365h381zM572 2048v-2048h-395v2048h395z" />
    <glyph glyph-name="idblgrave" unicode="&#x209;" horiz-adv-x="744" 
d="M317 1707h-323l-403 365h389zM776 1707h-314l-337 365h381zM566 1536v-1536h-388v1536h388z" />
    <glyph glyph-name="Iinvertedbreve" unicode="&#x20a;" horiz-adv-x="749" 
d="M841 2219h-279q0 79 -47 131t-145 52q-100 0 -147 -52t-47 -131h-278q0 180 128.5 292.5t343.5 112.5t343 -112t128 -293zM572 2048v-2048h-395v2048h395z" />
    <glyph glyph-name="iinvertedbreve" unicode="&#x20b;" horiz-adv-x="744" 
d="M848 1747h-279q0 79 -47 131t-145 52q-100 0 -147 -52t-47 -131h-278q0 180 128.5 292.5t343.5 112.5t343 -112t128 -293zM566 1536v-1536h-388v1536h388z" />
    <glyph glyph-name="Odblgrave" unicode="&#x20c;" horiz-adv-x="2073" 
d="M979 2179h-323l-403 365h389zM1438 2179h-314l-337 365h381zM1938 1021q0 -244 -68.5 -443t-189 -331t-285 -203.5t-356.5 -71.5q-193 0 -358.5 71.5t-286.5 203.5t-190 331t-69 443q0 245 69 445.5t190 333t286.5 204.5t358.5 72q192 0 356.5 -72t285 -204.5t189 -333
t68.5 -445.5zM1543 1021q0 348 -137.5 523t-366.5 175q-111 0 -202.5 -42t-160.5 -125t-107.5 -218.5t-38.5 -312.5t38.5 -311.5t108 -216.5t160.5 -123t202 -41t201.5 41t159 123t106 216.5t37.5 311.5z" />
    <glyph glyph-name="odblgrave" unicode="&#x20d;" horiz-adv-x="1653" 
d="M745 1727h-323l-403 365h389zM1204 1727h-314l-337 365h381zM826 -29q-216 0 -379.5 101t-249.5 280.5t-86 412.5q0 234 86.5 413t249 278.5t379.5 99.5t380 -99.5t249 -278.5t86 -413q0 -233 -86 -412.5t-249 -280.5t-380 -101zM826 289q118 0 196.5 63.5t112.5 167.5
t34 245t-34 245t-112.5 167.5t-196.5 63.5q-88 0 -155 -35.5t-107.5 -100.5t-60.5 -150t-20 -190q0 -216 85 -346t258 -130z" />
    <glyph glyph-name="Oinvertedbreve" unicode="&#x20e;" horiz-adv-x="2073" 
d="M1510 2219h-279q0 79 -47 131t-145 52q-100 0 -147 -52t-47 -131h-278q0 180 128.5 292.5t343.5 112.5t343 -112t128 -293zM1938 1021q0 -244 -68.5 -443t-189 -331t-285 -203.5t-356.5 -71.5q-193 0 -358.5 71.5t-286.5 203.5t-190 331t-69 443q0 245 69 445.5t190 333
t286.5 204.5t358.5 72q192 0 356.5 -72t285 -204.5t189 -333t68.5 -445.5zM1543 1021q0 348 -137.5 523t-366.5 175q-111 0 -202.5 -42t-160.5 -125t-107.5 -218.5t-38.5 -312.5t38.5 -311.5t108 -216.5t160.5 -123t202 -41t201.5 41t159 123t106 216.5t37.5 311.5z" />
    <glyph glyph-name="oinvertedbreve" unicode="&#x20f;" horiz-adv-x="1653" 
d="M1276 1767h-279q0 79 -47 131t-145 52q-100 0 -147 -52t-47 -131h-278q0 180 128.5 292.5t343.5 112.5t343 -112t128 -293zM826 -29q-216 0 -379.5 101t-249.5 280.5t-86 412.5q0 234 86.5 413t249 278.5t379.5 99.5t380 -99.5t249 -278.5t86 -413q0 -233 -86 -412.5
t-249 -280.5t-380 -101zM826 289q118 0 196.5 63.5t112.5 167.5t34 245t-34 245t-112.5 167.5t-196.5 63.5q-88 0 -155 -35.5t-107.5 -100.5t-60.5 -150t-20 -190q0 -216 85 -346t258 -130z" />
    <glyph glyph-name="Rdblgrave" unicode="&#x210;" horiz-adv-x="1792" 
d="M841 2179h-323l-403 365h389zM1300 2179h-314l-337 365h381zM1295 0l-380 766h-343v-766h-395v2048h755q354 0 537.5 -170.5t183.5 -465.5q0 -205 -91 -347t-253 -223l424 -842h-438zM572 1716v-619h351q168 0 253.5 79t85.5 228q0 143 -82 227.5t-248 84.5h-360z" />
    <glyph glyph-name="rdblgrave" unicode="&#x211;" horiz-adv-x="1161" 
d="M538 1727h-323l-403 365h389zM997 1727h-314l-337 365h381zM1132 1507l-121 -337q-20 11 -60 21.5t-83 10.5q-134 0 -222.5 -99.5t-90.5 -231.5v-871h-388v1536h380v-218h22q32 112 132 175.5t219 63.5q58 0 116.5 -14t95.5 -36z" />
    <glyph glyph-name="Rinvertedbreve" unicode="&#x212;" horiz-adv-x="1792" 
d="M1372 2219h-279q0 79 -47 131t-145 52q-100 0 -147 -52t-47 -131h-278q0 180 128.5 292.5t343.5 112.5t343 -112t128 -293zM1295 0l-380 766h-343v-766h-395v2048h755q354 0 537.5 -170.5t183.5 -465.5q0 -205 -91 -347t-253 -223l424 -842h-438zM572 1716v-619h351
q168 0 253.5 79t85.5 228q0 143 -82 227.5t-248 84.5h-360z" />
    <glyph glyph-name="rinvertedbreve" unicode="&#x213;" horiz-adv-x="1161" 
d="M1069 1767h-279q0 79 -47 131t-145 52q-100 0 -147 -52t-47 -131h-278q0 180 128.5 292.5t343.5 112.5t343 -112t128 -293zM1132 1507l-121 -337q-20 11 -60 21.5t-83 10.5q-134 0 -222.5 -99.5t-90.5 -231.5v-871h-388v1536h380v-218h22q32 112 132 175.5t219 63.5
q58 0 116.5 -14t95.5 -36z" />
    <glyph glyph-name="Udblgrave" unicode="&#x214;" horiz-adv-x="1996" 
d="M938 2179h-323l-403 365h389zM1397 2179h-314l-337 365h381zM1423 2048h395v-1353q0 -137 -39.5 -254t-112.5 -203.5t-174 -147t-225.5 -91t-266.5 -30.5q-239 0 -423.5 83t-292 249t-107.5 394v1353h395v-1342q0 -175 120.5 -277t307.5 -102t305 101.5t118 277.5v1342z
" />
    <glyph glyph-name="udblgrave" unicode="&#x215;" horiz-adv-x="1650" 
d="M749 1727h-323l-403 365h389zM1208 1727h-314l-337 365h381zM1094 684v852h389v-1536h-364v181h-16q-67 -91 -177 -146t-249 -55q-77 0 -148.5 19.5t-138 65t-115.5 112t-78.5 168t-29.5 226.5v965h388v-954q0 -133 71.5 -207.5t185.5 -74.5q131 0 206.5 102.5
t75.5 281.5z" />
    <glyph glyph-name="Uinvertedbreve" unicode="&#x216;" horiz-adv-x="1996" 
d="M1469 2219h-279q0 79 -47 131t-145 52q-100 0 -147 -52t-47 -131h-278q0 180 128.5 292.5t343.5 112.5t343 -112t128 -293zM1423 2048h395v-1353q0 -137 -39.5 -254t-112.5 -203.5t-174 -147t-225.5 -91t-266.5 -30.5q-239 0 -423.5 83t-292 249t-107.5 394v1353h395
v-1342q0 -175 120.5 -277t307.5 -102t305 101.5t118 277.5v1342z" />
    <glyph glyph-name="uinvertedbreve" unicode="&#x217;" horiz-adv-x="1650" 
d="M1280 1767h-279q0 79 -47 131t-145 52q-100 0 -147 -52t-47 -131h-278q0 180 128.5 292.5t343.5 112.5t343 -112t128 -293zM1094 684v852h389v-1536h-364v181h-16q-67 -91 -177 -146t-249 -55q-77 0 -148.5 19.5t-138 65t-115.5 112t-78.5 168t-29.5 226.5v965h388v-954
q0 -133 71.5 -207.5t185.5 -74.5q131 0 206.5 102.5t75.5 281.5z" />
    <glyph glyph-name="Scommaaccent" unicode="&#x218;" horiz-adv-x="1780" 
d="M1257 1466q-13 131 -104 203.5t-250 72.5q-158 0 -256 -67t-98 -174q0 -41 18.5 -76t49 -62t82.5 -53t105.5 -47t131.5 -46l105 -34q304 -99 452.5 -241.5t148.5 -370.5q0 -183 -93 -320t-263 -209.5t-395 -72.5q-127 0 -242 25.5t-213.5 78.5t-171 129t-114.5 183
t-44 235h386q9 -154 117 -236t282 -82q172 0 270.5 76t98.5 190q0 106 -95 178.5t-324 142.5l-108 31q-128 39 -230 92.5t-179 124.5t-118.5 163.5t-41.5 200.5q0 169 96.5 300.5t265 203t379.5 71.5q320 0 521.5 -168t206.5 -442h-376zM1054 -132v-194q-2 -354 -185 -560
l-216 89q54 122 80.5 219.5t26.5 230.5v215h294z" />
    <glyph glyph-name="scommaaccent" unicode="&#x219;" horiz-adv-x="1523" 
d="M1390 1119l-353 -36q-16 79 -86 131t-178 52q-102 0 -174.5 -45.5t-72.5 -118.5q0 -118 198 -161l285 -61q412 -91 412 -415q0 -155 -90 -268.5t-241.5 -169.5t-344.5 -56q-283 0 -448 120.5t-211 343.5l371 42q27 -104 108.5 -161t196.5 -57q111 0 186 47.5t75 114.5
q0 38 -14.5 66t-43.5 45.5t-57.5 27t-71.5 19.5l-270 61q-198 47 -311.5 154.5t-113.5 282.5q0 221 177.5 350t470.5 129q522 0 601 -437zM923 -128v-194q-2 -354 -185 -560l-216 89q54 122 80.5 219.5t26.5 230.5v215h294z" />
    <glyph glyph-name="uni021A" unicode="&#x21a;" horiz-adv-x="1816" 
d="M1718 2048v-332h-614v-1716h-392v1716h-614v332h1620zM1051 -109v-194q-2 -354 -185 -560l-216 89q54 122 80.5 219.5t26.5 230.5v215h294z" />
    <glyph glyph-name="uni021B" unicode="&#x21b;" horiz-adv-x="1033" 
d="M914 1536v-288h-268v-778q0 -98 40 -131t115 -33q54 0 99 12l61 -299q-32 -13 -103.5 -26t-164.5 -13q-118 0 -216 50.5t-158.5 150t-60.5 230.5v837h-191v288h191v328h388v-328h268zM762 -120v-194q-2 -354 -185 -560l-216 89q54 122 80.5 219.5t26.5 230.5v215h294z
" />
    <glyph glyph-name="uni021C" unicode="&#x21c;" horiz-adv-x="1809" 
d="M307 422v303q175 53 302 99t232.5 96.5t173.5 101t114.5 111.5t66.5 129t20 153q0 132 -82 209.5t-256 77.5q-131 0 -221 -64.5t-90 -175.5h-403q0 105 37.5 196.5t104.5 158.5t157 115.5t195.5 72.5t219.5 24q342 0 540.5 -147.5t198.5 -421.5q0 -307 -224 -533
q121 -67 187 -183t66 -274q0 -184 -65.5 -339.5t-183 -273t-286.5 -209t-368 -151.5t-436 -97v323q463 92 698.5 277t235.5 476q0 105 -24.5 166.5t-75.5 92.5q-303 -180 -834 -313z" />
    <glyph glyph-name="uni021D" unicode="&#x21d;" horiz-adv-x="1553" 
d="M316 228v283q126 39 223 77.5t182 86t140 100t86.5 117.5t31.5 139q0 189 -204 189q-102 0 -164.5 -42.5t-62.5 -116.5h-388q0 138 81 242.5t215.5 158.5t299.5 54q285 0 447.5 -113t162.5 -323q0 -247 -178 -431q206 -122 206 -392q0 -172 -75 -313t-218 -245.5
t-338 -178t-447 -120.5v292q146 47 249.5 89.5t191 94.5t139.5 110t80 131.5t28 164.5q0 113 -49 188q-243 -140 -639 -242z" />
    <glyph glyph-name="uni021E" unicode="&#x21e;" horiz-adv-x="1994" 
d="M830 2565l215 -202l214 202h317v-13l-414 -387h-236l-416 387v13h320zM572 2048v-858h850v858h395v-2048h-395v859h-850v-859h-395v2048h395z" />
    <glyph glyph-name="uni021F" unicode="&#x21f;" horiz-adv-x="1620" 
d="M688 2652l215 -202l214 202h317v-13l-414 -387h-236l-416 387v13h320zM555 852v-852h-388v2048h377v-693h16q67 92 173.5 146.5t242.5 54.5q218 0 347.5 -150.5t129.5 -440.5v-965h-389v968q0 126 -56.5 197t-167.5 71q-132 0 -208.5 -103.5t-76.5 -280.5z" />
    <glyph glyph-name="uni0220" unicode="&#x220;" horiz-adv-x="1809" 
d="M1640 -572h-392v1974q0 315 -333 315q-187 0 -354 -104v-1613h-389v2004h389v-71q188 99 395 99q113 0 215.5 -26t188 -79t148 -127.5t97.5 -176.5t35 -221v-1974z" />
    <glyph glyph-name="uni0221" unicode="&#x221;" horiz-adv-x="2236" 
d="M2141 -209q0 -175 -124 -279t-353 -104q-348 0 -463 241l-230 -206l-177 235l353 304v188q-46 -85 -140.5 -141t-232.5 -56q-129 0 -240 52.5t-194 151t-130 250.5t-47 340q0 189 48.5 341t133 249t194.5 148t237 51q142 0 237.5 -60.5t139.5 -149.5h16v702h388v-1891
q66 9 137 9q210 0 328.5 -101t118.5 -274zM532 768q0 -221 89 -350t256 -129q87 0 151.5 36.5t102.5 102.5t56 151t18 189q0 105 -18.5 189t-56.5 148.5t-102.5 100t-150.5 35.5q-168 0 -256.5 -126.5t-88.5 -346.5zM1524 -180q0 -72 37 -115.5t105 -43.5q59 0 97.5 31.5
t38.5 90.5q0 54 -40 83.5t-108 29.5q-66 0 -130 -23v-53z" />
    <glyph glyph-name="uni0222" unicode="&#x222;" horiz-adv-x="1809" 
d="M884 1300h40q175 0 262.5 52t87.5 175q0 86 -42 127.5t-134 63.5v314q130 -2 235.5 -33t184.5 -91.5t122 -157.5t43 -223q0 -275 -238 -408q235 -166 235 -486q0 -159 -57.5 -285.5t-159.5 -208t-240 -124.5t-303 -43h-29q-165 0 -303.5 43t-241.5 124t-160.5 207
t-57.5 283q0 322 237 490q-237 131 -237 408q0 126 43 223t121.5 157.5t183.5 91.5t234 33v-314q-91 -22 -132 -63.5t-41 -127.5q0 -123 87 -175t260 -52zM920 969h-29q-166 0 -260 -89t-94 -251q0 -158 94 -244.5t260 -86.5h29q168 0 259.5 86.5t91.5 248.5
q0 159 -92 247.5t-259 88.5z" />
    <glyph glyph-name="uni0223" unicode="&#x223;" horiz-adv-x="1809" 
d="M924 1272q178 0 268.5 70t90.5 225q0 113 -48 177t-137 97v299q260 -3 416.5 -151t156.5 -417q0 -318 -236 -463q236 -161 236 -485q0 -209 -98 -358t-265.5 -221.5t-387.5 -72.5h-29q-221 0 -389 72.5t-266 221t-98 357.5q0 326 237 486q-237 147 -237 463
q0 268 156.5 416.5t415.5 151.5v-299q-88 -33 -135 -97t-47 -177q0 -154 90.5 -224.5t265.5 -70.5h40zM920 959h-29q-169 0 -266 -89t-97 -247t97 -247t266 -89h29q170 0 265.5 88.5t95.5 248.5q0 158 -95.5 246.5t-265.5 88.5z" />
    <glyph glyph-name="uni0224" unicode="&#x224;" horiz-adv-x="1804" 
d="M1653 1805l-1017 -1473h523q250 0 387.5 -134.5t137.5 -370.5v-169h-327v98q0 244 -198 244h-1009v243l1017 1473h-1021v332h1507v-243z" />
    <glyph glyph-name="zhook" unicode="&#x225;" horiz-adv-x="1536" 
d="M1371 1299l-732 -984h281q251 0 388 -135.5t137 -368.5v-175h-324v98q0 266 -201 266h-766v241l734 980h-720v315h1203v-237z" />
    <glyph glyph-name="uni0226" unicode="&#x226;" horiz-adv-x="2084" 
d="M843 2376q0 82 54 134t145 52t146 -52.5t55 -133.5t-55 -132.5t-146 -51.5t-145 51.5t-54 132.5zM501 0h-424l755 2048h419l755 -2048h-423l-149 436h-784zM1030 1550l-270 -790h564l-270 790h-24z" />
    <glyph glyph-name="uni0227" unicode="&#x227;" horiz-adv-x="1564" 
d="M589 1924q0 82 54 134t145 52t146 -52.5t55 -133.5t-55 -132.5t-146 -51.5t-145 51.5t-54 132.5zM1022 0v173h-18q-46 -85 -145 -144.5t-248 -59.5q-138 0 -250.5 53t-181 160t-68.5 251q0 425 618 482q148 16 179 23q96 23 97 78v23q0 102 -59.5 158t-162.5 56
q-104 0 -179 -52.5t-97 -133.5l-365 53q52 209 226.5 322.5t424.5 113.5q95 0 180 -17t163.5 -56t135.5 -98t90.5 -150t33.5 -204v-1031h-374zM1005 512v203q-31 -34 -239 -61q-141 -16 -209 -67t-68 -149q0 -81 59 -128t156 -47q127 0 214 73.5t87 175.5z" />
    <glyph glyph-name="uni0228" unicode="&#x228;" horiz-adv-x="1665" 
d="M1508 332v-332h-468l-11 -56q87 -14 146 -71t59 -165q0 -149 -123 -237t-351 -88l-11 224q73 0 116 27t43 85q0 56 -44.5 79t-152.5 30l38 172h-572v2048h1326v-332h-931v-526h803v-331h-803v-527h936z" />
    <glyph glyph-name="uni0229" unicode="&#x229;" horiz-adv-x="1639" 
d="M1159 -308q0 -149 -123 -237t-351 -88l-11 224q73 0 116 27t43 85q0 56 -44.5 79t-152.5 30l39 176q-266 51 -415 250.5t-149 509.5q0 235 85 417t251.5 286.5t391.5 104.5q118 0 221.5 -29t189 -89t147 -147t95.5 -207.5t34 -265.5v-163h-1040q19 -175 111.5 -270.5
t254.5 -95.5q233 0 310 213l348 -94q-20 -75 -62 -143.5t-107 -129t-162.5 -103t-215.5 -55.5l-9 -49q87 -14 146 -71t59 -165zM836 1241q-133 0 -220.5 -83.5t-118.5 -235.5h661q0 140 -86.5 229.5t-235.5 89.5z" />
    <glyph glyph-name="uni022A" unicode="&#x22a;" horiz-adv-x="2073" 
d="M1513 2846v-228h-949v228h949zM555 2336q0 69 50 115t132 46q83 0 133.5 -46t50.5 -115t-50.5 -114.5t-133.5 -45.5q-82 0 -132 45.5t-50 114.5zM1156 2336q0 69 50 114.5t133 45.5t133 -45.5t50 -114.5q0 -70 -50 -115.5t-133 -45.5t-133 45.5t-50 115.5zM1938 1021
q0 -244 -68.5 -443t-189 -331t-285 -203.5t-356.5 -71.5q-193 0 -358.5 71.5t-286.5 203.5t-190 331t-69 443q0 245 69 445.5t190 333t286.5 204.5t358.5 72q192 0 356.5 -72t285 -204.5t189 -333t68.5 -445.5zM1543 1021q0 348 -137.5 523t-366.5 175q-111 0 -202.5 -42
t-160.5 -125t-107.5 -218.5t-38.5 -312.5t38.5 -311.5t108 -216.5t160.5 -123t202 -41t201.5 41t159 123t106 216.5t37.5 311.5z" />
    <glyph glyph-name="uni022B" unicode="&#x22b;" horiz-adv-x="1653" 
d="M1282 2432v-228h-949v228h949zM284 1885q0 73 53 123t135 50t135 -50t53 -123t-53 -122.5t-135 -49.5t-135 49.5t-53 122.5zM949 1884q0 74 53 123.5t135 49.5t135 -50t53 -123t-53 -122.5t-135 -49.5t-135 49t-53 123zM826 -29q-216 0 -379.5 101t-249.5 280.5
t-86 412.5q0 234 86.5 413t249 278.5t379.5 99.5t380 -99.5t249 -278.5t86 -413q0 -233 -86 -412.5t-249 -280.5t-380 -101zM826 289q118 0 196.5 63.5t112.5 167.5t34 245t-34 245t-112.5 167.5t-196.5 63.5q-88 0 -155 -35.5t-107.5 -100.5t-60.5 -150t-20 -190
q0 -216 85 -346t258 -130z" />
    <glyph glyph-name="uni022C" unicode="&#x22c;" horiz-adv-x="2073" 
d="M1513 2856v-228h-949v228h949zM1277 2494l163 -47q0 -102 -64.5 -175.5t-161.5 -73.5q-49 0 -95 14.5t-75.5 32t-70 32t-79.5 14.5t-66 -34.5t-27 -84.5l-161 46q0 102 63 176t161 74q61 0 162.5 -46t157.5 -46q38 0 65.5 34.5t27.5 83.5zM1938 1021q0 -244 -68.5 -443
t-189 -331t-285 -203.5t-356.5 -71.5q-193 0 -358.5 71.5t-286.5 203.5t-190 331t-69 443q0 245 69 445.5t190 333t286.5 204.5t358.5 72q192 0 356.5 -72t285 -204.5t189 -333t68.5 -445.5zM1543 1021q0 348 -137.5 523t-366.5 175q-111 0 -202.5 -42t-160.5 -125
t-107.5 -218.5t-38.5 -312.5t38.5 -311.5t108 -216.5t160.5 -123t202 -41t201.5 41t159 123t106 216.5t37.5 311.5z" />
    <glyph glyph-name="uni022D" unicode="&#x22d;" horiz-adv-x="1653" 
d="M1282 2501v-228h-949v228h949zM1094 2114l227 -16q0 -154 -89 -259t-224 -105q-59 0 -112.5 18.5t-87 41t-81 41t-95.5 18.5q-50 0 -83 -36t-33 -97l-227 13q0 151 88.5 258.5t221.5 107.5q49 0 101.5 -18.5t90 -40.5t88 -40.5t96.5 -18.5q51 0 85 36t34 97zM826 -29
q-216 0 -379.5 101t-249.5 280.5t-86 412.5q0 234 86.5 413t249 278.5t379.5 99.5t380 -99.5t249 -278.5t86 -413q0 -233 -86 -412.5t-249 -280.5t-380 -101zM826 289q118 0 196.5 63.5t112.5 167.5t34 245t-34 245t-112.5 167.5t-196.5 63.5q-88 0 -155 -35.5
t-107.5 -100.5t-60.5 -150t-20 -190q0 -216 85 -346t258 -130z" />
    <glyph glyph-name="uni022E" unicode="&#x22e;" horiz-adv-x="2073" 
d="M840 2376q0 82 54 134t145 52t146 -52.5t55 -133.5t-55 -132.5t-146 -51.5t-145 51.5t-54 132.5zM1938 1021q0 -244 -68.5 -443t-189 -331t-285 -203.5t-356.5 -71.5q-193 0 -358.5 71.5t-286.5 203.5t-190 331t-69 443q0 245 69 445.5t190 333t286.5 204.5t358.5 72
q192 0 356.5 -72t285 -204.5t189 -333t68.5 -445.5zM1543 1021q0 348 -137.5 523t-366.5 175q-111 0 -202.5 -42t-160.5 -125t-107.5 -218.5t-38.5 -312.5t38.5 -311.5t108 -216.5t160.5 -123t202 -41t201.5 41t159 123t106 216.5t37.5 311.5z" />
    <glyph glyph-name="uni022F" unicode="&#x22f;" horiz-adv-x="1653" 
d="M606 1924q0 82 54 134t145 52t146 -52.5t55 -133.5t-55 -132.5t-146 -51.5t-145 51.5t-54 132.5zM826 -29q-216 0 -379.5 101t-249.5 280.5t-86 412.5q0 234 86.5 413t249 278.5t379.5 99.5t380 -99.5t249 -278.5t86 -413q0 -233 -86 -412.5t-249 -280.5t-380 -101z
M826 289q118 0 196.5 63.5t112.5 167.5t34 245t-34 245t-112.5 167.5t-196.5 63.5q-88 0 -155 -35.5t-107.5 -100.5t-60.5 -150t-20 -190q0 -216 85 -346t258 -130z" />
    <glyph glyph-name="uni0230" unicode="&#x230;" horiz-adv-x="2073" 
d="M1513 2843v-227h-949v227h949zM855 2343q0 68 50.5 114t133.5 46q82 0 132.5 -46t50.5 -114q0 -69 -50.5 -115t-132.5 -46q-83 0 -133.5 45.5t-50.5 115.5zM1938 1021q0 -244 -68.5 -443t-189 -331t-285 -203.5t-356.5 -71.5q-193 0 -358.5 71.5t-286.5 203.5t-190 331
t-69 443q0 245 69 445.5t190 333t286.5 204.5t358.5 72q192 0 356.5 -72t285 -204.5t189 -333t68.5 -445.5zM1543 1021q0 348 -137.5 523t-366.5 175q-111 0 -202.5 -42t-160.5 -125t-107.5 -218.5t-38.5 -312.5t38.5 -311.5t108 -216.5t160.5 -123t202 -41t201.5 41
t159 123t106 216.5t37.5 311.5z" />
    <glyph glyph-name="uni0231" unicode="&#x231;" horiz-adv-x="1653" 
d="M1282 2485v-228h-949v228h949zM604 1918q0 82 54.5 134.5t145.5 52.5t146 -52.5t55 -134.5q0 -81 -55 -132.5t-146 -51.5t-145.5 51.5t-54.5 132.5zM826 -29q-216 0 -379.5 101t-249.5 280.5t-86 412.5q0 234 86.5 413t249 278.5t379.5 99.5t380 -99.5t249 -278.5
t86 -413q0 -233 -86 -412.5t-249 -280.5t-380 -101zM826 289q118 0 196.5 63.5t112.5 167.5t34 245t-34 245t-112.5 167.5t-196.5 63.5q-88 0 -155 -35.5t-107.5 -100.5t-60.5 -150t-20 -190q0 -216 85 -346t258 -130z" />
    <glyph glyph-name="uni0232" unicode="&#x232;" horiz-adv-x="2065" 
d="M1509 2454v-226h-948v226h948zM501 2048l519 -896h24l520 896h433l-767 -1248v-800h-395v800l-767 1248h433z" />
    <glyph glyph-name="uni0233" unicode="&#x233;" horiz-adv-x="1636" 
d="M1268 2002v-226h-948v226h948zM598 -65l29 77l-558 1524h403l338 -1012h17l337 1012h403l-649 -1765q-21 -57 -50 -107.5t-74 -99.5t-99.5 -84.5t-129 -57t-159.5 -21.5q-111 0 -213 39l88 306q57 -16 99 -18t74 8.5t57.5 38.5t45 65t41.5 95z" />
    <glyph glyph-name="lcurl" unicode="&#x234;" horiz-adv-x="1135" 
d="M555 2048v-1859q90 23 170 23q176 0 289.5 -110.5t113.5 -272.5q0 -80 -30.5 -153t-85.5 -129t-138 -89.5t-180 -33.5q-143 0 -268 69.5t-194 194.5l-230 -207l-196 224l233 209q58 49 128 96v2038h388zM555 -141q0 -73 37 -116.5t105 -43.5q47 0 79 35.5t32 86.5
q0 46 -34 80t-89 34q-66 0 -130 -23v-53z" />
    <glyph glyph-name="ncurl" unicode="&#x235;" horiz-adv-x="2077" 
d="M555 845v-845h-388v1536h364v-195h16q65 98 175 156.5t251 58.5q83 0 156.5 -20t139 -65.5t112.5 -112.5t74.5 -167.5t27.5 -225.5v-702q90 23 169 23q177 0 290.5 -110.5t113.5 -272.5q0 -80 -30.5 -153t-85.5 -129t-138 -89.5t-180 -33.5q-143 0 -268.5 69.5
t-193.5 194.5l-231 -206l-196 224l233 208q58 49 128 96v865q0 134 -72 210.5t-185 76.5q-130 0 -206 -106t-76 -285zM1483 -67q0 -73 36.5 -116.5t104.5 -43.5q48 0 79.5 35.5t31.5 86.5q0 46 -34 80t-89 34q-63 0 -129 -22v-54z" />
    <glyph glyph-name="tcurl" unicode="&#x236;" horiz-adv-x="1314" 
d="M975 1536v-288h-268v-515q90 23 170 23q177 0 291.5 -111t114.5 -272q0 -80 -31 -153t-86.5 -129t-139 -89.5t-180.5 -33.5q-143 0 -268 69.5t-194 194.5l-231 -207l-195 224l233 209q58 49 128 96v694h-207v288h207v328h388v-328h268zM707 403q0 -73 37 -116.5
t105 -43.5q47 0 80.5 35.5t33.5 86.5q0 46 -35 80t-91 34q-66 0 -130 -23v-53z" />
    <glyph glyph-name="dotlessj" unicode="&#x237;" horiz-adv-x="858" 
d="M295 1536h388v-1604q0 -251 -148.5 -381.5t-402.5 -130.5h-130v315h79q119 0 166.5 52.5t47.5 149.5v1599z" />
    <glyph glyph-name="uni0238" unicode="&#x238;" horiz-adv-x="2577" 
d="M148 728v28q0 344 155.5 552t428.5 208q220 0 362 -162v758h390v-757q142 161 364 161q143 0 255 -56t183 -157.5t107.5 -239t36.5 -304.5v-28q0 -225 -63 -393.5t-195 -267t-320 -98.5q-228 0 -368 161v-133h-352l-19 158q-146 -186 -385 -186q-178 0 -311 98.5
t-201 269t-68 388.5zM2042 731v28q0 96 -13.5 171t-45 138.5t-91 98t-143.5 34.5q-190 0 -265 -157v-597q76 -160 269 -160q83 0 140.5 32.5t89.5 94.5t45.5 138.5t13.5 178.5zM538 756v-28q0 -95 16 -172t49 -138t90.5 -94.5t135.5 -33.5q186 0 265 163v586
q-78 162 -264 162q-77 0 -134.5 -34t-91.5 -95.5t-50 -140t-16 -175.5z" />
    <glyph glyph-name="uni0239" unicode="&#x239;" horiz-adv-x="2577" 
d="M148 731v28q0 345 154 551t431 206q240 0 384 -180l23 152h315l15 -145q142 173 377 173q186 0 318.5 -95t197.5 -263.5t65 -396.5v-30q0 -219 -65 -388.5t-197 -270t-315 -100.5q-224 0 -367 159v-703h-390v699q-141 -155 -363 -155q-137 0 -247.5 57.5t-183.5 159
t-112.5 240.5t-39.5 302zM538 759v-28q0 -95 16 -173t50 -140t92 -96.5t135 -34.5q185 0 263 151v620q-76 146 -262 146q-77 0 -135 -34t-92 -95.5t-50.5 -140t-16.5 -175.5zM2041 731v30q0 199 -72.5 319.5t-224.5 120.5q-185 0 -260 -146v-618q78 -150 264 -150
q78 0 136 35t91.5 97t49.5 140t16 172z" />
    <glyph glyph-name="uni023A" unicode="&#x23a;" horiz-adv-x="2084" 
d="M1876 2176l-417 -693l547 -1483h-423l-149 436h-605l-404 -672h-272l142 236h-218l755 2048h419l105 -284l247 412h273zM1030 1550l-258 -757l345 574l-63 183h-24zM1024 760h300l-109 318z" />
    <glyph glyph-name="uni023B" unicode="&#x23b;" horiz-adv-x="2004" 
d="M666 -208l-210 80l91 241q-194 130 -303 362.5t-109 544.5q0 244 68 443.5t188.5 333t286.5 206t361 72.5q124 0 238 -29l78 206l210 -80l-80 -211q148 -85 250.5 -226.5t146.5 -330.5l-384 -44q-39 155 -146 249l-474 -1257q75 -24 161 -24q168 0 289 89.5t165 259.5
l387 -44q-75 -312 -302 -487t-539 -175q-152 0 -289 44zM530 1020q0 -360 156 -540l463 1227q-55 11 -110 11q-112 0 -204 -42.5t-160.5 -126.5t-106.5 -219t-38 -310z" />
    <glyph glyph-name="uni023C" unicode="&#x23c;" horiz-adv-x="1566" 
d="M1460 1046l-361 -54q-22 92 -71 151l-295 -847q31 -7 72 -7q112 0 185.5 60t103.5 167l364 -52q-47 -223 -222.5 -358t-430.5 -135q-90 0 -179 19l-196 -562h-230l225 644q-161 99 -248 280t-87 416q0 231 85.5 409t248.5 278.5t379 100.5q68 0 137 -11l160 459h229
l-183 -526q125 -64 206.5 -175.5t107.5 -256.5zM462 768q0 -223 85 -347l286 819q-9 1 -28 1q-168 0 -255.5 -126.5t-87.5 -346.5z" />
    <glyph glyph-name="L_bar" unicode="&#x23d;" horiz-adv-x="1747" 
d="M1027 1171v-239h-297v-600h868v-332h-1263v932h-264v239h264v877h395v-877h297z" />
    <glyph glyph-name="uni023E" unicode="&#x23e;" horiz-adv-x="1819" 
d="M496 -113l-204 99l425 903v827h-614v332h1160l113 240l204 -100l-66 -140h210v-332h-366l-248 -526v-1190h-393v356z" />
    <glyph glyph-name="uni023F" unicode="&#x23f;" horiz-adv-x="1430" 
d="M1390 1119l-353 -36q-16 79 -86 131t-178 52q-102 0 -174.5 -45.5t-72.5 -118.5q0 -118 198 -161l285 -61q412 -91 412 -415q0 -155 -90 -268.5t-241.5 -169.5t-344.5 -56q-63 0 -120 6q84 -155 133.5 -207t112.5 -52q105 0 219 103l130 -226q-85 -76 -175 -123.5
t-197 -47.5q-84 0 -155 28.5t-129 85t-100 115t-91 143.5l-261 460l28 20q-36 72 -54 159l371 42q27 -104 108.5 -161t196.5 -57q111 0 186 47.5t75 114.5q0 38 -14.5 66t-43.5 45.5t-57.5 27t-71.5 19.5l-270 61q-198 47 -311.5 154.5t-113.5 282.5q0 221 177.5 350
t470.5 129q522 0 601 -437z" />
    <glyph glyph-name="uni0240" unicode="&#x240;" horiz-adv-x="1535" 
d="M639 315h33q98 0 180.5 -31t139 -81t104.5 -110t87 -120.5t75 -110.5t80 -81t92 -31q55 0 112 31t99 70l130 -256q-177 -171 -376 -171q-84 0 -155 32t-120.5 82.5t-95 112t-90 123t-92.5 112t-114.5 82.5t-146.5 32h-427v241l734 980h-720v315h1203v-237z" />
    <glyph glyph-name="uni0241" unicode="&#x241;" horiz-adv-x="1553" 
d="M562 0v689h186q70 0 122.5 23t84 60.5t50.5 94t25.5 113t6.5 126.5v171q0 88 -12.5 157t-42.5 131.5t-89 97t-145 34.5q-119 0 -186.5 -73t-70.5 -190h-385q3 266 182.5 432t454.5 166q168 0 303 -58.5t221.5 -161.5t132.5 -239.5t46 -295.5v-171q0 -173 -53 -317.5
t-161.5 -250t-261.5 -150.5v-388h-408z" />
    <glyph glyph-name="uni0242" unicode="&#x242;" horiz-adv-x="1553" 
d="M588 662h150q258 0 258 278q0 264 -230 264q-94 0 -151 -69.5t-57 -184.5h-390q0 245 164.5 405.5t433.5 160.5q156 0 276 -43t194 -121t111.5 -181t37.5 -227q0 -202 -106 -329t-300 -160v-455h-391v662z" />
    <glyph glyph-name="uni0243" unicode="&#x243;" horiz-adv-x="1941" 
d="M1126 0h-808v491h-269v239h269v1318h752q174 0 309 -41.5t220 -116.5t128.5 -175.5t43.5 -221.5q0 -175 -91.5 -282t-259.5 -146v-17q175 -20 289.5 -154.5t114.5 -341.5q0 -251 -179.5 -401.5t-518.5 -150.5zM713 1716v-535h327q168 0 255.5 68.5t87.5 200.5
q0 118 -76 192t-246 74h-348zM1005 730v-239h-292v-159h389q173 0 254.5 69.5t81.5 194.5q0 128 -83 213t-238 85h-404v-164h292z" />
    <glyph glyph-name="uni0244" unicode="&#x244;" horiz-adv-x="2257" 
d="M2180 1169v-232h-212v-242q0 -137 -39.5 -254t-112.5 -203.5t-174 -147t-225.5 -91t-266.5 -30.5q-239 0 -423.5 83t-292 249t-107.5 394v242h-251v232h251v879h395v-879h851v879h395v-879h212zM722 706q0 -175 120.5 -277t307.5 -102t305 101.5t118 277.5v231h-851v-231
z" />
    <glyph glyph-name="uni0245" unicode="&#x245;" horiz-adv-x="2065" 
d="M1493 0l-461 1515l-459 -1515h-448l699 2004h417l700 -2004h-448z" />
    <glyph glyph-name="uni0246" unicode="&#x246;" horiz-adv-x="1774" 
d="M573 -223l-211 73l50 150h-235v2048h915l73 219l211 -73l-49 -146h176v-332h-286l-175 -526h333v-331h-443l-175 -527h751v-332h-861zM572 1190h235l175 526h-410v-526zM572 859v-377l125 377h-125z" />
    <glyph glyph-name="uni0247" unicode="&#x247;" horiz-adv-x="1591" 
d="M855 -29q-107 0 -200 21l-195 -568h-232l221 646q-163 94 -250.5 268.5t-87.5 409.5t85 417t251.5 286.5t391.5 104.5q56 0 117 -8l171 500h232l-192 -562q168 -81 263.5 -250.5t95.5 -417.5v-163h-644l-123 -357q43 -9 93 -9q233 0 310 213l348 -94q-22 -83 -71 -158
t-126.5 -139t-196 -102t-261.5 -38zM836 1241q-133 0 -220.5 -83.5t-118.5 -235.5h244l109 319h-14zM1158 922q0 154 -101 243l-84 -243h185zM486 655q17 -147 83 -237l81 237h-164z" />
    <glyph glyph-name="uni0248" unicode="&#x248;" horiz-adv-x="1709" 
d="M1031 614v318h-370v239h370v877h392v-877h194v-239h-194v-318q0 -196 -85 -342.5t-233.5 -223t-339.5 -76.5q-141 0 -259.5 38.5t-206.5 112.5t-137.5 189.5t-49.5 262.5h392q2 -132 75 -206t191 -74q116 0 188.5 80.5t72.5 238.5z" />
    <glyph glyph-name="uni0249" unicode="&#x249;" horiz-adv-x="1043" 
d="M541 1664q-94 0 -158.5 60.5t-64.5 145.5q0 84 65 145t158 61t156 -61t63 -145q0 -86 -63 -146t-156 -60zM1012 922v-239h-278v-751q0 -251 -148.5 -381.5t-402.5 -130.5h-130v315h79q119 0 166.5 52.5t47.5 149.5v746h-290v239h290v614h388v-614h278z" />
    <glyph glyph-name="Q_rthook" unicode="&#x24a;" horiz-adv-x="2215" 
d="M1966 2051v-2158q0 -162 211 -162q40 0 98 8v-300q-75 -15 -202 -15q-76 0 -142 12t-133 44t-114 83t-76.5 135.5t-29.5 194.5v298h-16q-79 -109 -213 -164.5t-305 -55.5q-210 0 -381 77.5t-286 217t-177 334t-62 427.5q0 304 108.5 541t314 372.5t477.5 135.5
q170 0 308.5 -57t212.5 -162h22v194h385zM520 1025q0 -156 33 -282t97.5 -219t167.5 -144t237 -51q84 0 156.5 20.5t125 55t93.5 81.5t66.5 97t40.5 105q40 204 40 343q0 168 -36 300q-15 51 -35.5 97.5t-61 103.5t-91.5 98t-131.5 69t-176.5 28q-131 0 -232.5 -54
t-164.5 -150.5t-95.5 -222t-32.5 -275.5z" />
    <glyph glyph-name="qrthook" unicode="&#x24b;" horiz-adv-x="1754" 
d="M1505 1536v-1643q0 -162 211 -162q40 0 98 8v-300q-75 -15 -202 -15q-76 0 -142 12t-133 44t-114 83t-76.5 135.5t-29.5 194.5v289h-16q-44 -89 -140 -149t-238 -60q-130 0 -241 52.5t-194 151t-130 250.5t-47 340q0 189 48.5 341t133 249t194.5 148t237 51
q142 0 237.5 -60.5t139.5 -149.5h21v190h383zM481 768q0 -221 88.5 -350t255.5 -129q87 0 151.5 36.5t102.5 102.5t56.5 151t18.5 189q0 141 -32 244t-107 166t-190 63q-168 0 -256 -126.5t-88 -346.5z" />
    <glyph glyph-name="uni024C" unicode="&#x24c;" horiz-adv-x="1795" 
d="M1298 0l-381 766h-342v-766h-395v766h-177v331h177v951h755q354 0 537 -170.5t183 -465.5q0 -206 -91 -348t-253 -223l424 -841h-437zM575 1716v-619h351q168 0 253 79t85 228q0 143 -81.5 227.5t-247.5 84.5h-360z" />
    <glyph glyph-name="uni024D" unicode="&#x24d;" horiz-adv-x="1258" 
d="M966 839v-239h-276v-600h-388v600h-292v239h292v697h380v-218h22q32 112 132 175.5t219 63.5q58 0 116.5 -14t95.5 -36l-121 -337q-20 11 -60 21.5t-83 10.5q-134 0 -222.5 -99.5t-90.5 -231.5v-32h276z" />
    <glyph glyph-name="uni024E" unicode="&#x24e;" horiz-adv-x="2057" 
d="M498 2048l246 -425h570l246 425h433l-261 -425h259v-211h-389l-376 -612v-800h-395v800l-376 612h-388v211h258l-261 425h434zM1017 1152h24l150 260h-324z" />
    <glyph glyph-name="uni024F" unicode="&#x24f;" horiz-adv-x="1727" 
d="M721 -65l29 77l-303 827h-325v208h248l-179 489h403l163 -489h367l163 489h403l-180 -489h100v-208h-177l-393 -1068q-21 -57 -50 -107.5t-74 -99.5t-99.5 -84.5t-128.5 -57t-159 -21.5q-113 0 -213 39l87 306q57 -16 99.5 -18t74.5 8.5t57.5 38.5t45 65t41.5 95z
M932 524h17l105 315h-227z" />
    <glyph glyph-name="aturn" unicode="&#x250;" horiz-adv-x="1574" 
d="M533 1532v-173h18q46 85 145 144.5t248 59.5q138 0 250.5 -53t181 -160t68.5 -251q0 -425 -618 -482q-148 -16 -179 -23q-96 -23 -97 -78v-23q0 -102 59.5 -158t162.5 -56q104 0 179 52.5t97 133.5l365 -53q-52 -209 -226.5 -322.5t-424.5 -113.5q-95 0 -180 17
t-163.5 56t-135.5 98t-90.5 150t-33.5 204v1031h374zM550 1020v-203q31 34 239 61q141 16 209 67t68 149q0 81 -59 128t-156 47q-127 0 -214 -73.5t-87 -175.5z" />
    <glyph glyph-name="ascript" unicode="&#x251;" horiz-adv-x="1643" 
d="M111 718v28q0 236 66 414t199 280.5t318 102.5q237 0 371 -221l23 199h336v-1056q0 -102 25 -144t74 -42q23 0 30 5l35 -278q-68 -34 -173 -34q-124 0 -205.5 60.5t-123.5 186.5q-138 -247 -395 -247q-183 0 -315.5 96.5t-198.5 263.5t-66 386zM490 746v-28
q0 -127 30 -220t98.5 -149t170.5 -56q185 0 259 166l2 576q-73 190 -257 190q-102 0 -172 -66t-100.5 -171t-30.5 -242z" />
    <glyph glyph-name="ascriptturn" unicode="&#x252;" horiz-adv-x="1809" 
d="M667 -3h-338v1011q0 102 -25 143.5t-74 41.5q-7 0 -16.5 -2t-12.5 -2l-32 290q68 37 174 37q247 0 333 -230q136 227 387 227q183 0 315.5 -94t198.5 -257.5t66 -380.5v-28q0 -231 -66 -406t-199.5 -276.5t-318.5 -101.5q-230 0 -363 206zM1253 753v28q0 93 -15.5 167
t-48 132t-90 89.5t-135.5 31.5q-169 0 -246 -142q1 -16 1 -51v-573q79 -151 244 -151q77 0 134 36.5t90.5 102t49.5 148t16 182.5z" />
    <glyph glyph-name="bhook" unicode="&#x253;" horiz-adv-x="1672" 
d="M777 1769q-62 0 -108.5 -13t-80 -51t-33.5 -98v-261h18q44 89 139 149.5t237 60.5q126 0 236 -51t194.5 -148t133 -249t48.5 -341q0 -188 -47 -340t-130 -250.5t-194 -151t-240 -52.5q-142 0 -237.5 60t-139.5 149h-23v-182h-383v1607q0 80 16 147t43 115t66.5 84.5
t82.5 59.5t95 37.5t100.5 20t102.5 5.5q127 0 201 -15v-300q-56 8 -97 8zM1192 768q0 220 -88.5 346.5t-256.5 126.5q-86 0 -150.5 -35.5t-102.5 -100t-56.5 -148.5t-18.5 -189q0 -104 18 -189t56 -151t102.5 -102.5t151.5 -36.5q167 0 256 129t89 350z" />
    <glyph glyph-name="oopen" unicode="&#x254;" horiz-adv-x="1553" 
d="M125 513h366q4 -102 74.5 -164t182.5 -62q70 0 122.5 24t84 63t51 97.5t26 118t6.5 134.5v40q0 73 -7 133.5t-26.5 119t-51 98.5t-84 64.5t-121.5 24.5q-118 0 -185.5 -75.5t-71.5 -190.5h-366q4 263 174 420.5t444 157.5q168 0 300 -58.5t215 -161.5t126 -238t43 -294
v-40q0 -160 -43 -295t-126.5 -238t-216 -161t-301.5 -58q-168 0 -308 69.5t-222.5 194t-84.5 277.5z" />
    <glyph glyph-name="ccurl" unicode="&#x255;" horiz-adv-x="1579" 
d="M826 289q96 0 164.5 32t68.5 95q0 41 -28 64t-67 23q-119 0 -299 -174q69 -40 161 -40zM1482 1046l-361 -54q-62 249 -295 249q-168 0 -255.5 -126.5t-87.5 -346.5q0 -84 14 -162q261 208 507 208q109 0 191.5 -29.5t130.5 -81.5t72 -116t24 -138q0 -97 -39 -182.5
t-112 -152t-188 -105t-257 -38.5q-219 0 -387 105q-84 -104 -170 -218l-251 204q100 147 195 261q-102 192 -102 445q0 231 86 409t249 278.5t379 100.5q261 0 438 -138.5t219 -371.5z" />
    <glyph glyph-name="drthook" unicode="&#x256;" horiz-adv-x="1816" 
d="M1117 2048h388v-2155q0 -162 211 -162q40 0 98 8v-300q-75 -15 -202 -15q-76 0 -142 12t-133 44t-114 83t-76.5 135.5t-29.5 194.5v289h-16q-44 -89 -140 -149t-238 -60q-130 0 -241 52.5t-194 151t-130 250.5t-47 340q0 189 48.5 341t133 249t194.5 148t237 51
q142 0 237.5 -60.5t139.5 -149.5h16v702zM481 768q0 -221 88.5 -350t255.5 -129q87 0 151.5 36.5t102.5 102.5t56.5 151t18.5 189q0 141 -32 244t-107 166t-190 63q-168 0 -256 -126.5t-88 -346.5z" />
    <glyph glyph-name="dhook" unicode="&#x257;" horiz-adv-x="1795" 
d="M1505 0h-383v182h-22q-44 -89 -139.5 -149t-237.5 -60q-130 0 -241 52.5t-194 151t-130 250.5t-47 340q0 189 48.5 341t133 249t194.5 148t237 51q142 0 237 -60.5t139 -149.5h17v255q0 112 33 198.5t84.5 137.5t122.5 84t138 44.5t140 11.5q112 0 202 -18v-302
q-43 10 -98 10q-36 0 -61.5 -2t-61 -11t-57.5 -26t-38 -49.5t-16 -77.5v-1601zM481 768q0 -221 88.5 -350t255.5 -129q87 0 151.5 36.5t102.5 102.5t56.5 151t18.5 189q0 141 -32 244t-107 166t-190 63q-168 0 -256 -126.5t-88 -346.5z" />
    <glyph glyph-name="erev" unicode="&#x258;" horiz-adv-x="1553" 
d="M713 -28q-202 0 -348.5 78t-229.5 195l195 210q133 -168 361 -168q152 0 248 90.5t116 241.5h-950v166q0 336 169 533.5t484 197.5q206 0 364 -97.5t243 -272t85 -398.5v-53q0 -151 -50.5 -282.5t-143.5 -229.5t-233 -154.5t-310 -56.5zM487 885h564q-22 149 -94.5 234
t-196.5 85q-135 0 -202 -79t-71 -209v-31z" />
    <glyph glyph-name="schwa" unicode="&#x259;" horiz-adv-x="1553" 
d="M723 1517q160 0 293.5 -55.5t223 -153t139 -231.5t49.5 -289v-53q0 -163 -47.5 -303t-133.5 -242t-212 -160t-276 -58q-303 0 -467 182t-164 493v221h904q-19 150 -108 243.5t-239 93.5q-135 0 -224.5 -27.5t-190.5 -82.5l-109 252q92 72 236.5 121t325.5 49zM759 288
q111 0 179 84.5t89 226.5h-517v-36q0 -127 61 -201t188 -74z" />
    <glyph glyph-name="schwahook" unicode="&#x25a;" horiz-adv-x="2239" 
d="M744 1516q253 0 431 -120t254 -321l337 73q35 -218 46 -262q31 -125 92 -159q31 -16 71 -16q20 0 48.5 2t32.5 2l50 -241q-100 -55 -211 -55q-54 0 -98.5 11t-77.5 29.5t-60.5 49t-46.5 62t-35.5 77t-27 85t-22.5 94.5l-49 -12v-20v-55q0 -224 -84.5 -398t-242 -272
t-363.5 -98q-210 0 -358.5 92.5t-221 256t-72.5 383.5v82l916 207q-43 99 -128.5 155t-202.5 56q-231 0 -363 -171l-193 213q81 114 229 192t350 78zM518 572q0 -128 68 -206.5t205 -78.5q100 0 168 57.5t99 154t33 228.5l-573 -123v-32z" />
    <glyph glyph-name="epsilon1" unicode="&#x25b;" horiz-adv-x="1727" 
d="M917 892h258v-262h-258q-281 0 -281 -180q0 -75 74 -128.5t204 -53.5q133 0 208.5 49.5t75.5 123.5h386q0 -117 -56 -209.5t-149.5 -147.5t-207 -83.5t-236.5 -28.5q-196 0 -350.5 53t-245 155.5t-90.5 239.5q0 127 73 215t210 132q-121 49 -189.5 131.5t-68.5 181.5
q0 208 180.5 322t480.5 114q172 0 314 -54t228 -159t86 -242h-389q0 73 -73 116t-185 43q-123 0 -187.5 -49.5t-64.5 -117.5q0 -75 64.5 -118t188.5 -43z" />
    <glyph glyph-name="epsilon1rev" unicode="&#x25c;" horiz-adv-x="1553" 
d="M777 630h-258v262h258q123 0 188 43.5t65 117.5q0 68 -63.5 117.5t-187.5 49.5q-113 0 -184.5 -43t-71.5 -116h-389q0 138 85.5 242.5t226.5 158.5t314 54q195 0 342.5 -49t232.5 -148.5t85 -238.5q0 -99 -69 -182t-190 -131q137 -44 210 -132t73 -215
q0 -137 -90.5 -239.5t-245 -155.5t-348.5 -53q-123 0 -236.5 28.5t-207.5 83.5t-150.5 147.5t-56.5 209.5h390q0 -74 74.5 -123.5t205.5 -49.5q130 0 203.5 53.5t73.5 128.5q0 180 -279 180z" />
    <glyph glyph-name="epsilon1revhook" unicode="&#x25d;" horiz-adv-x="2239" 
d="M805 630h-258v262h258q123 0 188 43.5t65 117.5q0 68 -63.5 117.5t-187.5 49.5q-113 0 -184.5 -43t-71.5 -116h-389q0 138 85.5 242.5t226.5 158.5t314 54q233 0 398 -71t228 -205l350 75q34 -217 48 -269q31 -123 95 -153q28 -13 64 -13q55 0 81 5l50 -244
q-92 -52 -209 -52q-54 0 -99 11t-78 29.5t-61 49t-46.5 61t-35 76t-27.5 84t-23 92.5l-99 -23q-60 -132 -235 -202q137 -44 210 -132t73 -215q0 -137 -90.5 -239.5t-245 -155.5t-348.5 -53q-123 0 -236 28.5t-207.5 83.5t-151 147.5t-56.5 209.5h390q0 -74 74.5 -123.5
t205.5 -49.5q130 0 203.5 53.5t73.5 128.5q0 180 -279 180z" />
    <glyph glyph-name="epsilon1revclosed" unicode="&#x25e;" horiz-adv-x="1553" 
d="M1424 420q0 -207 -176.5 -327.5t-462.5 -120.5q-68 0 -132.5 11t-131 37t-123 66t-107 102t-86 140.5t-56 186.5t-20.5 235v3v1q1 165 38.5 297t99.5 217.5t148 142.5t177.5 81t192.5 24q286 0 450 -113t164 -323q0 -100 -60.5 -182t-169.5 -131q255 -89 255 -347z
M805 634h-81v254h81q106 0 155.5 44t49.5 121q0 70 -48.5 118.5t-157.5 48.5q-45 0 -84 -12.5t-77 -45t-65 -84t-43.5 -135t-16.5 -192.5q0 -135 20.5 -230.5t59.5 -150t89.5 -79t116.5 -24.5q116 0 174 53t58 130q0 96 -57 140t-174 44z" />
    <glyph glyph-name="jdotlessbar" unicode="&#x25f;" horiz-adv-x="1000" 
d="M996 239v-239h-286v-68q0 -251 -148.5 -381.5t-402.5 -130.5h-130v315h79q119 0 166.5 52.5t47.5 149.5v63h-282v239h282v1297h388v-1297h286z" />
    <glyph glyph-name="ghook" unicode="&#x260;" horiz-adv-x="1769" 
d="M1727 1769q-62 0 -108.5 -13t-80 -51t-33.5 -98v-1565q0 -152 -54 -272t-151 -197t-228 -117t-288 -40q-204 0 -365.5 68.5t-234.5 160.5l190 254q84 -72 177 -117t223 -45q163 0 257.5 80.5t93.5 248.5v155h-22q-18 -34 -47.5 -65t-75 -61t-112 -48t-145.5 -18
q-126 0 -235 46.5t-194 136.5t-134 235.5t-49 331.5q0 185 48.5 334.5t133 245t195 146.5t236.5 51q142 0 237.5 -60.5t139.5 -149.5h21v261q0 110 30 194.5t78 135.5t115.5 83t134.5 44t143 12q127 0 201 -15v-300q-56 8 -97 8zM481 780q0 -213 90 -327t254 -114
q165 0 247 117t82 324q0 134 -33 235t-108.5 163.5t-187.5 62.5q-167 0 -255.5 -125.5t-88.5 -335.5z" />
    <glyph glyph-name="gcursive" unicode="&#x261;" horiz-adv-x="1635" 
d="M1109 1531h383v-1489q0 -152 -54 -272t-151 -197t-228 -117t-288 -40q-204 0 -365.5 68.5t-234.5 160.5l190 254q84 -72 177 -117t223 -45q163 0 257.5 80.5t93.5 248.5v155h-22q-18 -34 -47.5 -65t-75 -61t-112 -48t-145.5 -18q-126 0 -235 46.5t-194 136.5t-134 235.5
t-49 331.5q0 185 48.5 334.5t133 245t195 146.5t236.5 51q142 0 237.5 -60.5t139.5 -149.5h21v185zM468 780q0 -213 90 -327t254 -114q165 0 247 117t82 324q0 134 -33 235t-108.5 163.5t-187.5 62.5q-167 0 -255.5 -125.5t-88.5 -335.5z" />
    <glyph glyph-name="Gsmallcap" unicode="&#x262;" horiz-adv-x="1809" 
d="M1606 798v-577q-216 -246 -672 -246q-215 0 -383 83t-261.5 233.5t-93.5 344.5v224q0 193 92 342.5t255.5 231.5t371.5 82q310 0 482.5 -133t199.5 -390h-379q-19 112 -92.5 163.5t-210.5 51.5q-152 0 -245.5 -97t-93.5 -248v-227q0 -153 97 -251t261 -98q209 0 314 67
v175h-317v269h675z" />
    <glyph glyph-name="gamma1" unicode="&#x263;" horiz-adv-x="1777" 
d="M888 -600q-135 0 -240.5 38t-171 120.5t-65.5 199.5q0 111 94 290l187 358l-577 1097h399l373 -724l379 724h398l-576 -1112l172 -334q94 -187 94 -299q0 -118 -63 -200t-166 -120t-237 -38zM803 -215q0 -45 21 -74t64 -29q84 0 84 103q0 71 -78 232q-49 -92 -70 -141.5
t-21 -90.5z" />
    <glyph glyph-name="babygamma" unicode="&#x264;" horiz-adv-x="1891" 
d="M876 331q0 -74 69 -74t69 74q0 50 -69 162q-69 -112 -69 -162zM279 1073l-194 232q39 48 74 81t83.5 65t108.5 48.5t131 16.5q129 0 239 -86.5t224 -256.5q115 171 225.5 257t242.5 86q131 0 222.5 -56t173.5 -155l-196 -232q-82 93 -151 93q-66 0 -130 -69t-182 -266
q54 -92 76.5 -132t56.5 -106t47.5 -104t24.5 -85.5t11 -91.5q0 -163 -113 -251.5t-308 -88.5q-194 0 -307.5 88.5t-113.5 251.5q0 44 11 92t24.5 85.5t48 104t57 106t76.5 132.5q-118 197 -181.5 265.5t-130.5 68.5q-68 0 -150 -93z" />
    <glyph glyph-name="hturn" unicode="&#x265;" horiz-adv-x="1620" 
d="M1045 684v852h388v-2048h-377v693h-16q-67 -92 -173.5 -146.5t-242.5 -54.5q-218 0 -347.5 150.5t-129.5 440.5v965h389v-968q0 -126 56.5 -197t167.5 -71q132 0 208.5 103.5t76.5 280.5z" />
    <glyph glyph-name="hhook" unicode="&#x266;" horiz-adv-x="1620" 
d="M555 852v-852h-388v1607q0 110 29 194.5t75.5 135.5t112 83t131.5 44t142 12q126 0 201 -15v-300q-56 8 -98 8q-210 0 -210 -162v-244h-6v-8h16q67 92 173.5 146.5t242.5 54.5q218 0 347.5 -150.5t129.5 -440.5v-965h-389v968q0 126 -56.5 197t-167.5 71
q-132 0 -208.5 -103.5t-76.5 -280.5z" />
    <glyph glyph-name="henghook" unicode="&#x267;" horiz-adv-x="1620" 
d="M555 852v-852h-388v1607q0 110 29 194.5t75.5 135.5t112 83t131.5 44t142 12q126 0 201 -15v-300q-56 8 -98 8q-210 0 -210 -162v-244h-6v-8h16q67 92 173.5 146.5t242.5 54.5q218 0 347.5 -150.5t129.5 -440.5v-1072q0 -110 -29.5 -194.5t-77 -135.5t-114 -83t-133 -44
t-142.5 -12q-126 0 -201 15v300q56 -8 98 -8q210 0 210 162v1075q0 126 -56.5 197t-167.5 71q-132 0 -208.5 -103.5t-76.5 -280.5z" />
    <glyph glyph-name="ibar" unicode="&#x268;" horiz-adv-x="1161" 
d="M611 1664q-94 0 -158.5 60.5t-64.5 145.5q0 84 65 145t158 61t156 -61t63 -145q0 -86 -63 -146t-156 -60zM1059 922v-239h-255v-683h-388v683h-313v239h313v614h388v-614h255z" />
    <glyph glyph-name="iota1" unicode="&#x269;" horiz-adv-x="1041" 
d="M165 1488h389v-1047q0 -55 19 -95.5t52 -62t71 -31t83 -9.5q48 0 100 11v-263q-95 -19 -204 -19q-77 0 -144.5 11.5t-136.5 43t-118 82t-80 136t-31 196.5v1047z" />
    <glyph glyph-name="Ismallcap" unicode="&#x26a;" horiz-adv-x="1215" 
d="M1008 315v-315h-800v315h202v861h-202v312h800v-312h-208v-861h208z" />
    <glyph glyph-name="lmidtilde" unicode="&#x26b;" horiz-adv-x="1197" 
d="M859 1338l226 -16q0 -153 -89 -258.5t-221 -105.5v-958h-388v1078q-46 -5 -75.5 -40t-29.5 -93l-230 10q0 151 89.5 259t222.5 108q15 0 23 -1v727h388v-838q38 12 61 45.5t23 82.5z" />
    <glyph glyph-name="lbelt" unicode="&#x26c;" horiz-adv-x="1618" 
d="M1472 770h-351v-770h-388v770h-152q-207 0 -324 103.5t-117 274.5q0 85 30.5 158.5t88.5 129.5t150 88t207 32q63 0 117 -9v501h388v-1004h351v-274zM615 1044h118v72q0 156 -123 156q-55 0 -92 -34t-37 -81t35.5 -80t98.5 -33z" />
    <glyph glyph-name="lrthook" unicode="&#x26d;" horiz-adv-x="722" 
d="M555 2048v-2155q0 -162 211 -162q40 0 98 8v-300q-75 -15 -202 -15q-76 0 -142 12t-133 44t-114 83t-76.5 135.5t-29.5 194.5v2155h388z" />
    <glyph glyph-name="lyogh" unicode="&#x26e;" horiz-adv-x="1809" 
d="M559 2048v-560h1011l1 -255l-461 -620q244 -48 374.5 -208t130.5 -417q0 -182 -94.5 -316.5t-257.5 -203t-375 -68.5q-105 0 -196 15.5t-174.5 51.5t-147 92t-109.5 140t-67 192h390q26 -93 96.5 -136t207.5 -43q160 0 249 86t89 235q0 337 -391 337h-112v252l398 554
h-562v-1176h-388v2048h388z" />
    </font>
</defs>
</svg>
