<svg xmlns="http://www.w3.org/2000/svg" viewBox="0 0 32 32"><path d="M30.2 13.2l-8.5 8.5c-2.4 2.4-6.2 2.4-8.5 0l-2.8-2.8 2.8-2.8 2.8 2.8c.8.8 2.1.8 2.8 0l8.5-8.5c.8-.8.8-2.1 0-2.8l-2.8-2.8c-.8-.8-2.1-.8-2.8 0l-3 3c-1.4-.8-3-1.2-4.6-1.1l4.8-4.8c2.4-2.4 6.2-2.4 8.5 0l2.8 2.8c2.4 2.3 2.4 6.1 0 8.5zM13.4 24.3l-3 3c-.8.8-2.1.8-2.8 0l-2.8-2.8c-.8-.8-.8-2.1 0-2.8l8.5-8.5c.8-.8 2.1-.8 2.8 0l2.8 2.8 2.8-2.8-2.8-2.8c-2.4-2.4-6.2-2.4-8.5 0l-8.5 8.5c-2.4 2.4-2.4 6.2 0 8.5l2.8 2.8c2.4 2.4 6.2 2.4 8.5 0l4.8-4.8c-1.6.1-3.2-.2-4.6-1.1z" fill="#313ff6"/></svg>