<svg width="2476" height="2475" viewBox="0 0 2476 2475" fill="none" xmlns="http://www.w3.org/2000/svg">
<path d="M2475.4 1248.1C2475.4 1244.6 2475.5 1241 2475.5 1237.5C2475.5 1234 2475.5 1230.4 2475.4 1226.9C2475.4 1225.6 2475.4 1224.2 2475.4 1222.9C2467.6 546.2 1916.6 0 1238 0C554.6 0 0.5 554.1 0.5 1237.5C0.5 1920.9 554.6 2475 1238 2475C1916.6 2475 2467.6 1928.8 2475.4 1252.1C2475.4 1250.8 2475.4 1249.5 2475.4 1248.1ZM1906.7 394.4C2015.6 440.5 2113.5 506.5 2197.6 590.5C2278.4 671.3 2342.5 764.9 2388.3 868.9C2253.3 600.7 1975.5 416.8 1654.8 416.8C1201.5 416.8 834 784.3 834 1237.6C834 1690.9 1201.5 2058.4 1654.8 2058.4C1975.5 2058.4 2253.3 1874.4 2388.3 1606.2C2342.5 1710.2 2278.4 1803.8 2197.6 1884.6C2113.5 1968.6 2015.7 2034.6 1906.7 2080.7C1793.9 2128.4 1674.1 2152.6 1550.6 2152.6C1427.1 2152.6 1307.2 2128.4 1194.5 2080.7C1085.6 2034.6 987.7 1968.6 903.6 1884.6C819.6 1800.6 753.6 1702.7 707.5 1593.7C659.8 1480.9 635.6 1361.1 635.6 1237.6C635.6 1114.1 659.8 994.2 707.5 881.5C753.6 772.6 819.6 674.7 903.6 590.6C987.7 506.6 1085.5 440.6 1194.5 394.5C1307.3 346.8 1427.1 322.6 1550.6 322.6C1674.1 322.5 1793.9 346.7 1906.7 394.4ZM1084.4 1122.5C1099.3 1087.3 1120.6 1055.7 1147.7 1028.5C1174.9 1001.4 1206.5 980 1241.7 965.2C1278.1 949.8 1316.8 942 1356.7 942C1396.6 942 1435.3 949.8 1471.7 965.2C1491.8 973.7 1510.7 984.3 1528.3 996.8C1489.3 975.5 1444.5 963.3 1396.9 963.3C1245.5 963.3 1122.7 1086.1 1122.7 1237.5C1122.7 1388.9 1245.5 1511.7 1396.9 1511.7C1444.5 1511.7 1489.3 1499.6 1528.3 1478.2C1510.7 1490.8 1491.8 1501.4 1471.7 1509.8C1435.3 1525.2 1396.6 1533 1356.7 1533C1316.8 1533 1278.1 1525.2 1241.7 1509.8C1206.5 1494.9 1174.9 1473.6 1147.7 1446.5C1120.6 1419.4 1099.2 1387.7 1084.4 1352.5C1069 1316.1 1061.2 1277.4 1061.2 1237.5C1061.1 1197.6 1069 1158.9 1084.4 1122.5ZM1397.4 1142.4C1423.1 1142.4 1447 1152.6 1464.6 1170.3C1482.3 1188 1492.5 1211.8 1492.5 1237.5C1492.5 1263.2 1482.3 1287.1 1464.6 1304.7C1446.9 1322.4 1423.1 1332.6 1397.4 1332.6C1372.9 1332.6 1350.2 1323.4 1332.8 1307.2C1340.5 1309.9 1348.8 1311.4 1357.5 1311.4C1398.4 1311.4 1431.5 1278.3 1431.5 1237.4C1431.5 1196.5 1398.4 1163.4 1357.5 1163.4C1348.8 1163.4 1340.5 1164.9 1332.8 1167.6C1350.1 1151.6 1372.9 1142.4 1397.4 1142.4ZM1351.6 1341.8C1365.6 1348 1381.1 1351.4 1397.4 1351.4C1460.3 1351.4 1511.3 1300.4 1511.3 1237.5C1511.3 1174.6 1460.3 1123.6 1397.4 1123.6C1381.1 1123.6 1365.6 1127 1351.6 1133.2C1375.6 1113.4 1405.6 1102.5 1437.4 1102.5C1473.6 1102.5 1507.5 1116.7 1532.9 1142.1C1558.3 1167.5 1572.5 1201.4 1572.5 1237.6C1572.5 1273.8 1558.3 1307.7 1532.9 1333.1C1507.5 1358.5 1473.6 1372.7 1437.4 1372.7C1405.6 1372.5 1375.6 1361.6 1351.6 1341.8ZM1357.4 1182.3C1387.8 1182.3 1412.6 1207 1412.6 1237.5C1412.6 1268 1387.9 1292.7 1357.4 1292.7C1327 1292.7 1302.2 1268 1302.2 1237.5C1302.2 1207 1327 1182.3 1357.4 1182.3ZM1437.3 1391.4C1522.3 1391.4 1591.2 1322.5 1591.2 1237.5C1591.2 1152.5 1522.3 1083.6 1437.3 1083.6C1413.3 1083.6 1390.6 1089.1 1370.3 1098.9C1400.8 1075.3 1438 1062.5 1477.2 1062.5C1523.9 1062.5 1567.9 1080.7 1600.9 1113.8C1632.9 1145.8 1651 1188 1652.1 1233.1C1652.1 1234.6 1652.2 1236 1652.2 1237.5C1652.2 1237.7 1652.2 1237.9 1652.2 1238.1C1652.2 1239.4 1652.2 1240.7 1652.2 1242C1651.1 1287.1 1633 1329.3 1601 1361.3C1567.9 1394.3 1524 1412.6 1477.3 1412.6C1438.1 1412.6 1400.9 1399.8 1370.4 1376.2C1390.6 1385.9 1413.3 1391.4 1437.3 1391.4ZM1477.3 1043.7C1371.6 1043.7 1285.7 1128.3 1283.5 1233.5C1283.5 1234.8 1283.4 1236.1 1283.4 1237.5C1283.4 1238.9 1283.4 1240.2 1283.5 1241.5C1285.6 1346.7 1371.5 1431.3 1477.3 1431.3C1509.2 1431.3 1539.4 1423.6 1565.9 1409.9C1551.9 1420.4 1536.8 1429 1520.8 1435.8C1494.5 1446.9 1466.2 1452.7 1437 1452.7C1407.8 1452.7 1379.6 1447 1353.2 1435.8C1327.8 1425.1 1304.7 1409.5 1284.8 1389.6C1264.9 1369.7 1249.4 1346.6 1238.6 1321.2C1227.5 1294.9 1221.7 1266.6 1221.7 1237.4C1221.7 1208.2 1227.4 1180 1238.6 1153.6C1249.3 1128.2 1264.9 1105.1 1284.8 1085.2C1304.7 1065.3 1327.8 1049.8 1353.2 1039C1379.5 1027.9 1407.8 1022.1 1437 1022.1C1466.2 1022.1 1494.4 1027.8 1520.8 1039C1536.8 1045.8 1551.9 1054.5 1565.9 1064.9C1539.4 1051.4 1509.2 1043.7 1477.3 1043.7ZM1437.1 1003.5C1307.9 1003.5 1203.1 1108.3 1203.1 1237.5C1203.1 1366.7 1307.9 1471.5 1437.1 1471.5C1476.9 1471.5 1514.3 1461.6 1547.1 1444.1C1531.3 1455.6 1514.3 1465.2 1496.3 1472.9C1464.9 1486.2 1431.4 1492.9 1396.9 1492.9C1362.4 1492.9 1328.9 1486.1 1297.5 1472.9C1267.2 1460.1 1239.8 1441.7 1216.3 1418.2C1192.8 1394.7 1174.4 1367.3 1161.6 1337C1148.3 1305.6 1141.6 1272.1 1141.6 1237.6C1141.6 1203.1 1148.4 1169.6 1161.6 1138.2C1174.4 1107.9 1192.8 1080.5 1216.3 1057C1239.8 1033.5 1267.2 1015.1 1297.5 1002.3C1328.9 989 1362.4 982.3 1396.9 982.3C1431.4 982.3 1464.9 989.1 1496.3 1002.3C1514.3 1009.9 1531.3 1019.6 1547.1 1031.1C1514.3 1013.4 1476.8 1003.5 1437.1 1003.5ZM1356.7 1551.9C1530.3 1551.9 1671.1 1411.1 1671.1 1237.5C1671.1 1063.9 1530.3 923.1 1356.7 923.1C1257.5 923.1 1169.1 969 1111.5 1040.7C1129 1009.9 1150.6 981.6 1176 956.2C1212.5 919.7 1255.1 891 1302.4 871C1351.4 850.3 1403.5 839.8 1457.2 839.8C1510.9 839.8 1563 850.3 1612 871C1659.4 891 1701.9 919.7 1738.4 956.2C1774.9 992.7 1803.6 1035.3 1823.6 1082.6C1844.3 1131.6 1854.8 1183.7 1854.8 1237.4C1854.8 1291.1 1844.3 1343.2 1823.6 1392.2C1803.6 1439.6 1774.9 1482.1 1738.4 1518.6C1701.9 1555.1 1659.3 1583.8 1612 1603.8C1563 1624.5 1510.9 1635 1457.2 1635C1403.5 1635 1351.4 1624.5 1302.4 1603.8C1255 1583.8 1212.5 1555.1 1176 1518.6C1150.6 1493.2 1129 1464.9 1111.5 1434.1C1169.1 1506 1257.5 1551.9 1356.7 1551.9ZM1457.3 1652.4C1686.5 1652.4 1872.2 1466.6 1872.2 1237.5C1872.2 1008.4 1686.4 822.6 1457.3 822.6C1318.7 822.6 1196.1 890.5 1120.7 994.9C1143.2 954.4 1171.2 917.3 1204.4 884.1C1250.3 838.2 1303.8 802.1 1363.3 777C1424.9 750.9 1490.4 737.7 1557.9 737.7C1625.4 737.7 1690.9 750.9 1752.5 777C1812 802.2 1865.5 838.2 1911.4 884.1C1957.3 930 1993.4 983.5 2018.5 1043C2044.6 1104.6 2057.8 1170.1 2057.8 1237.6C2057.8 1305.1 2044.6 1370.6 2018.5 1432.2C1993.3 1491.7 1957.3 1545.2 1911.4 1591.1C1865.5 1637 1812 1673.1 1752.5 1698.2C1690.9 1724.3 1625.4 1737.5 1557.9 1737.5C1490.4 1737.5 1424.9 1724.3 1363.3 1698.2C1303.8 1673 1250.3 1637 1204.4 1591.1C1171.2 1557.9 1143.2 1520.8 1120.7 1480.3C1196 1584.5 1318.7 1652.4 1457.3 1652.4ZM1557.8 1753C1842.5 1753 2073.3 1522.2 2073.3 1237.5C2073.3 952.8 1842.5 722 1557.8 722C1377.4 722 1218.7 814.6 1126.6 954.9C1154.5 902.4 1190.1 854.4 1232.6 811.8C1287.9 756.5 1352.3 713.1 1424 682.8C1498.2 651.4 1577 635.5 1658.3 635.5C1739.6 635.5 1818.4 651.4 1892.6 682.8C1964.3 713.1 2028.7 756.5 2084 811.8C2139.3 867.1 2182.7 931.5 2213 1003.2C2244.4 1077.4 2260.3 1156.2 2260.3 1237.5C2260.3 1318.8 2244.4 1397.6 2213 1471.8C2182.7 1543.5 2139.3 1607.9 2084 1663.2C2028.7 1718.5 1964.3 1761.9 1892.6 1792.2C1818.4 1823.6 1739.6 1839.5 1658.3 1839.5C1577 1839.5 1498.2 1823.6 1424 1792.2C1352.3 1761.9 1287.9 1718.5 1232.6 1663.2C1190 1620.6 1154.5 1572.6 1126.5 1520.1C1218.7 1660.3 1377.4 1753 1557.8 1753ZM1658.4 1853.5C1998.6 1853.5 2274.4 1577.7 2274.4 1237.5C2274.4 897.3 1998.6 621.5 1658.4 621.5C1433.6 621.5 1236.9 741.9 1129.4 921.8C1163.1 854.5 1207.3 793.4 1261.1 739.7C1325.8 675 1401.1 624.2 1484.9 588.8C1571.7 552.1 1663.9 533.5 1759 533.5C1854.1 533.5 1946.3 552.1 2033.1 588.8C2116.9 624.3 2192.3 675 2256.9 739.7C2321.6 804.4 2372.4 879.7 2407.8 963.5C2444.5 1050.3 2463.1 1142.5 2463.1 1237.6C2463.1 1332.7 2444.5 1424.9 2407.8 1511.7C2372.3 1595.5 2321.6 1670.9 2256.9 1735.5C2192.2 1800.2 2116.9 1851 2033.1 1886.4C1946.3 1923.1 1854.1 1941.7 1759 1941.7C1663.9 1941.7 1571.7 1923.1 1484.9 1886.4C1401.1 1850.9 1325.7 1800.2 1261.1 1735.5C1207.3 1681.7 1163.2 1620.6 1129.4 1553.3C1236.9 1733.1 1433.6 1853.5 1658.4 1853.5ZM1758.9 520.9C1365.8 520.9 1046.6 837.4 1042.4 1229.5C1042.4 1229.9 1042.4 1230.4 1042.4 1230.8C1042.4 1231.2 1042.4 1231.7 1042.4 1232.1C1042.4 1233.9 1042.4 1235.7 1042.4 1237.5C1042.4 1238 1042.4 1238.6 1042.4 1239.1C1042.4 1240.4 1042.4 1241.6 1042.4 1242.9C1042.4 1243.3 1042.4 1243.8 1042.4 1244.2C1042.4 1244.6 1042.4 1245.1 1042.4 1245.5C1046.7 1637.6 1365.8 1954.1 1758.9 1954.1C2030.7 1954.1 2267.2 1802.7 2388.7 1579.7C2348.8 1665.3 2294.5 1742.7 2227.2 1810C2152.8 1884.4 2066.2 1942.7 1969.9 1983.5C1870.1 2025.7 1764.1 2047.1 1654.8 2047.1C1545.5 2047.1 1439.5 2025.7 1339.7 1983.5C1243.3 1942.7 1156.7 1884.3 1082.4 1810C1008 1735.6 949.7 1649 908.9 1552.7C866.7 1452.9 845.3 1346.9 845.3 1237.6C845.3 1128.3 866.7 1022.3 908.9 922.5C949.7 826.1 1008.1 739.5 1082.4 665.1C1156.8 590.7 1243.4 532.4 1339.7 491.6C1439.5 449.4 1545.5 428 1654.8 428C1764.1 428 1870.1 449.4 1969.9 491.6C2066.3 532.4 2152.9 590.8 2227.2 665.1C2294.5 732.4 2348.8 809.8 2388.7 895.4C2267.2 672.3 2030.7 520.9 1758.9 520.9ZM1550.5 312.5C1039.7 312.5 625.5 726.6 625.5 1237.5C625.5 1748.4 1039.6 2162.5 1550.5 2162.5C1922.7 2162.5 2243.5 1942.7 2390.2 1625.8C2389 1628.8 2387.8 1631.7 2386.5 1634.7C2335.1 1756.2 2261.5 1865.3 2167.8 1959.1C2074.1 2052.8 1964.9 2126.4 1843.4 2177.8C1717.6 2231 1584 2258 1446.2 2258C1308.4 2258 1174.8 2231 1049 2177.8C927.5 2126.4 818.4 2052.8 724.6 1959.1C630.9 1865.4 557.3 1756.2 505.9 1634.7C452.7 1508.9 425.7 1375.3 425.7 1237.5C425.7 1099.7 452.7 966.1 505.9 840.3C557.3 718.8 630.9 609.7 724.6 515.9C818.3 422.2 927.5 348.6 1049 297.2C1174.8 244 1308.4 217 1446.2 217C1584 217 1717.6 244 1843.4 297.2C1964.9 348.6 2074 422.2 2167.8 515.9C2261.5 609.6 2335.1 718.8 2386.5 840.3C2387.7 843.2 2389 846.2 2390.2 849.1C2243.5 532.3 1922.7 312.5 1550.5 312.5ZM1446.4 208.4C878 208.4 417.2 669.1 417.2 1237.5C417.2 1805.9 878 2266.6 1446.4 2266.6C1872.9 2266.6 2238.8 2007.1 2394.9 1637.5C2390 1650.3 2384.9 1663 2379.6 1675.7C2322.9 1809.7 2241.7 1930.2 2138.3 2033.6C2034.9 2137 1914.5 2218.2 1780.4 2274.9C1641.7 2333.6 1494.2 2363.3 1342.2 2363.3C1190.2 2363.3 1042.8 2333.5 904 2274.9C770 2218.2 649.5 2137 546.1 2033.6C442.7 1930.2 361.5 1809.8 304.8 1675.7C246.1 1537 216.4 1389.5 216.4 1237.5C216.4 1085.5 246.2 938.1 304.8 799.3C361.5 665.3 442.7 544.8 546.1 441.4C649.5 338 769.9 256.8 904 200.1C1042.7 141.4 1190.2 111.7 1342.2 111.7C1494.2 111.7 1641.6 141.5 1780.4 200.1C1914.4 256.8 2034.9 338 2138.3 441.4C2241.7 544.8 2322.9 665.2 2379.6 799.3C2384.9 811.9 2390 824.7 2394.9 837.4C2238.7 467.8 1872.9 208.4 1446.4 208.4ZM2372.5 1716.7C2310.5 1863.3 2221.7 1995 2108.6 2108.1C1995.5 2221.2 1863.8 2310 1717.2 2372C1565.5 2436.2 1404.2 2468.7 1238 2468.7C1071.8 2468.7 910.5 2436.2 758.8 2372C612.2 2310 480.5 2221.2 367.4 2108.1C254.3 1995 165.5 1863.3 103.5 1716.7C39.3 1565 6.8 1403.7 6.8 1237.5C6.8 1071.3 39.3 910 103.5 758.3C165.5 611.7 254.3 480 367.4 366.9C480.5 253.8 612.2 165 758.8 103C910.5 38.8 1071.8 6.3 1238 6.3C1404.2 6.3 1565.5 38.8 1717.2 103C1863.8 165 1995.5 253.8 2108.6 366.9C2221.7 480 2310.5 611.7 2372.5 758.3C2383.2 783.5 2392.9 809 2401.8 834.7C2239.4 407.7 1826.2 104.2 1342.2 104.2C716.3 104.2 208.9 611.6 208.9 1237.5C208.9 1863.4 716.3 2370.8 1342.2 2370.8C1826.2 2370.8 2239.4 2067.4 2401.8 1640.3C2392.9 1666 2383.1 1691.5 2372.5 1716.7Z" fill="black" fill-opacity="0.1"/>
</svg>
