<?xml version="1.0" encoding="utf-8"?>
<!-- Generator: Adobe Illustrator 21.0.0, SVG Export Plug-In . SVG Version: 6.00 Build 0)  -->
<svg version="1.1" id="Layer_1" xmlns="http://www.w3.org/2000/svg" xmlns:xlink="http://www.w3.org/1999/xlink" x="0px" y="0px"
	 viewBox="0 0 173.5 68" style="enable-background:new 0 0 173.5 68;" xml:space="preserve">
<path fill="#fff" d="M38.2,3c-17.1,0-31,13.9-31,31c0,17.1,13.9,31,31,31c16.7,0,30.2-13.2,31-29.7c0-0.3,0-0.6,0-0.9c0-0.2,0-0.3,0-0.5
	c0,0,0,0,0,0s0,0,0,0c0-0.5,0-0.9,0-1.4C68.4,16.1,54.8,3,38.2,3z M49.5,60.9c-3.6,1.5-7.4,2.3-11.3,2.3c-3.9,0-7.8-0.8-11.3-2.3
	c-3.5-1.5-6.6-3.6-9.3-6.3c-2.7-2.7-4.8-5.8-6.2-9.3C9.8,41.8,9,37.9,9,34c0-3.9,0.8-7.8,2.3-11.4c1.5-3.5,3.6-6.6,6.2-9.3
	c2.7-2.7,5.8-4.8,9.3-6.3c3.6-1.5,7.4-2.3,11.3-2.3c3.9,0,7.8,0.8,11.3,2.3c2,0.8,3.8,1.9,5.5,3.1c-3.8-2.1-8.2-3.3-12.9-3.3
	c-14.9,0-27,12.1-27,27.1s12.1,27.1,27,27.1c4.7,0,9.1-1.2,12.9-3.3C53.3,59,51.5,60.1,49.5,60.9z M51.9,57.2c-3.1,1.3-6.4,2-9.8,2
	c-3.4,0-6.7-0.7-9.8-2c-3-1.3-5.7-3.1-8-5.4c-2.3-2.3-4.1-5-5.4-8c-1.3-3.1-2-6.4-2-9.8s0.7-6.7,2-9.8c1.3-3,3.1-5.7,5.4-8
	c2.3-2.3,5-4.1,8-5.4c3.1-1.3,6.4-2,9.8-2c3.4,0,6.7,0.7,9.8,2c1.7,0.7,3.4,1.7,4.9,2.8c-3.2-1.7-6.8-2.6-10.7-2.6
	C33.4,10.9,23,21.2,23,34c0,12.8,10.3,23.1,23.1,23.1c3.9,0,7.5-1,10.7-2.6C55.3,55.6,53.7,56.5,51.9,57.2z M54.4,53.6
	c-2.6,1.1-5.4,1.7-8.3,1.7c-2.9,0-5.7-0.6-8.3-1.7c-2.5-1.1-4.8-2.6-6.7-4.6c-2-2-3.5-4.2-4.6-6.8c-1.1-2.6-1.7-5.4-1.7-8.3
	c0-2.9,0.6-5.7,1.7-8.3c1.1-2.5,2.6-4.8,4.6-6.8c2-2,4.2-3.5,6.7-4.6c2.6-1.1,5.4-1.7,8.3-1.7c2.9,0,5.7,0.6,8.3,1.7
	c1.6,0.7,3,1.5,4.4,2.6c-2.6-1.3-5.6-2.1-8.7-2.1c-10,0-18.2,7.7-19,17.6C31,33,31,33.5,31,34s0,1,0.1,1.6c0.8,9.8,9,17.6,19,17.6
	c3.1,0,6.1-0.8,8.7-2.1C57.4,52.1,55.9,52.9,54.4,53.6z M38.3,41.3c4,0,7.3-3.3,7.3-7.3c0-4-3.3-7.3-7.3-7.3c-0.9,0-1.7,0.2-2.4,0.4
	c1.7-1.6,4-2.5,6.4-2.5c2.5,0,4.9,1,6.6,2.8c1.7,1.7,2.7,4.1,2.7,6.6c0,2.5-1,4.9-2.7,6.6c-1.7,1.7-4.1,2.8-6.6,2.8
	c-2.4,0-4.6-0.9-6.4-2.5C36.6,41.2,37.4,41.3,38.3,41.3z M32.8,34c0-3,2.4-5.4,5.4-5.4c3,0,5.4,2.4,5.4,5.4c0,3-2.4,5.4-5.4,5.4
	C35.3,39.4,32.8,37,32.8,34z M42.2,45.2c6.2,0,11.2-5,11.2-11.2c0-6.2-5-11.3-11.2-11.3c-1.6,0-3.1,0.3-4.5,1c2.4-2,5.3-3,8.5-3
	c3.6,0,6.9,1.4,9.4,3.9c2.5,2.5,3.9,5.9,3.9,9.4c0,3.6-1.4,6.9-3.9,9.4c-2.5,2.5-5.8,3.9-9.4,3.9c-3.1,0-6.1-1.1-8.5-3
	C39.1,44.9,40.6,45.2,42.2,45.2z M67.3,34c0,0.6,0,1.2-0.1,1.7c-0.4,4-2.1,7.6-5,10.5c-3.3,3.3-7.6,5.1-12.2,5.1
	c-3.9,0-7.5-1.3-10.5-3.6c2,1,4.2,1.5,6.6,1.5c8.4,0,15.2-6.8,15.2-15.2c0-8.4-6.8-15.2-15.2-15.2c-2.4,0-4.6,0.6-6.6,1.5
	c3-2.3,6.7-3.6,10.5-3.6c4.6,0,8.9,1.8,12.2,5.1c2.8,2.9,4.6,6.5,5,10.5C67.3,32.8,67.3,33.4,67.3,34C67.3,34,67.3,34,67.3,34z
	 M148.3,31.8c-2.5,0-4.5,2-4.5,4.6v0c0,2.5,2,4.6,4.5,4.6c2.5,0,4.5-2,4.5-4.6v0C152.8,33.9,150.8,31.8,148.3,31.8z M151,36.4
	c0,1.5-1.2,2.7-2.7,2.7c-1.5,0-2.7-1.2-2.7-2.7v0c0-1.5,1.2-2.7,2.7-2.7C149.8,33.7,151,34.9,151,36.4L151,36.4z M119.1,34.5
	c1-1.1,2.8-1.1,3.8,0c0,0,0,0,0,0l1.3-1.3c0,0,0,0,0,0c-1.8-1.8-4.7-1.8-6.4,0l0,0c-1.8,1.8-1.8,4.7,0,6.4c1.8,1.8,4.7,1.8,6.4,0
	l0,0l-1.3-1.3l0,0c-1,1.1-2.8,1.1-3.8,0C118,37.2,118,35.5,119.1,34.5L119.1,34.5z M101.6,40.6h9.1v-1.9h-7.1v-3.4h5.2v-1.9h-5.2
	v-3.4h7.1v-1.9h-9.1V40.6z M137.3,33c-0.3-0.3-0.7-0.5-1.1-0.7c-0.4-0.2-0.9-0.2-1.4-0.2c-0.2,0-0.4,0-0.7,0.1
	c-0.2,0-0.5,0.1-0.7,0.2c-0.2,0.1-0.4,0.2-0.7,0.4c-0.2,0.2-0.4,0.4-0.6,0.6v-5.1h-1.9v12.5h1.9v-4.6c0-0.4,0.1-0.7,0.2-1
	c0.1-0.3,0.3-0.5,0.5-0.7c0.2-0.2,0.4-0.3,0.7-0.4c0.3-0.1,0.6-0.1,0.9-0.1c0.6,0,1.1,0.2,1.5,0.6c0.3,0.4,0.5,0.9,0.5,1.7v4.6h1.9
	v-5.2c0-0.5-0.1-1-0.3-1.4C137.8,33.7,137.6,33.3,137.3,33z"/>
</svg>
