<?xml version="1.0" encoding="utf-8"?>
<!-- Generator: Adobe Illustrator 23.0.0, SVG Export Plug-In . SVG Version: 6.00 Build 0)  -->
<svg version="1.1" id="Слой_1" xmlns="http://www.w3.org/2000/svg" xmlns:xlink="http://www.w3.org/1999/xlink" x="0px" y="0px"
	 viewBox="0 0 42 42" style="enable-background:new 0 0 42 42;" xml:space="preserve">
<g>
	<path d="M25,37v3h-8v-3H0v5h42v-5H25z M0,0v35h17v-3h8v3h17V0H0z M15,11h-3v16h3v2h-5V9h5V11z M19,20h-2v-2h2V20z M22,20h-2v-2h2
		V20z M25,20h-2v-2h2V20z M32,29h-5v-2h3V11h-3V9h5V29z M19,34v4h4v-4H19z"/>
</g>
</svg>
