<?xml version="1.0" encoding="utf-8"?>
<!-- Generator: Adobe Illustrator 23.0.0, SVG Export Plug-In . SVG Version: 6.00 Build 0)  -->
<svg version="1.1" id="Слой_1" xmlns="http://www.w3.org/2000/svg" xmlns:xlink="http://www.w3.org/1999/xlink" x="0px" y="0px"
	 viewBox="0 0 42 42" style="enable-background:new 0 0 42 42;" xml:space="preserve">
<g>
	<polygon points="8,14 0,14 0,0 11,0 11,11 8,11 	"/>
	<polygon points="8,19 11,19 11,24 0,24 0,16 8,16 	"/>
	<rect y="26" width="11" height="16"/>
	<rect x="10" y="13" width="4" height="4"/>
	<polygon points="16,11 13,11 13,0 27,0 27,14 16,14 	"/>
	<polygon points="24,24 13,24 13,19 16,19 16,16 27,16 27,21 24,21 	"/>
	<polygon points="24,29 27,29 27,42 13,42 13,26 24,26 	"/>
	<rect x="26" y="23" width="4" height="4"/>
	<rect x="29" width="13" height="14"/>
	<polygon points="29,16 42,16 42,24 32,24 32,21 29,21 	"/>
	<polygon points="32,26 42,26 42,34 32,34 32,36 42,36 42,38 32,38 32,40 42,40 42,42 29,42 29,29 32,29 	"/>
</g>
</svg>
